<svg width="1440" height="198" viewBox="0 0 1440 198" fill="none" xmlns="http://www.w3.org/2000/svg">
<g clip-path="url(#clip0_42_816)" filter="url(#filter0_d_42_816)">
<rect width="1728" height="46" transform="translate(-156 123.224) rotate(-2.86014)" fill="#D8F812"/>
<path d="M24.293 132.453C24.292 132.241 24.636 132.139 24.7492 132.318C25.2811 133.16 26.1758 134.39 27.1475 134.922C28.1191 135.452 29.6396 135.542 30.6345 135.535C30.8467 135.534 30.9468 135.878 30.7673 135.991C29.9259 136.523 28.6976 137.417 28.1656 138.389C27.6335 139.361 27.5455 140.881 27.5528 141.876C27.5538 142.088 27.2077 142.188 27.0965 142.009C26.5646 141.168 25.67 139.939 24.6964 139.407C23.7247 138.875 22.2042 138.787 21.2113 138.794C20.9991 138.795 20.897 138.449 21.0766 138.338C21.918 137.806 23.1482 136.912 23.6801 135.938C24.2102 134.966 24.3002 133.446 24.293 132.453Z" fill="black"/>
<path d="M93.0951 137.813L92.6596 129.097L95.6048 128.949C96.2886 128.915 96.8537 129.011 97.3002 129.236C97.7493 129.458 98.0893 129.772 98.3201 130.179C98.5509 130.586 98.6791 131.046 98.7048 131.559C98.7304 132.073 98.6488 132.545 98.4598 132.975C98.2736 133.406 97.9698 133.756 97.5481 134.028C97.1263 134.296 96.5764 134.448 95.8982 134.481L93.7872 134.587L93.7405 133.651L95.8174 133.547C96.2856 133.523 96.6575 133.424 96.9331 133.248C97.2088 133.072 97.4036 132.843 97.5175 132.562C97.6342 132.277 97.6837 131.96 97.6663 131.611C97.6489 131.262 97.568 130.953 97.4238 130.685C97.2823 130.416 97.0644 130.211 96.77 130.069C96.4755 129.924 96.0914 129.864 95.6175 129.887L93.7619 129.98L94.1506 137.76L93.0951 137.813ZM101.669 137.385L100.562 137.44L103.327 128.564L104.417 128.509L108.053 137.066L106.946 137.121L103.975 129.914L103.907 129.917L101.669 137.385ZM101.907 133.959L106.368 133.736L106.414 134.673L101.954 134.896L101.907 133.959ZM110.909 136.923L110.473 128.207L113.419 128.059C114.099 128.025 114.664 128.114 115.113 128.325C115.561 128.533 115.901 128.833 116.131 129.225C116.361 129.618 116.489 130.071 116.514 130.584C116.54 131.098 116.458 131.558 116.268 131.966C116.077 132.374 115.771 132.702 115.348 132.951C114.925 133.197 114.376 133.336 113.701 133.37L111.318 133.489L111.27 132.536L113.619 132.418C114.085 132.395 114.456 132.308 114.733 132.158C115.012 132.008 115.21 131.804 115.325 131.548C115.443 131.289 115.493 130.985 115.476 130.636C115.458 130.287 115.378 129.985 115.234 129.731C115.091 129.476 114.872 129.285 114.578 129.158C114.285 129.027 113.902 128.974 113.431 128.997L111.576 129.09L111.964 136.87L110.909 136.923ZM114.816 132.802L117.157 136.611L115.931 136.672L113.624 132.862L114.816 132.802ZM120.073 136.465L119.638 127.749L120.693 127.696L120.909 132.02L121.011 132.015L124.711 127.495L126.09 127.426L122.626 131.542L126.525 136.143L125.249 136.207L122.016 132.306L120.987 133.586L121.129 136.412L120.073 136.465ZM134.879 126.987L135.314 135.704L134.259 135.756L133.823 127.04L134.879 126.987ZM138.063 127.767L138.016 126.83L144.554 126.504L144.6 127.44L141.86 127.577L142.248 135.357L141.193 135.41L140.804 127.63L138.063 127.767ZM152.985 134.821L152.55 126.104L157.81 125.842L157.857 126.778L153.652 126.988L153.799 129.933L157.732 129.737L157.779 130.673L153.846 130.87L153.994 133.832L158.267 133.618L158.314 134.555L152.985 134.821ZM162.004 134.37L160.897 134.425L163.662 125.549L164.752 125.495L168.388 134.051L167.281 134.107L164.31 126.899L164.242 126.903L162.004 134.37ZM162.242 130.945L166.703 130.722L166.749 131.658L162.289 131.881L162.242 130.945ZM175.684 127.133C175.611 126.704 175.387 126.38 175.012 126.16C174.637 125.94 174.186 125.843 173.658 125.869C173.272 125.888 172.938 125.968 172.654 126.107C172.374 126.246 172.159 126.429 172.008 126.655C171.86 126.882 171.793 127.134 171.807 127.412C171.818 127.645 171.884 127.842 172.003 128.004C172.124 128.163 172.276 128.293 172.457 128.395C172.639 128.494 172.828 128.574 173.024 128.636C173.22 128.694 173.4 128.741 173.564 128.775L174.461 128.969C174.691 129.017 174.948 129.087 175.231 129.178C175.518 129.269 175.793 129.399 176.057 129.568C176.324 129.734 176.549 129.953 176.73 130.225C176.912 130.498 177.012 130.838 177.033 131.247C177.056 131.718 176.954 132.15 176.726 132.542C176.501 132.935 176.159 133.255 175.699 133.503C175.242 133.75 174.679 133.891 174.009 133.924C173.385 133.955 172.84 133.881 172.373 133.703C171.909 133.524 171.537 133.261 171.258 132.914C170.982 132.566 170.815 132.155 170.757 131.68L171.846 131.626C171.891 131.953 172.016 132.22 172.219 132.426C172.426 132.629 172.68 132.776 172.984 132.866C173.289 132.953 173.615 132.988 173.962 132.971C174.365 132.951 174.723 132.867 175.037 132.721C175.351 132.571 175.596 132.374 175.771 132.129C175.947 131.882 176.026 131.599 176.011 131.281C175.996 130.992 175.903 130.76 175.733 130.587C175.562 130.413 175.342 130.276 175.072 130.176C174.803 130.076 174.512 129.991 174.202 129.921L173.114 129.668C172.423 129.506 171.87 129.254 171.455 128.91C171.039 128.567 170.817 128.102 170.788 127.514C170.763 127.026 170.874 126.594 171.12 126.218C171.368 125.838 171.711 125.537 172.15 125.313C172.591 125.086 173.089 124.959 173.645 124.931C174.207 124.903 174.712 124.979 175.159 125.158C175.605 125.335 175.965 125.59 176.238 125.924C176.513 126.257 176.669 126.643 176.705 127.082L175.684 127.133ZM179.2 124.773L180.409 124.713L183.03 128.661L183.132 128.655L185.346 124.466L186.555 124.405L183.661 129.687L183.841 133.279L182.785 133.332L182.606 129.74L179.2 124.773Z" fill="#101010"/>
<path d="M260.998 120.627C260.997 120.415 261.341 120.313 261.454 120.492C261.986 121.334 262.881 122.564 263.852 123.096C264.824 123.626 266.344 123.716 267.339 123.709C267.551 123.708 267.652 124.052 267.472 124.165C266.631 124.697 265.402 125.592 264.87 126.563C264.338 127.535 264.25 129.055 264.258 130.05C264.259 130.262 263.913 130.363 263.801 130.183C263.269 129.342 262.375 128.113 261.401 127.581C260.429 127.049 258.909 126.961 257.916 126.969C257.704 126.97 257.602 126.624 257.781 126.512C258.623 125.98 259.853 125.086 260.385 124.112C260.915 123.141 261.005 121.62 260.998 120.627Z" fill="black"/>
<path d="M329.8 125.987L329.364 117.271L332.31 117.124C332.993 117.089 333.559 117.185 334.005 117.41C334.454 117.632 334.794 117.947 335.025 118.353C335.256 118.76 335.384 119.22 335.41 119.733C335.435 120.247 335.354 120.719 335.165 121.149C334.978 121.58 334.675 121.931 334.253 122.202C333.831 122.47 333.281 122.622 332.603 122.656L330.492 122.761L330.445 121.825L332.522 121.721C332.99 121.698 333.362 121.598 333.638 121.422C333.914 121.246 334.108 121.017 334.222 120.736C334.339 120.451 334.389 120.134 334.371 119.785C334.354 119.436 334.273 119.127 334.129 118.859C333.987 118.59 333.769 118.385 333.475 118.243C333.18 118.098 332.796 118.038 332.322 118.062L330.467 118.154L330.855 125.934L329.8 125.987ZM338.374 125.559L337.267 125.614L340.032 116.738L341.122 116.683L344.758 125.24L343.651 125.295L340.68 118.088L340.612 118.091L338.374 125.559ZM338.612 122.133L343.073 121.911L343.119 122.847L338.659 123.07L338.612 122.133ZM347.614 125.097L347.178 116.381L350.123 116.234C350.804 116.2 351.369 116.288 351.818 116.499C352.266 116.707 352.605 117.007 352.835 117.399C353.066 117.792 353.193 118.245 353.219 118.758C353.245 119.272 353.162 119.733 352.972 120.14C352.782 120.548 352.476 120.876 352.053 121.125C351.63 121.371 351.081 121.51 350.406 121.544L348.022 121.663L347.975 120.71L350.324 120.593C350.789 120.569 351.16 120.483 351.437 120.332C351.717 120.182 351.915 119.978 352.03 119.722C352.148 119.463 352.198 119.159 352.181 118.81C352.163 118.461 352.083 118.159 351.939 117.905C351.796 117.65 351.577 117.459 351.283 117.332C350.989 117.201 350.607 117.148 350.136 117.172L348.28 117.264L348.669 125.044L347.614 125.097ZM351.521 120.977L353.861 124.785L352.636 124.846L350.329 121.036L351.521 120.977ZM356.778 124.639L356.342 115.923L357.398 115.87L357.614 120.194L357.716 120.189L361.416 115.669L362.795 115.6L359.331 119.716L363.23 124.317L361.953 124.381L358.721 120.48L357.692 121.76L357.833 124.586L356.778 124.639ZM371.583 115.161L372.019 123.878L370.963 123.931L370.528 115.214L371.583 115.161ZM374.768 115.941L374.721 115.005L381.258 114.678L381.305 115.614L378.564 115.751L378.953 123.531L377.898 123.584L377.509 115.804L374.768 115.941ZM389.69 122.995L389.255 114.279L394.515 114.016L394.562 114.952L390.357 115.162L390.504 118.107L394.437 117.911L394.483 118.847L390.551 119.044L390.699 122.006L394.972 121.792L395.019 122.729L389.69 122.995ZM398.709 122.544L397.602 122.6L400.367 113.723L401.457 113.669L405.093 122.225L403.986 122.281L401.015 115.073L400.947 115.077L398.709 122.544ZM398.947 119.119L403.407 118.896L403.454 119.833L398.994 120.055L398.947 119.119ZM412.389 115.307C412.316 114.879 412.092 114.554 411.717 114.334C411.342 114.114 410.891 114.017 410.363 114.043C409.977 114.062 409.642 114.142 409.359 114.281C409.079 114.42 408.863 114.603 408.713 114.83C408.565 115.056 408.498 115.308 408.511 115.586C408.523 115.819 408.588 116.016 408.707 116.178C408.829 116.337 408.981 116.467 409.162 116.569C409.343 116.668 409.532 116.748 409.729 116.81C409.925 116.868 410.105 116.915 410.269 116.949L411.166 117.143C411.396 117.192 411.653 117.261 411.936 117.352C412.222 117.443 412.498 117.573 412.762 117.742C413.029 117.908 413.253 118.127 413.435 118.4C413.616 118.672 413.717 119.013 413.738 119.421C413.761 119.892 413.659 120.324 413.431 120.717C413.206 121.109 412.864 121.429 412.404 121.677C411.947 121.924 411.384 122.065 410.714 122.098C410.09 122.129 409.544 122.056 409.077 121.877C408.613 121.698 408.242 121.435 407.963 121.088C407.687 120.74 407.52 120.329 407.462 119.854L408.551 119.8C408.596 120.128 408.72 120.394 408.924 120.6C409.13 120.803 409.385 120.95 409.688 121.04C409.994 121.127 410.32 121.162 410.666 121.145C411.069 121.125 411.428 121.041 411.742 120.895C412.056 120.745 412.301 120.548 412.476 120.303C412.652 120.056 412.731 119.773 412.715 119.455C412.701 119.166 412.608 118.934 412.437 118.761C412.267 118.587 412.046 118.45 411.777 118.35C411.507 118.25 411.217 118.165 410.907 118.095L409.819 117.842C409.128 117.68 408.575 117.428 408.16 117.084C407.744 116.741 407.522 116.276 407.492 115.688C407.468 115.2 407.579 114.768 407.825 114.392C408.073 114.012 408.416 113.711 408.855 113.487C409.295 113.26 409.794 113.133 410.35 113.105C410.912 113.077 411.416 113.153 411.863 113.332C412.31 113.509 412.67 113.764 412.943 114.098C413.218 114.431 413.374 114.817 413.41 115.256L412.389 115.307ZM415.905 112.947L417.114 112.887L419.734 116.835L419.836 116.83L422.051 112.64L423.259 112.58L420.366 117.861L420.545 121.453L419.49 121.506L419.31 117.914L415.905 112.947Z" fill="#101010"/>
<path d="M497.703 108.801C497.702 108.589 498.046 108.487 498.159 108.666C498.691 109.508 499.585 110.738 500.557 111.27C501.529 111.8 503.049 111.89 504.044 111.883C504.256 111.882 504.356 112.226 504.177 112.339C503.335 112.871 502.107 113.766 501.575 114.737C501.043 115.709 500.955 117.23 500.962 118.224C500.963 118.437 500.617 118.537 500.506 118.357C499.974 117.516 499.08 116.287 498.106 115.756C497.134 115.224 495.614 115.136 494.621 115.143C494.409 115.144 494.307 114.798 494.486 114.687C495.328 114.155 496.558 113.26 497.09 112.286C497.62 111.315 497.71 109.794 497.703 108.801Z" fill="black"/>
<path d="M566.505 114.161L566.069 105.445L569.014 105.298C569.698 105.263 570.263 105.359 570.71 105.584C571.159 105.806 571.499 106.121 571.73 106.527C571.96 106.934 572.089 107.394 572.114 107.908C572.14 108.421 572.058 108.893 571.869 109.324C571.683 109.754 571.379 110.105 570.958 110.376C570.536 110.645 569.986 110.796 569.308 110.83L567.197 110.935L567.15 109.999L569.227 109.895C569.695 109.872 570.067 109.772 570.343 109.596C570.618 109.42 570.813 109.191 570.927 108.91C571.044 108.625 571.093 108.308 571.076 107.959C571.058 107.61 570.978 107.302 570.833 107.033C570.692 106.764 570.474 106.559 570.18 106.417C569.885 106.272 569.501 106.212 569.027 106.236L567.171 106.328L567.56 114.108L566.505 114.161ZM575.078 113.733L573.972 113.788L576.737 104.912L577.827 104.857L581.463 113.414L580.356 113.469L577.385 106.262L577.317 106.265L575.078 113.733ZM575.317 110.308L579.777 110.085L579.824 111.021L575.364 111.244L575.317 110.308ZM584.318 113.271L583.883 104.555L586.828 104.408C587.509 104.374 588.074 104.462 588.522 104.673C588.971 104.881 589.31 105.181 589.54 105.574C589.77 105.966 589.898 106.419 589.924 106.932C589.949 107.446 589.867 107.907 589.677 108.314C589.487 108.722 589.181 109.05 588.758 109.299C588.335 109.545 587.786 109.685 587.11 109.718L584.727 109.837L584.679 108.884L587.029 108.767C587.494 108.743 587.865 108.657 588.142 108.506C588.422 108.356 588.619 108.152 588.735 107.896C588.853 107.637 588.903 107.333 588.885 106.984C588.868 106.635 588.787 106.334 588.644 106.079C588.5 105.825 588.282 105.634 587.988 105.506C587.694 105.376 587.312 105.322 586.841 105.346L584.985 105.438L585.374 113.218L584.318 113.271ZM588.226 109.151L590.566 112.959L589.34 113.02L587.034 109.21L588.226 109.151ZM593.483 112.813L593.047 104.097L594.103 104.044L594.319 108.368L594.421 108.363L598.12 103.843L599.499 103.775L596.036 107.89L599.935 112.491L598.658 112.555L595.425 108.654L594.397 109.935L594.538 112.761L593.483 112.813ZM608.288 103.336L608.724 112.052L607.668 112.105L607.233 103.388L608.288 103.336ZM611.473 104.115L611.426 103.179L617.963 102.852L618.01 103.788L615.269 103.925L615.658 111.705L614.602 111.758L614.214 103.978L611.473 104.115ZM626.395 111.169L625.959 102.453L631.22 102.19L631.267 103.126L627.062 103.336L627.209 106.281L631.141 106.085L631.188 107.021L627.256 107.218L627.404 110.18L631.677 109.967L631.723 110.903L626.395 111.169ZM635.413 110.718L634.307 110.774L637.072 101.897L638.161 101.843L641.797 110.4L640.691 110.455L637.72 103.248L637.651 103.251L635.413 110.718ZM635.652 107.293L640.112 107.07L640.159 108.007L635.699 108.23L635.652 107.293ZM649.093 103.481C649.021 103.053 648.797 102.728 648.422 102.508C648.047 102.288 647.595 102.191 647.068 102.217C646.682 102.237 646.347 102.316 646.064 102.455C645.784 102.594 645.568 102.777 645.417 103.004C645.269 103.23 645.202 103.482 645.216 103.76C645.228 103.993 645.293 104.19 645.412 104.352C645.534 104.511 645.685 104.642 645.867 104.743C646.048 104.842 646.237 104.923 646.434 104.984C646.63 105.042 646.81 105.089 646.974 105.123L647.871 105.317C648.101 105.366 648.358 105.435 648.641 105.526C648.927 105.617 649.202 105.747 649.467 105.916C649.734 106.082 649.958 106.301 650.14 106.574C650.321 106.846 650.422 107.187 650.442 107.595C650.466 108.066 650.364 108.498 650.136 108.891C649.911 109.283 649.569 109.603 649.109 109.851C648.652 110.098 648.088 110.239 647.419 110.272C646.795 110.303 646.249 110.23 645.782 110.051C645.318 109.872 644.947 109.609 644.668 109.262C644.391 108.915 644.224 108.503 644.166 108.028L645.256 107.974C645.301 108.302 645.425 108.569 645.629 108.775C645.835 108.978 646.09 109.124 646.393 109.214C646.699 109.301 647.025 109.336 647.371 109.319C647.774 109.299 648.133 109.215 648.447 109.069C648.761 108.92 649.005 108.722 649.181 108.478C649.356 108.23 649.436 107.947 649.42 107.629C649.406 107.34 649.313 107.108 649.142 106.935C648.971 106.761 648.751 106.625 648.482 106.524C648.212 106.424 647.922 106.339 647.611 106.269L646.524 106.016C645.833 105.854 645.28 105.602 644.864 105.259C644.449 104.915 644.227 104.45 644.197 103.863C644.173 103.375 644.284 102.942 644.529 102.566C644.778 102.187 645.121 101.885 645.559 101.661C646 101.434 646.499 101.307 647.055 101.279C647.617 101.251 648.121 101.327 648.568 101.507C649.015 101.683 649.375 101.938 649.647 102.272C649.923 102.605 650.079 102.991 650.115 103.43L649.093 103.481ZM652.61 101.121L653.818 101.061L656.439 105.009L656.541 105.004L658.755 100.814L659.964 100.754L657.071 106.035L657.25 109.628L656.195 109.68L656.015 106.088L652.61 101.121Z" fill="#101010"/>
<path d="M734.407 96.9753C734.406 96.7631 734.75 96.6611 734.863 96.8406C735.395 97.682 736.29 98.9122 737.262 99.4443C738.233 99.9744 739.754 100.064 740.749 100.057C740.961 100.056 741.061 100.4 740.882 100.513C740.04 101.045 738.812 101.94 738.28 102.912C737.748 103.883 737.66 105.404 737.667 106.399C737.668 106.611 737.322 106.711 737.211 106.531C736.679 105.69 735.784 104.462 734.811 103.93C733.839 103.398 732.319 103.31 731.326 103.317C731.113 103.318 731.011 102.972 731.191 102.861C732.032 102.329 733.263 101.434 733.794 100.46C734.325 99.4888 734.414 97.9682 734.407 96.9753Z" fill="black"/>
<path d="M803.209 102.335L802.774 93.6189L805.719 93.4718C806.403 93.4376 806.968 93.5331 807.414 93.7583C807.864 93.9805 808.204 94.2949 808.434 94.7015C808.665 95.1081 808.793 95.5681 808.819 96.0817C808.845 96.5953 808.763 97.0673 808.574 97.4977C808.388 97.928 808.084 98.2788 807.662 98.5502C807.241 98.8187 806.691 98.9699 806.013 99.0038L803.902 99.1093L803.855 98.1729L805.932 98.0692C806.4 98.0458 806.772 97.9461 807.047 97.7702C807.323 97.5943 807.518 97.3656 807.632 97.084C807.748 96.7994 807.798 96.4826 807.781 96.1336C807.763 95.7846 807.682 95.4757 807.538 95.207C807.397 94.9382 807.179 94.7329 806.884 94.5912C806.59 94.4466 806.206 94.3861 805.732 94.4098L803.876 94.5025L804.265 102.283L803.209 102.335ZM811.783 101.907L810.677 101.962L813.442 93.086L814.531 93.0315L818.167 101.588L817.061 101.643L814.089 94.436L814.021 94.4394L811.783 101.907ZM812.022 98.4817L816.482 98.2589L816.529 99.1952L812.068 99.418L812.022 98.4817ZM821.023 101.445L820.588 92.7289L823.533 92.5818C824.214 92.5478 824.779 92.6362 825.227 92.847C825.676 93.055 826.015 93.3552 826.245 93.7476C826.475 94.1401 826.603 94.593 826.629 95.1066C826.654 95.6202 826.572 96.0808 826.382 96.4885C826.192 96.8963 825.885 97.2245 825.463 97.4731C825.04 97.719 824.491 97.8588 823.815 97.8925L821.432 98.0116L821.384 97.0582L823.734 96.9408C824.199 96.9176 824.57 96.8308 824.847 96.6804C825.127 96.5299 825.324 96.3266 825.439 96.0706C825.557 95.8115 825.608 95.5075 825.59 95.1585C825.573 94.8095 825.492 94.5077 825.349 94.2532C825.205 93.9987 824.986 93.8077 824.693 93.6801C824.399 93.5497 824.017 93.4963 823.546 93.5198L821.69 93.6125L822.079 101.393L821.023 101.445ZM824.93 97.3248L827.271 101.133L826.045 101.194L823.739 97.3843L824.93 97.3248ZM830.187 100.987L829.752 92.2711L830.807 92.2184L831.024 96.5425L831.126 96.5374L834.825 92.0176L836.204 91.9487L832.74 96.0642L836.64 100.665L835.363 100.729L832.13 96.8286L831.102 98.1087L831.243 100.935L830.187 100.987ZM844.993 91.5096L845.428 100.226L844.373 100.279L843.937 91.5624L844.993 91.5096ZM848.177 92.2892L848.131 91.3529L854.668 91.0263L854.715 91.9626L851.974 92.0995L852.363 99.8796L851.307 99.9323L850.918 92.1523L848.177 92.2892ZM863.1 99.3432L862.664 90.6268L867.925 90.364L867.971 91.3003L863.766 91.5104L863.913 94.4556L867.846 94.2591L867.893 95.1954L863.96 95.3919L864.108 98.3541L868.381 98.1406L868.428 99.077L863.1 99.3432ZM872.118 98.8926L871.012 98.9479L873.777 90.0716L874.866 90.0172L878.502 98.5737L877.396 98.6289L874.424 91.4216L874.356 91.425L872.118 98.8926ZM872.357 95.4674L876.817 95.2445L876.864 96.1808L872.403 96.4037L872.357 95.4674ZM885.798 91.6555C885.726 91.2268 885.502 90.9023 885.127 90.6821C884.752 90.462 884.3 90.365 883.772 90.3914C883.386 90.4107 883.052 90.49 882.769 90.6293C882.488 90.7684 882.273 90.9513 882.122 91.1779C881.974 91.4043 881.907 91.6565 881.921 91.9346C881.933 92.1672 881.998 92.3645 882.117 92.5264C882.239 92.6853 882.39 92.8157 882.572 92.9175C882.753 93.0166 882.942 93.0967 883.138 93.158C883.335 93.2165 883.515 93.263 883.679 93.2974L884.576 93.4915C884.806 93.5398 885.062 93.6095 885.346 93.7005C885.632 93.7915 885.907 93.9214 886.172 94.0902C886.439 94.2561 886.663 94.4753 886.844 94.7478C887.026 95.0203 887.127 95.3609 887.147 95.7695C887.171 96.2405 887.069 96.6723 886.841 97.0648C886.616 97.4572 886.273 97.7772 885.813 98.0249C885.357 98.2725 884.793 98.413 884.124 98.4464C883.499 98.4776 882.954 98.4039 882.487 98.2252C882.023 98.0465 881.651 97.7834 881.372 97.4361C881.096 97.0887 880.929 96.6775 880.871 96.2025L881.961 96.1481C882.006 96.4758 882.13 96.7426 882.334 96.9486C882.54 97.1517 882.795 97.2982 883.098 97.3883C883.404 97.4754 883.73 97.5104 884.076 97.4931C884.479 97.4729 884.837 97.3896 885.151 97.2431C885.465 97.0937 885.71 96.8966 885.886 96.6517C886.061 96.404 886.141 96.1213 886.125 95.8035C886.11 95.5141 886.018 95.2826 885.847 95.1091C885.676 94.9356 885.456 94.7987 885.186 94.6984C884.917 94.5981 884.627 94.513 884.316 94.4432L883.228 94.1903C882.538 94.0286 881.984 93.776 881.569 93.4327C881.154 93.0894 880.931 92.624 880.902 92.0367C880.878 91.5487 880.988 91.1165 881.234 90.7401C881.482 90.3607 881.826 90.0591 882.264 89.8353C882.705 89.6085 883.204 89.4812 883.76 89.4534C884.321 89.4253 884.826 89.5011 885.273 89.6807C885.72 89.8575 886.08 90.1126 886.352 90.446C886.628 90.7792 886.783 91.1654 886.82 91.6045L885.798 91.6555ZM889.314 89.2953L890.523 89.2349L893.144 93.1829L893.246 93.1778L895.46 88.9883L896.669 88.9279L893.775 94.2095L893.955 97.8016L892.899 97.8544L892.72 94.2623L889.314 89.2953Z" fill="#101010"/>
<path d="M971.112 85.1494C971.111 84.9373 971.455 84.8352 971.568 85.0147C972.1 85.8561 972.995 87.0864 973.967 87.6184C974.938 88.1485 976.459 88.2384 977.454 88.2311C977.666 88.2302 977.766 88.5743 977.586 88.6874C976.745 89.2194 975.517 90.114 974.985 91.0857C974.453 92.0574 974.365 93.5778 974.372 94.5727C974.373 94.7848 974.027 94.885 973.916 94.7054C973.384 93.864 972.489 92.6357 971.515 92.1038C970.544 91.5718 969.023 91.4838 968.03 91.491C967.818 91.4919 967.716 91.146 967.896 91.0348C968.737 90.5028 969.967 89.6081 970.499 88.6345C971.029 87.6629 971.119 86.1424 971.112 85.1494Z" fill="black"/>
<path d="M1039.91 90.5095L1039.48 81.7931L1042.42 81.6459C1043.11 81.6117 1043.67 81.7072 1044.12 81.9324C1044.57 82.1546 1044.91 82.469 1045.14 82.8756C1045.37 83.2822 1045.5 83.7423 1045.52 84.2558C1045.55 84.7694 1045.47 85.2414 1045.28 85.6718C1045.09 86.1021 1044.79 86.4529 1044.37 86.7243C1043.95 86.9928 1043.4 87.1441 1042.72 87.1779L1040.61 87.2834L1040.56 86.3471L1042.64 86.2433C1043.1 86.2199 1043.48 86.1203 1043.75 85.9444C1044.03 85.7685 1044.22 85.5397 1044.34 85.2581C1044.45 84.9735 1044.5 84.6567 1044.49 84.3077C1044.47 83.9587 1044.39 83.6499 1044.24 83.3812C1044.1 83.1123 1043.88 82.907 1043.59 82.7653C1043.29 82.6207 1042.91 82.5603 1042.44 82.5839L1040.58 82.6767L1040.97 90.4567L1039.91 90.5095ZM1048.49 90.0811L1047.38 90.1364L1050.15 81.2601L1051.24 81.2057L1054.87 89.7622L1053.77 89.8174L1050.79 82.6101L1050.73 82.6135L1048.49 90.0811ZM1048.73 86.6558L1053.19 86.433L1053.23 87.3693L1048.77 87.5922L1048.73 86.6558ZM1057.73 89.6195L1057.29 80.9031L1060.24 80.7559C1060.92 80.7219 1061.48 80.8103 1061.93 81.0211C1062.38 81.2291 1062.72 81.5294 1062.95 81.9218C1063.18 82.3142 1063.31 82.7672 1063.33 83.2807C1063.36 83.7943 1063.28 84.2549 1063.09 84.6627C1062.9 85.0704 1062.59 85.3986 1062.17 85.6473C1061.74 85.8931 1061.2 86.0329 1060.52 86.0666L1058.14 86.1857L1058.09 85.2324L1060.44 85.115C1060.9 85.0917 1061.27 85.0049 1061.55 84.8546C1061.83 84.704 1062.03 84.5008 1062.14 84.2447C1062.26 83.9856 1062.31 83.6816 1062.29 83.3326C1062.28 82.9836 1062.2 82.6819 1062.05 82.4274C1061.91 82.1728 1061.69 81.9818 1061.4 81.8542C1061.1 81.7239 1060.72 81.6704 1060.25 81.694L1058.39 81.7867L1058.78 89.5667L1057.73 89.6195ZM1061.64 85.4989L1063.98 89.3073L1062.75 89.3686L1060.44 85.5585L1061.64 85.4989ZM1066.89 89.1616L1066.46 80.4452L1067.51 80.3925L1067.73 84.7166L1067.83 84.7115L1071.53 80.1918L1072.91 80.1229L1069.45 84.2383L1073.34 88.8393L1072.07 88.9031L1068.83 85.0027L1067.81 86.2829L1067.95 89.1089L1066.89 89.1616ZM1081.7 79.6838L1082.13 88.4002L1081.08 88.4529L1080.64 79.7365L1081.7 79.6838ZM1084.88 80.4633L1084.84 79.527L1091.37 79.2004L1091.42 80.1367L1088.68 80.2737L1089.07 88.0537L1088.01 88.1065L1087.62 80.3264L1084.88 80.4633ZM1099.8 87.5173L1099.37 78.8009L1104.63 78.5381L1104.68 79.4744L1100.47 79.6845L1100.62 82.6297L1104.55 82.4332L1104.6 83.3696L1100.67 83.566L1100.81 86.5283L1105.09 86.3148L1105.13 87.2511L1099.8 87.5173ZM1108.82 87.0667L1107.72 87.122L1110.48 78.2457L1111.57 78.1913L1115.21 86.7478L1114.1 86.8031L1111.13 79.5958L1111.06 79.5992L1108.82 87.0667ZM1109.06 83.6415L1113.52 83.4186L1113.57 84.355L1109.11 84.5778L1109.06 83.6415ZM1122.5 79.8297C1122.43 79.4009 1122.21 79.0765 1121.83 78.8563C1121.46 78.6361 1121 78.5392 1120.48 78.5655C1120.09 78.5848 1119.76 78.6641 1119.47 78.8034C1119.19 78.9426 1118.98 79.1254 1118.83 79.352C1118.68 79.5784 1118.61 79.8306 1118.63 80.1087C1118.64 80.3414 1118.7 80.5386 1118.82 80.7005C1118.94 80.8594 1119.09 80.9898 1119.28 81.0917C1119.46 81.1907 1119.65 81.2709 1119.84 81.3322C1120.04 81.3906 1120.22 81.4371 1120.38 81.4716L1121.28 81.6657C1121.51 81.7139 1121.77 81.7836 1122.05 81.8747C1122.34 81.9656 1122.61 82.0955 1122.88 82.2644C1123.14 82.4302 1123.37 82.6494 1123.55 82.9219C1123.73 83.1945 1123.83 83.535 1123.85 83.9436C1123.88 84.4146 1123.77 84.8464 1123.55 85.2389C1123.32 85.6313 1122.98 85.9514 1122.52 86.1991C1122.06 86.4466 1121.5 86.5871 1120.83 86.6205C1120.2 86.6517 1119.66 86.578 1119.19 86.3994C1118.73 86.2206 1118.36 85.9576 1118.08 85.6103C1117.8 85.2628 1117.63 84.8516 1117.58 84.3766L1118.67 84.3222C1118.71 84.6499 1118.83 84.9168 1119.04 85.1228C1119.24 85.3258 1119.5 85.4724 1119.8 85.5625C1120.11 85.6496 1120.43 85.6845 1120.78 85.6672C1121.18 85.6471 1121.54 85.5637 1121.86 85.4172C1122.17 85.2678 1122.41 85.0707 1122.59 84.8258C1122.77 84.5781 1122.85 84.2954 1122.83 83.9776C1122.82 83.6882 1122.72 83.4567 1122.55 83.2832C1122.38 83.1097 1122.16 82.9728 1121.89 82.8725C1121.62 82.7722 1121.33 82.6871 1121.02 82.6173L1119.93 82.3645C1119.24 82.2027 1118.69 81.9502 1118.27 81.6068C1117.86 81.2635 1117.64 80.7981 1117.61 80.2108C1117.58 79.7228 1117.69 79.2906 1117.94 78.9142C1118.19 78.5349 1118.53 78.2333 1118.97 78.0094C1119.41 77.7826 1119.91 77.6553 1120.46 77.6275C1121.03 77.5994 1121.53 77.6752 1121.98 77.8548C1122.42 78.0316 1122.78 78.2867 1123.06 78.6201C1123.33 78.9534 1123.49 79.3395 1123.52 79.7786L1122.5 79.8297ZM1126.02 77.4695L1127.23 77.4091L1129.85 81.3571L1129.95 81.352L1132.16 77.1624L1133.37 77.102L1130.48 82.3837L1130.66 85.9758L1129.6 86.0285L1129.42 82.4364L1126.02 77.4695Z" fill="#101010"/>
<path d="M1207.82 73.3235C1207.82 73.1114 1208.16 73.0094 1208.27 73.1889C1208.8 74.0303 1209.7 75.2605 1210.67 75.7925C1211.64 76.3226 1213.16 76.4125 1214.16 76.4053C1214.37 76.4043 1214.47 76.7484 1214.29 76.8615C1213.45 77.3935 1212.22 78.2881 1211.69 79.2598C1211.16 80.2315 1211.07 81.7519 1211.08 82.7468C1211.08 82.9589 1210.73 83.0592 1210.62 82.8796C1210.09 82.0382 1209.19 80.8099 1208.22 80.2779C1207.25 79.7459 1205.73 79.6579 1204.74 79.6651C1204.52 79.6661 1204.42 79.3201 1204.6 79.2089C1205.44 78.677 1206.67 77.7823 1207.2 76.8086C1207.73 75.837 1207.82 74.3165 1207.82 73.3235Z" fill="black"/>
<path d="M1276.62 78.6836L1276.18 69.9672L1279.13 69.82C1279.81 69.7859 1280.38 69.8814 1280.82 70.1065C1281.27 70.3287 1281.61 70.6431 1281.84 71.0497C1282.07 71.4563 1282.2 71.9164 1282.23 72.43C1282.25 72.9435 1282.17 73.4155 1281.98 73.846C1281.8 74.2762 1281.49 74.6271 1281.07 74.8984C1280.65 75.167 1280.1 75.3182 1279.42 75.3521L1277.31 75.4575L1277.26 74.5212L1279.34 74.4174C1279.81 74.394 1280.18 74.2944 1280.46 74.1185C1280.73 73.9426 1280.93 73.7138 1281.04 73.4322C1281.16 73.1476 1281.21 72.8309 1281.19 72.4819C1281.17 72.1329 1281.09 71.824 1280.95 71.5553C1280.81 71.2865 1280.59 71.0812 1280.29 70.9394C1280 70.7949 1279.62 70.7344 1279.14 70.7581L1277.29 70.8508L1277.67 78.6309L1276.62 78.6836ZM1285.19 78.2552L1284.09 78.3105L1286.85 69.4342L1287.94 69.3798L1291.58 77.9363L1290.47 77.9916L1287.5 70.7843L1287.43 70.7877L1285.19 78.2552ZM1285.43 74.83L1289.89 74.6071L1289.94 75.5435L1285.48 75.7663L1285.43 74.83ZM1294.43 77.7936L1294 69.0772L1296.94 68.9301C1297.62 68.896 1298.19 68.9844 1298.64 69.1953C1299.09 69.4033 1299.42 69.7035 1299.65 70.0959C1299.88 70.4883 1300.01 70.9413 1300.04 71.4549C1300.06 71.9684 1299.98 72.4291 1299.79 72.8368C1299.6 73.2445 1299.29 73.5727 1298.87 73.8214C1298.45 74.0672 1297.9 74.207 1297.22 74.2408L1294.84 74.3598L1294.79 73.4065L1297.14 73.2891C1297.61 73.2659 1297.98 73.1791 1298.26 73.0287C1298.54 72.8782 1298.73 72.6749 1298.85 72.4188C1298.97 72.1598 1299.02 71.8558 1299 71.5068C1298.98 71.1578 1298.9 70.856 1298.76 70.6015C1298.61 70.347 1298.4 70.1559 1298.1 70.0284C1297.81 69.898 1297.43 69.8446 1296.96 69.8681L1295.1 69.9608L1295.49 77.7409L1294.43 77.7936ZM1298.34 73.6731L1300.68 77.4815L1299.45 77.5427L1297.15 73.7326L1298.34 73.6731ZM1303.6 77.3358L1303.16 68.6194L1304.22 68.5666L1304.43 72.8908L1304.54 72.8857L1308.23 68.3659L1309.61 68.297L1306.15 72.4125L1310.05 77.0134L1308.77 77.0772L1305.54 73.1768L1304.51 74.457L1304.65 77.283L1303.6 77.3358ZM1318.4 67.8579L1318.84 76.5743L1317.78 76.627L1317.35 67.9106L1318.4 67.8579ZM1321.59 68.6375L1321.54 67.7011L1328.08 67.3745L1328.12 68.3109L1325.38 68.4478L1325.77 76.2279L1324.72 76.2806L1324.33 68.5005L1321.59 68.6375ZM1336.51 75.6915L1336.07 66.9751L1341.33 66.7122L1341.38 67.6486L1337.18 67.8586L1337.32 70.8038L1341.26 70.6074L1341.3 71.5437L1337.37 71.7402L1337.52 74.7024L1341.79 74.4889L1341.84 75.4252L1336.51 75.6915ZM1345.53 75.2409L1344.42 75.2962L1347.19 66.4199L1348.28 66.3654L1351.91 74.9219L1350.81 74.9772L1347.83 67.7699L1347.77 67.7733L1345.53 75.2409ZM1345.77 71.8156L1350.23 71.5928L1350.27 72.5291L1345.81 72.752L1345.77 71.8156ZM1359.21 68.0038C1359.14 67.5751 1358.91 67.2506 1358.54 67.0304C1358.16 66.8102 1357.71 66.7133 1357.18 66.7397C1356.8 66.759 1356.46 66.8382 1356.18 66.9775C1355.9 67.1167 1355.68 67.2996 1355.53 67.5261C1355.38 67.7525 1355.32 68.0048 1355.33 68.2828C1355.34 68.5155 1355.41 68.7128 1355.53 68.8747C1355.65 69.0336 1355.8 69.1639 1355.98 69.2658C1356.16 69.3648 1356.35 69.445 1356.55 69.5063C1356.74 69.5647 1356.92 69.6112 1357.09 69.6457L1357.99 69.8398C1358.22 69.8881 1358.47 69.9577 1358.76 70.0488C1359.04 70.1398 1359.32 70.2697 1359.58 70.4385C1359.85 70.6043 1360.07 70.8235 1360.25 71.0961C1360.44 71.3686 1360.54 71.7092 1360.56 72.1177C1360.58 72.5888 1360.48 73.0205 1360.25 73.4131C1360.03 73.8055 1359.68 74.1255 1359.22 74.3732C1358.77 74.6207 1358.2 74.7612 1357.53 74.7947C1356.91 74.8259 1356.36 74.7521 1355.9 74.5735C1355.43 74.3947 1355.06 74.1317 1354.78 73.7844C1354.51 73.437 1354.34 73.0257 1354.28 72.5508L1355.37 72.4963C1355.42 72.824 1355.54 73.0909 1355.74 73.2969C1355.95 73.4999 1356.2 73.6465 1356.51 73.7366C1356.81 73.8237 1357.14 73.8586 1357.49 73.8413C1357.89 73.8212 1358.25 73.7379 1358.56 73.5913C1358.87 73.4419 1359.12 73.2448 1359.3 73C1359.47 72.7523 1359.55 72.4695 1359.53 72.1518C1359.52 71.8623 1359.43 71.6309 1359.26 71.4574C1359.09 71.2839 1358.87 71.1469 1358.6 71.0466C1358.33 70.9463 1358.04 70.8613 1357.73 70.7915L1356.64 70.5386C1355.95 70.3768 1355.39 70.1243 1354.98 69.781C1354.56 69.4376 1354.34 68.9723 1354.31 68.3849C1354.29 67.8969 1354.4 67.4647 1354.64 67.0884C1354.89 66.709 1355.24 66.4074 1355.67 66.1836C1356.11 65.9567 1356.61 65.8294 1357.17 65.8016C1357.73 65.7736 1358.24 65.8493 1358.68 66.029C1359.13 66.2058 1359.49 66.4609 1359.76 66.7943C1360.04 67.1275 1360.19 67.5137 1360.23 67.9528L1359.21 68.0038ZM1362.72 65.6436L1363.93 65.5832L1366.55 69.5312L1366.66 69.5261L1368.87 65.3365L1370.08 65.2762L1367.18 70.5578L1367.36 74.1499L1366.31 74.2026L1366.13 70.6105L1362.72 65.6436Z" fill="#101010"/>
</g>
<g clip-path="url(#clip1_42_816)" filter="url(#filter1_d_42_816)">
<rect width="1726.14" height="46" transform="translate(-151.316 12) rotate(3.98415)" fill="#D8F812"/>
<path d="M26.5921 42.6488C26.6165 42.438 26.9702 42.3777 27.0611 42.5694C27.489 43.4682 28.2307 44.7963 29.1321 45.4403C30.0336 46.0824 31.5326 46.3529 32.5213 46.4643C32.732 46.4886 32.7904 46.8422 32.5987 46.9331C31.6999 47.361 30.3737 48.1029 29.7297 49.0042C29.0857 49.9056 28.8171 51.4047 28.7058 52.3934C28.6814 52.6041 28.3259 52.6624 28.2369 52.4708C27.809 51.572 27.0672 50.2458 26.1639 49.6017C25.2625 48.9576 23.7634 48.6891 22.7767 48.5779C22.5659 48.5535 22.5057 48.1979 22.6973 48.1089C23.5961 47.681 24.9242 46.9393 25.5684 46.036C26.2105 45.1345 26.4809 43.6355 26.5921 42.6488Z" fill="black"/>
<path d="M94.2652 56.1699L94.8716 47.4637L97.8133 47.6686C98.4963 47.7162 99.046 47.8784 99.4625 48.1551C99.8819 48.4293 100.182 48.7819 100.363 49.2131C100.543 49.6443 100.616 50.1164 100.58 50.6294C100.544 51.1424 100.407 51.6013 100.168 52.0061C99.9321 52.4111 99.5886 52.7232 99.1376 52.9424C98.6868 53.1588 98.1227 53.2434 97.4454 53.1962L95.3369 53.0493L95.402 52.1141L97.4765 52.2586C97.9441 52.2912 98.3253 52.2366 98.6199 52.0948C98.9146 51.953 99.1353 51.749 99.2819 51.483C99.4317 51.2144 99.5186 50.9057 99.5429 50.5572C99.5672 50.2086 99.5237 49.8923 99.4125 49.6083C99.3041 49.3245 99.1122 49.0947 98.8369 48.9189C98.5617 48.7403 98.1874 48.6345 97.7142 48.6015L95.8607 48.4724L95.3195 56.2434L94.2652 56.1699ZM102.829 56.7664L101.724 56.6894L105.527 48.2059L106.615 48.2817L109.206 57.2105L108.1 57.1335L106.009 49.6235L105.941 49.6188L102.829 56.7664ZM103.474 53.394L107.929 53.7043L107.864 54.6395L103.409 54.3292L103.474 53.394ZM112.058 57.4092L112.664 48.703L115.606 48.9079C116.286 48.9553 116.837 49.1103 117.257 49.3731C117.677 49.6331 117.978 49.9716 118.16 50.3886C118.342 50.8057 118.415 51.2707 118.379 51.7836C118.343 52.2966 118.207 52.7442 117.969 53.1263C117.732 53.5085 117.389 53.7978 116.939 53.9943C116.49 54.188 115.928 54.2614 115.254 54.2144L112.873 54.0486L112.939 53.0964L115.286 53.2598C115.751 53.2922 116.13 53.2502 116.422 53.1339C116.718 53.0178 116.938 52.8395 117.083 52.599C117.231 52.3558 117.317 52.06 117.342 51.7114C117.366 51.3628 117.322 51.0536 117.21 50.7838C117.098 50.514 116.903 50.2982 116.627 50.1366C116.351 49.9721 115.977 49.8735 115.507 49.8408L113.654 49.7117L113.112 57.4826L112.058 57.4092ZM116.428 53.7836L118.299 57.8438L117.074 57.7586L115.238 53.7007L116.428 53.7836ZM121.212 58.0467L121.818 49.3405L122.872 49.414L122.571 53.733L122.673 53.7402L126.885 49.6935L128.263 49.7894L124.333 53.4627L127.656 58.4956L126.381 58.4068L123.636 54.1489L122.462 55.2974L122.266 58.1201L121.212 58.0467ZM137.041 50.4008L136.435 59.107L135.38 59.0336L135.987 50.3274L137.041 50.4008ZM140.11 51.5543L140.175 50.6191L146.705 51.0739L146.64 52.0091L143.902 51.8184L143.361 59.5894L142.306 59.516L142.848 51.745L140.11 51.5543ZM154.085 60.3363L154.691 51.6301L159.946 51.9961L159.881 52.9313L155.681 52.6388L155.476 55.5805L159.404 55.8541L159.339 56.7894L155.411 56.5158L155.205 59.4745L159.473 59.7718L159.407 60.707L154.085 60.3363ZM163.093 60.9637L161.988 60.8867L165.791 52.4032L166.879 52.479L169.47 61.4078L168.364 61.3309L166.273 53.8208L166.205 53.8161L163.093 60.9637ZM163.738 57.5913L168.193 57.9016L168.128 58.8368L163.673 58.5265L163.738 57.5913ZM177.538 55.4085C177.517 54.9742 177.334 54.6253 176.987 54.362C176.641 54.0987 176.205 53.9487 175.677 53.9119C175.292 53.8851 174.95 53.924 174.653 54.0285C174.358 54.1333 174.122 54.2892 173.945 54.4961C173.771 54.7033 173.675 54.9457 173.655 55.2235C173.639 55.4559 173.68 55.6595 173.779 55.8344C173.881 56.0067 174.016 56.1542 174.184 56.277C174.352 56.3969 174.53 56.499 174.718 56.5833C174.906 56.6647 175.079 56.7323 175.238 56.7861L176.106 57.0857C176.328 57.161 176.575 57.2608 176.845 57.385C177.118 57.5094 177.376 57.6712 177.619 57.8703C177.864 58.0668 178.061 58.3112 178.208 58.6034C178.356 58.8956 178.416 59.2458 178.387 59.6539C178.355 60.1243 178.202 60.5409 177.929 60.9034C177.658 61.2662 177.28 61.5432 176.794 61.7343C176.311 61.9256 175.735 61.998 175.066 61.9514C174.443 61.908 173.91 61.7698 173.468 61.5368C173.028 61.304 172.691 60.9985 172.455 60.6205C172.222 60.2426 172.105 59.8144 172.104 59.3359L173.193 59.4117C173.198 59.7424 173.29 60.0222 173.467 60.251C173.648 60.4772 173.884 60.653 174.174 60.7786C174.467 60.9016 174.787 60.9751 175.133 60.9992C175.535 61.0272 175.901 60.9872 176.23 60.8791C176.56 60.7682 176.826 60.6017 177.03 60.3795C177.233 60.1545 177.346 59.8832 177.368 59.5658C177.388 59.2767 177.324 59.0359 177.175 58.8433C177.026 58.6506 176.824 58.4885 176.568 58.3567C176.313 58.225 176.035 58.106 175.734 57.9997L174.685 57.619C174.018 57.376 173.499 57.0594 173.127 56.669C172.756 56.2786 172.591 55.7901 172.631 55.2034C172.665 54.716 172.827 54.3 173.116 53.9556C173.407 53.6086 173.784 53.3501 174.246 53.18C174.711 53.0074 175.221 52.9404 175.777 52.9791C176.338 53.0182 176.829 53.1535 177.252 53.3851C177.675 53.6139 178.001 53.9101 178.232 54.2736C178.466 54.6373 178.575 55.0393 178.558 55.4795L177.538 55.4085ZM181.311 53.4841L182.518 53.5682L184.649 57.8004L184.751 57.8075L187.449 53.9117L188.656 53.9958L185.154 58.8949L184.904 62.4828L183.85 62.4094L184.1 58.8215L181.311 53.4841Z" fill="#101010"/>
<path d="M263.019 59.1157C263.044 58.905 263.397 58.8446 263.488 59.0363C263.916 59.9351 264.658 61.2632 265.559 61.9073C266.461 62.5494 267.96 62.8198 268.948 62.9312C269.159 62.9555 269.218 63.3091 269.026 63.4C268.127 63.8279 266.801 64.5698 266.157 65.4711C265.513 66.3725 265.244 67.8716 265.133 68.8603C265.109 69.071 264.753 69.1293 264.664 68.9377C264.236 68.0389 263.494 66.7128 262.591 66.0686C261.69 65.4246 260.191 65.156 259.204 65.0448C258.993 65.0205 258.933 64.6648 259.125 64.5758C260.023 64.1479 261.351 63.4062 261.996 62.5029C262.638 61.6014 262.908 60.1024 263.019 59.1157Z" fill="black"/>
<path d="M330.692 72.6368L331.299 63.9306L334.241 64.1355C334.924 64.1831 335.473 64.3452 335.89 64.622C336.309 64.8961 336.609 65.2488 336.79 65.68C336.971 66.1112 337.043 66.5833 337.007 67.0963C336.972 67.6092 336.834 68.0681 336.595 68.4729C336.359 68.878 336.016 69.1901 335.565 69.4093C335.114 69.6256 334.55 69.7102 333.873 69.6631L331.764 69.5162L331.829 68.581L333.904 68.7255C334.371 68.758 334.753 68.7034 335.047 68.5616C335.342 68.4198 335.563 68.2159 335.709 67.9499C335.859 67.6812 335.946 67.3726 335.97 67.024C335.994 66.6754 335.951 66.3591 335.84 66.0752C335.731 65.7914 335.539 65.5616 335.264 65.3858C334.989 65.2071 334.615 65.1013 334.141 65.0684L332.288 64.9393L331.747 72.7102L330.692 72.6368ZM339.256 73.2332L338.151 73.1563L341.954 64.6727L343.042 64.7485L345.633 73.6774L344.528 73.6004L342.436 66.0903L342.368 66.0856L339.256 73.2332ZM339.901 69.8608L344.356 70.1711L344.291 71.1063L339.836 70.796L339.901 69.8608ZM348.485 73.876L349.092 65.1699L352.033 65.3747C352.714 65.4221 353.264 65.5772 353.684 65.84C354.104 66.0999 354.406 66.4384 354.587 66.8555C354.769 67.2725 354.842 67.7375 354.806 68.2505C354.77 68.7634 354.634 69.211 354.397 69.5932C354.159 69.9753 353.816 70.2647 353.366 70.4612C352.917 70.6549 352.355 70.7282 351.681 70.6813L349.3 70.5155L349.367 69.5632L351.713 69.7267C352.178 69.759 352.557 69.7171 352.85 69.6008C353.145 69.4847 353.366 69.3064 353.511 69.0658C353.659 68.8227 353.745 68.5268 353.769 68.1782C353.793 67.8297 353.749 67.5205 353.637 67.2506C353.525 66.9808 353.331 66.7651 353.054 66.6035C352.778 66.439 352.405 66.3404 351.934 66.3076L350.081 66.1785L349.54 73.9495L348.485 73.876ZM352.856 70.2505L354.726 74.3107L353.502 74.2254L351.665 70.1676L352.856 70.2505ZM357.639 74.5136L358.245 65.8074L359.3 65.8808L358.999 70.1999L359.101 70.207L363.313 66.1603L364.69 66.2563L360.76 69.9296L364.083 74.9624L362.808 74.8736L360.063 70.6158L358.89 71.7643L358.693 74.587L357.639 74.5136ZM373.468 66.8677L372.862 75.5738L371.808 75.5004L372.414 66.7942L373.468 66.8677ZM376.537 68.0212L376.602 67.0859L383.132 67.5407L383.067 68.476L380.329 68.2853L379.788 76.0562L378.734 75.9828L379.275 68.2119L376.537 68.0212ZM390.512 76.8032L391.119 68.097L396.373 68.463L396.308 69.3982L392.108 69.1057L391.903 72.0474L395.831 72.321L395.766 73.2562L391.838 72.9826L391.632 75.9414L395.9 76.2386L395.835 77.1739L390.512 76.8032ZM399.52 77.4306L398.415 77.3536L402.218 68.8701L403.307 68.9459L405.897 77.8747L404.792 77.7977L402.7 70.2877L402.632 70.2829L399.52 77.4306ZM400.165 74.0581L404.62 74.3684L404.555 75.3037L400.1 74.9934L400.165 74.0581ZM413.965 71.8753C413.944 71.441 413.761 71.0922 413.415 70.8289C413.068 70.5655 412.632 70.4155 412.105 70.3788C411.719 70.352 411.378 70.3908 411.08 70.4954C410.785 70.6001 410.549 70.756 410.372 70.963C410.198 71.1701 410.102 71.4126 410.083 71.6903C410.066 71.9227 410.108 72.1264 410.207 72.3013C410.308 72.4736 410.443 72.6211 410.611 72.7438C410.78 72.8638 410.958 72.9659 411.145 73.0501C411.333 73.1316 411.507 73.1992 411.665 73.2529L412.533 73.5526C412.755 73.6279 413.002 73.7277 413.272 73.8519C413.546 73.9763 413.804 74.138 414.046 74.3372C414.291 74.5337 414.488 74.778 414.636 75.0703C414.783 75.3625 414.843 75.7126 414.815 76.1207C414.782 76.5912 414.629 77.0077 414.356 77.3703C414.086 77.7331 413.708 78.01 413.222 78.2012C412.738 78.3925 412.162 78.4649 411.493 78.4183C410.87 78.3748 410.337 78.2366 409.895 78.0036C409.455 77.7708 409.118 77.4654 408.882 77.0873C408.649 76.7094 408.533 76.2812 408.532 75.8028L409.62 75.8785C409.625 76.2093 409.717 76.489 409.895 76.7178C410.075 76.944 410.311 77.1199 410.601 77.2455C410.895 77.3684 411.214 77.4419 411.56 77.466C411.962 77.4941 412.328 77.454 412.657 77.346C412.987 77.2351 413.253 77.0685 413.457 76.8463C413.66 76.6213 413.773 76.3501 413.795 76.0327C413.816 75.7436 413.751 75.5028 413.602 75.3101C413.453 75.1175 413.251 74.9553 412.995 74.8236C412.74 74.6919 412.462 74.5728 412.162 74.4665L411.112 74.0858C410.445 73.8429 409.926 73.5262 409.555 73.1358C409.183 72.7455 409.018 72.2569 409.059 71.6703C409.093 71.1828 409.254 70.7669 409.543 70.4225C409.835 70.0755 410.212 69.8169 410.673 69.6469C411.138 69.4742 411.648 69.4073 412.204 69.4459C412.765 69.485 413.257 69.6204 413.679 69.852C414.102 70.0808 414.429 70.3769 414.66 70.7404C414.893 71.1041 415.002 71.5061 414.986 71.9464L413.965 71.8753ZM417.738 69.951L418.945 70.0351L421.077 74.2673L421.179 74.2744L423.876 70.3785L425.084 70.4626L421.581 75.3618L421.332 78.9497L420.277 78.8763L420.527 75.2884L417.738 69.951Z" fill="#101010"/>
<path d="M499.447 75.5825C499.471 75.3718 499.825 75.3115 499.916 75.5032C500.344 76.402 501.085 77.7301 501.987 78.3741C502.888 79.0162 504.387 79.2867 505.376 79.398C505.586 79.4224 505.645 79.776 505.453 79.8669C504.554 80.2948 503.228 81.0366 502.584 81.938C501.94 82.8394 501.672 84.3385 501.56 85.3272C501.536 85.5379 501.18 85.5961 501.091 85.4046C500.664 84.5058 499.922 83.1796 499.018 82.5354C498.117 81.8914 496.618 81.6229 495.631 81.5117C495.42 81.4873 495.36 81.1317 495.552 81.0427C496.451 80.6148 497.779 79.8731 498.423 78.9698C499.065 78.0683 499.335 76.5693 499.447 75.5825Z" fill="black"/>
<path d="M567.12 89.1037L567.726 80.3975L570.668 80.6024C571.351 80.65 571.901 80.8121 572.317 81.0889C572.736 81.363 573.037 81.7157 573.217 82.1469C573.398 82.5781 573.47 83.0502 573.435 83.5632C573.399 84.0761 573.262 84.535 573.023 84.9399C572.787 85.3449 572.443 85.657 571.992 85.8762C571.541 86.0926 570.977 86.1772 570.3 86.13L568.191 85.9831L568.257 85.0479L570.331 85.1924C570.799 85.2249 571.18 85.1703 571.474 85.0285C571.769 84.8867 571.99 84.6828 572.136 84.4168C572.286 84.1481 572.373 83.8395 572.397 83.4909C572.422 83.1423 572.378 82.8261 572.267 82.5421C572.159 82.2583 571.967 82.0285 571.691 81.8527C571.416 81.674 571.042 81.5682 570.569 81.5353L568.715 81.4062L568.174 89.1771L567.12 89.1037ZM575.683 89.7002L574.578 89.6232L578.381 81.1397L579.47 81.2154L582.06 90.1443L580.955 90.0673L578.864 82.5573L578.796 82.5525L575.683 89.7002ZM576.328 86.3277L580.784 86.638L580.718 87.5733L576.263 87.263L576.328 86.3277ZM584.913 90.343L585.519 81.6368L588.461 81.8417C589.141 81.889 589.691 82.0441 590.111 82.3069C590.532 82.5669 590.833 82.9054 591.014 83.3224C591.196 83.7394 591.269 84.2044 591.233 84.7174C591.198 85.2304 591.061 85.6779 590.824 86.0601C590.586 86.4422 590.243 86.7316 589.794 86.9281C589.344 87.1218 588.783 87.1952 588.108 87.1482L585.728 86.9824L585.794 86.0301L588.14 86.1936C588.605 86.2259 588.984 86.184 589.277 86.0677C589.573 85.9516 589.793 85.7733 589.938 85.5328C590.086 85.2896 590.172 84.9937 590.196 84.6452C590.22 84.2966 590.176 83.9874 590.064 83.7176C589.952 83.4478 589.758 83.232 589.481 83.0704C589.205 82.9059 588.832 82.8073 588.361 82.7745L586.508 82.6454L585.967 90.4164L584.913 90.343ZM589.283 86.7174L591.153 90.7776L589.929 90.6923L588.093 86.6345L589.283 86.7174ZM594.066 90.9805L594.672 82.2743L595.727 82.3477L595.426 86.6668L595.528 86.6739L599.74 82.6272L601.117 82.7232L597.188 86.3965L600.511 91.4294L599.235 91.3405L596.491 87.0827L595.317 88.2312L595.12 91.0539L594.066 90.9805ZM609.896 83.3346L609.289 92.0408L608.235 91.9673L608.841 83.2612L609.896 83.3346ZM612.965 84.4881L613.03 83.5529L619.559 84.0076L619.494 84.9429L616.756 84.7522L616.215 92.5232L615.161 92.4497L615.702 84.6788L612.965 84.4881ZM626.94 93.2701L627.546 84.5639L632.8 84.9299L632.735 85.8651L628.535 85.5726L628.33 88.5143L632.258 88.7879L632.193 89.7231L628.265 89.4495L628.059 92.4083L632.327 92.7056L632.262 93.6408L626.94 93.2701ZM635.948 93.8975L634.842 93.8205L638.646 85.337L639.734 85.4128L642.324 94.3416L641.219 94.2646L639.128 86.7546L639.06 86.7499L635.948 93.8975ZM636.593 90.5251L641.048 90.8354L640.983 91.7706L636.527 91.4603L636.593 90.5251ZM650.393 88.3423C650.372 87.9079 650.188 87.5591 649.842 87.2958C649.496 87.0325 649.059 86.8824 648.532 86.8457C648.146 86.8189 647.805 86.8577 647.507 86.9623C647.212 87.0671 646.976 87.2229 646.8 87.4299C646.626 87.6371 646.529 87.8795 646.51 88.1573C646.494 88.3896 646.535 88.5933 646.634 88.7682C646.736 88.9405 646.871 89.088 647.039 89.2108C647.207 89.3307 647.385 89.4328 647.573 89.5171C647.761 89.5985 647.934 89.6661 648.093 89.7199L648.96 90.0195C649.183 90.0948 649.429 90.1946 649.7 90.3188C649.973 90.4432 650.231 90.605 650.473 90.8041C650.719 91.0006 650.915 91.245 651.063 91.5372C651.211 91.8294 651.27 92.1796 651.242 92.5877C651.209 93.0581 651.056 93.4746 650.783 93.8372C650.513 94.2 650.135 94.477 649.649 94.6681C649.166 94.8594 648.59 94.9318 647.921 94.8852C647.297 94.8418 646.764 94.7036 646.322 94.4706C645.883 94.2378 645.545 93.9323 645.309 93.5542C645.077 93.1763 644.96 92.7482 644.959 92.2697L646.047 92.3455C646.053 92.6762 646.144 92.956 646.322 93.1848C646.503 93.4109 646.738 93.5868 647.028 93.7124C647.322 93.8354 647.641 93.9089 647.987 93.9329C648.389 93.961 648.755 93.921 649.085 93.8129C649.414 93.702 649.681 93.5355 649.884 93.3133C650.088 93.0882 650.201 92.817 650.223 92.4996C650.243 92.2105 650.178 91.9697 650.03 91.777C649.881 91.5844 649.678 91.4222 649.423 91.2905C649.167 91.1588 648.889 91.0398 648.589 90.9334L647.539 90.5527C646.872 90.3098 646.353 89.9932 645.982 89.6028C645.61 89.2124 645.445 88.7239 645.486 88.1372C645.52 87.6498 645.681 87.2338 645.97 86.8894C646.262 86.5424 646.639 86.2839 647.101 86.1138C647.565 85.9412 648.076 85.8742 648.631 85.9129C649.192 85.9519 649.684 86.0873 650.106 86.3189C650.529 86.5477 650.856 86.8438 651.087 87.2074C651.321 87.5711 651.429 87.9731 651.413 88.4133L650.393 88.3423ZM654.165 86.4179L655.372 86.502L657.504 90.7342L657.606 90.7413L660.304 86.8454L661.511 86.9295L658.009 91.8287L657.759 95.4166L656.705 95.3432L656.954 91.7553L654.165 86.4179Z" fill="#101010"/>
<path d="M735.874 92.0495C735.898 91.8387 736.252 91.7784 736.343 91.9701C736.771 92.8689 737.512 94.197 738.414 94.841C739.315 95.4831 740.814 95.7536 741.803 95.865C742.014 95.8893 742.072 96.2429 741.88 96.3338C740.982 96.7617 739.655 97.5035 739.011 98.4049C738.367 99.3063 738.099 100.805 737.988 101.794C737.963 102.005 737.608 102.063 737.519 101.871C737.091 100.973 736.349 99.6465 735.446 99.0024C734.544 98.3583 733.045 98.0898 732.058 97.9786C731.848 97.9542 731.787 97.5986 731.979 97.5096C732.878 97.0817 734.206 96.34 734.85 95.4367C735.492 94.5352 735.763 93.0362 735.874 92.0495Z" fill="black"/>
<path d="M803.547 105.571L804.153 96.8644L807.095 97.0693C807.778 97.1168 808.328 97.279 808.744 97.5558C809.164 97.8299 809.464 98.1826 809.644 98.6138C809.825 99.045 809.898 99.5171 809.862 100.03C809.826 100.543 809.689 101.002 809.45 101.407C809.214 101.812 808.87 102.124 808.419 102.343C807.969 102.559 807.404 102.644 806.727 102.597L804.619 102.45L804.684 101.515L806.758 101.659C807.226 101.692 807.607 101.637 807.902 101.495C808.196 101.354 808.417 101.15 808.564 100.884C808.713 100.615 808.8 100.306 808.825 99.9578C808.849 99.6092 808.805 99.2929 808.694 99.0089C808.586 98.7252 808.394 98.4954 808.119 98.3195C807.843 98.1409 807.469 98.0351 806.996 98.0021L805.142 97.873L804.601 105.644L803.547 105.571ZM812.111 106.167L811.005 106.09L814.809 97.6065L815.897 97.6823L818.487 106.611L817.382 106.534L815.291 99.0241L815.223 99.0194L812.111 106.167ZM812.756 102.795L817.211 103.105L817.146 104.04L812.691 103.73L812.756 102.795ZM821.34 106.81L821.946 98.1036L824.888 98.3085C825.568 98.3559 826.118 98.511 826.539 98.7738C826.959 99.0337 827.26 99.3722 827.442 99.7893C827.623 100.206 827.696 100.671 827.661 101.184C827.625 101.697 827.488 102.145 827.251 102.527C827.014 102.909 826.67 103.198 826.221 103.395C825.772 103.589 825.21 103.662 824.535 103.615L822.155 103.449L822.221 102.497L824.568 102.66C825.032 102.693 825.411 102.651 825.704 102.535C826 102.418 826.22 102.24 826.365 102C826.513 101.756 826.599 101.461 826.623 101.112C826.648 100.763 826.604 100.454 826.492 100.184C826.379 99.9146 826.185 99.6989 825.909 99.5372C825.632 99.3728 825.259 99.2742 824.789 99.2414L822.935 99.1123L822.394 106.883L821.34 106.81ZM825.71 103.184L827.58 107.244L826.356 107.159L824.52 103.101L825.71 103.184ZM830.493 107.447L831.1 98.7412L832.154 98.8146L831.853 103.134L831.955 103.141L836.167 99.0941L837.544 99.19L833.615 102.863L836.938 107.896L835.663 107.807L832.918 103.55L831.744 104.698L831.548 107.521L830.493 107.447ZM846.323 99.8014L845.716 108.508L844.662 108.434L845.269 99.728L846.323 99.8014ZM849.392 100.955L849.457 100.02L855.987 100.475L855.921 101.41L853.184 101.219L852.642 108.99L851.588 108.917L852.129 101.146L849.392 100.955ZM863.367 109.737L863.973 101.031L869.228 101.397L869.162 102.332L864.962 102.039L864.757 104.981L868.685 105.255L868.62 106.19L864.692 105.916L864.486 108.875L868.754 109.172L868.689 110.108L863.367 109.737ZM872.375 110.364L871.27 110.287L875.073 101.804L876.161 101.88L878.751 110.808L877.646 110.731L875.555 103.221L875.487 103.217L872.375 110.364ZM873.02 106.992L877.475 107.302L877.41 108.237L872.955 107.927L873.02 106.992ZM886.82 104.809C886.799 104.375 886.615 104.026 886.269 103.763C885.923 103.499 885.486 103.349 884.959 103.313C884.574 103.286 884.232 103.325 883.934 103.429C883.639 103.534 883.404 103.69 883.227 103.897C883.053 104.104 882.956 104.346 882.937 104.624C882.921 104.857 882.962 105.06 883.061 105.235C883.163 105.407 883.298 105.555 883.466 105.678C883.634 105.798 883.812 105.9 884 105.984C884.188 106.065 884.361 106.133 884.52 106.187L885.387 106.486C885.61 106.562 885.856 106.661 886.127 106.786C886.4 106.91 886.658 107.072 886.9 107.271C887.146 107.467 887.342 107.712 887.49 108.004C887.638 108.296 887.697 108.646 887.669 109.055C887.636 109.525 887.483 109.941 887.21 110.304C886.94 110.667 886.562 110.944 886.076 111.135C885.593 111.326 885.017 111.399 884.348 111.352C883.724 111.309 883.192 111.17 882.749 110.937C882.31 110.705 881.972 110.399 881.737 110.021C881.504 109.643 881.387 109.215 881.386 108.737L882.474 108.812C882.48 109.143 882.571 109.423 882.749 109.652C882.93 109.878 883.165 110.054 883.456 110.179C883.749 110.302 884.069 110.376 884.414 110.4C884.817 110.428 885.183 110.388 885.512 110.28C885.841 110.169 886.108 110.002 886.311 109.78C886.515 109.555 886.628 109.284 886.65 108.966C886.67 108.677 886.606 108.437 886.457 108.244C886.308 108.051 886.106 107.889 885.85 107.757C885.594 107.626 885.316 107.507 885.016 107.4L883.966 107.02C883.3 106.777 882.781 106.46 882.409 106.07C882.038 105.679 881.872 105.191 881.913 104.604C881.947 104.117 882.109 103.701 882.397 103.356C882.689 103.009 883.066 102.751 883.528 102.581C883.993 102.408 884.503 102.341 885.058 102.38C885.619 102.419 886.111 102.554 886.534 102.786C886.956 103.015 887.283 103.311 887.514 103.674C887.748 104.038 887.857 104.44 887.84 104.88L886.82 104.809ZM890.592 102.885L891.8 102.969L893.931 107.201L894.033 107.208L896.731 103.312L897.938 103.396L894.436 108.296L894.186 111.883L893.132 111.81L893.382 108.222L890.592 102.885Z" fill="#101010"/>
<path d="M972.301 108.516C972.325 108.306 972.679 108.245 972.77 108.437C973.198 109.336 973.94 110.664 974.841 111.308C975.743 111.95 977.242 112.22 978.23 112.332C978.441 112.356 978.499 112.71 978.308 112.801C977.409 113.229 976.083 113.97 975.439 114.872C974.795 115.773 974.526 117.272 974.415 118.261C974.39 118.472 974.035 118.53 973.946 118.338C973.518 117.44 972.776 116.113 971.873 115.469C970.971 114.825 969.472 114.557 968.486 114.445C968.275 114.421 968.215 114.065 968.406 113.976C969.305 113.549 970.633 112.807 971.277 111.904C971.919 111.002 972.19 109.503 972.301 108.516Z" fill="black"/>
<path d="M1039.97 122.037L1040.58 113.331L1043.52 113.536C1044.21 113.584 1044.75 113.746 1045.17 114.023C1045.59 114.297 1045.89 114.649 1046.07 115.081C1046.25 115.512 1046.32 115.984 1046.29 116.497C1046.25 117.01 1046.12 117.469 1045.88 117.874C1045.64 118.279 1045.3 118.591 1044.85 118.81C1044.4 119.026 1043.83 119.111 1043.15 119.064L1041.05 118.917L1041.11 117.982L1043.19 118.126C1043.65 118.159 1044.03 118.104 1044.33 117.962C1044.62 117.821 1044.84 117.617 1044.99 117.351C1045.14 117.082 1045.23 116.773 1045.25 116.425C1045.28 116.076 1045.23 115.76 1045.12 115.476C1045.01 115.192 1044.82 114.962 1044.55 114.786C1044.27 114.608 1043.9 114.502 1043.42 114.469L1041.57 114.34L1041.03 122.111L1039.97 122.037ZM1048.54 122.634L1047.43 122.557L1051.24 114.073L1052.32 114.149L1054.91 123.078L1053.81 123.001L1051.72 115.491L1051.65 115.486L1048.54 122.634ZM1049.18 119.262L1053.64 119.572L1053.57 120.507L1049.12 120.197L1049.18 119.262ZM1057.77 123.277L1058.37 114.571L1061.32 114.775C1062 114.823 1062.55 114.978 1062.97 115.241C1063.39 115.501 1063.69 115.839 1063.87 116.256C1064.05 116.673 1064.12 117.138 1064.09 117.651C1064.05 118.164 1063.92 118.612 1063.68 118.994C1063.44 119.376 1063.1 119.665 1062.65 119.862C1062.2 120.056 1061.64 120.129 1060.96 120.082L1058.58 119.916L1058.65 118.964L1060.99 119.127C1061.46 119.16 1061.84 119.118 1062.13 119.001C1062.43 118.885 1062.65 118.707 1062.79 118.467C1062.94 118.223 1063.03 117.928 1063.05 117.579C1063.07 117.23 1063.03 116.921 1062.92 116.651C1062.81 116.382 1062.61 116.166 1062.34 116.004C1062.06 115.84 1061.69 115.741 1061.22 115.708L1059.36 115.579L1058.82 123.35L1057.77 123.277ZM1062.14 119.651L1064.01 123.711L1062.78 123.626L1060.95 119.568L1062.14 119.651ZM1066.92 123.914L1067.53 115.208L1068.58 115.282L1068.28 119.601L1068.38 119.608L1072.59 115.561L1073.97 115.657L1070.04 119.33L1073.37 124.363L1072.09 124.274L1069.34 120.016L1068.17 121.165L1067.97 123.988L1066.92 123.914ZM1082.75 116.268L1082.14 124.975L1081.09 124.901L1081.7 116.195L1082.75 116.268ZM1085.82 117.422L1085.88 116.487L1092.41 116.941L1092.35 117.877L1089.61 117.686L1089.07 125.457L1088.02 125.384L1088.56 117.613L1085.82 117.422ZM1099.79 126.204L1100.4 117.498L1105.65 117.864L1105.59 118.799L1101.39 118.506L1101.18 121.448L1105.11 121.722L1105.05 122.657L1101.12 122.383L1100.91 125.342L1105.18 125.639L1105.12 126.575L1099.79 126.204ZM1108.8 126.831L1107.7 126.754L1111.5 118.271L1112.59 118.347L1115.18 127.275L1114.07 127.198L1111.98 119.688L1111.91 119.684L1108.8 126.831ZM1109.45 123.459L1113.9 123.769L1113.84 124.704L1109.38 124.394L1109.45 123.459ZM1123.25 121.276C1123.23 120.842 1123.04 120.493 1122.7 120.23C1122.35 119.966 1121.91 119.816 1121.39 119.78C1121 119.753 1120.66 119.792 1120.36 119.896C1120.07 120.001 1119.83 120.157 1119.65 120.364C1119.48 120.571 1119.38 120.813 1119.36 121.091C1119.35 121.323 1119.39 121.527 1119.49 121.702C1119.59 121.874 1119.73 122.022 1119.89 122.145C1120.06 122.264 1120.24 122.367 1120.43 122.451C1120.62 122.532 1120.79 122.6 1120.95 122.654L1121.81 122.953C1122.04 123.029 1122.28 123.128 1122.55 123.253C1122.83 123.377 1123.09 123.539 1123.33 123.738C1123.57 123.934 1123.77 124.179 1123.92 124.471C1124.07 124.763 1124.12 125.113 1124.1 125.521C1124.06 125.992 1123.91 126.408 1123.64 126.771C1123.37 127.134 1122.99 127.411 1122.5 127.602C1122.02 127.793 1121.44 127.866 1120.78 127.819C1120.15 127.776 1119.62 127.637 1119.18 127.404C1118.74 127.172 1118.4 126.866 1118.16 126.488C1117.93 126.11 1117.81 125.682 1117.81 125.203L1118.9 125.279C1118.91 125.61 1119 125.89 1119.18 126.119C1119.36 126.345 1119.59 126.521 1119.88 126.646C1120.18 126.769 1120.5 126.843 1120.84 126.867C1121.24 126.895 1121.61 126.855 1121.94 126.747C1122.27 126.636 1122.54 126.469 1122.74 126.247C1122.94 126.022 1123.06 125.751 1123.08 125.433C1123.1 125.144 1123.03 124.903 1122.88 124.711C1122.74 124.518 1122.53 124.356 1122.28 124.224C1122.02 124.093 1121.74 123.974 1121.44 123.867L1120.39 123.487C1119.73 123.244 1119.21 122.927 1118.84 122.537C1118.46 122.146 1118.3 121.658 1118.34 121.071C1118.37 120.584 1118.54 120.168 1118.82 119.823C1119.12 119.476 1119.49 119.218 1119.96 119.048C1120.42 118.875 1120.93 118.808 1121.49 118.847C1122.05 118.886 1122.54 119.021 1122.96 119.253C1123.38 119.481 1123.71 119.778 1123.94 120.141C1124.18 120.505 1124.28 120.907 1124.27 121.347L1123.25 121.276ZM1127.02 119.352L1128.23 119.436L1130.36 123.668L1130.46 123.675L1133.16 119.779L1134.37 119.863L1130.86 124.762L1130.61 128.35L1129.56 128.277L1129.81 124.689L1127.02 119.352Z" fill="#101010"/>
<path d="M1208.73 124.983C1208.75 124.773 1209.11 124.712 1209.2 124.904C1209.63 125.803 1210.37 127.131 1211.27 127.775C1212.17 128.417 1213.67 128.687 1214.66 128.799C1214.87 128.823 1214.93 129.177 1214.73 129.268C1213.84 129.695 1212.51 130.437 1211.87 131.339C1211.22 132.24 1210.95 133.739 1210.84 134.728C1210.82 134.939 1210.46 134.997 1210.37 134.805C1209.95 133.906 1209.2 132.58 1208.3 131.936C1207.4 131.292 1205.9 131.024 1204.91 130.912C1204.7 130.888 1204.64 130.532 1204.83 130.443C1205.73 130.015 1207.06 129.274 1207.7 128.37C1208.35 127.469 1208.62 125.97 1208.73 124.983Z" fill="black"/>
<path d="M1276.4 138.504L1277.01 129.798L1279.95 130.003C1280.63 130.051 1281.18 130.213 1281.6 130.49C1282.02 130.764 1282.32 131.116 1282.5 131.548C1282.68 131.979 1282.75 132.451 1282.72 132.964C1282.68 133.477 1282.54 133.936 1282.3 134.341C1282.07 134.746 1281.72 135.058 1281.27 135.277C1280.82 135.493 1280.26 135.578 1279.58 135.531L1277.47 135.384L1277.54 134.449L1279.61 134.593C1280.08 134.626 1280.46 134.571 1280.76 134.429C1281.05 134.287 1281.27 134.083 1281.42 133.817C1281.57 133.549 1281.65 133.24 1281.68 132.892C1281.7 132.543 1281.66 132.227 1281.55 131.943C1281.44 131.659 1281.25 131.429 1280.97 131.253C1280.7 131.075 1280.32 130.969 1279.85 130.936L1278 130.807L1277.46 138.578L1276.4 138.504ZM1284.97 139.101L1283.86 139.024L1287.66 130.54L1288.75 130.616L1291.34 139.545L1290.24 139.468L1288.15 131.958L1288.08 131.953L1284.97 139.101ZM1285.61 135.728L1290.07 136.039L1290 136.974L1285.54 136.664L1285.61 135.728ZM1294.19 139.744L1294.8 131.037L1297.74 131.242C1298.42 131.29 1298.97 131.445 1299.39 131.708C1299.81 131.967 1300.11 132.306 1300.3 132.723C1300.48 133.14 1300.55 133.605 1300.52 134.118C1300.48 134.631 1300.34 135.079 1300.11 135.461C1299.87 135.843 1299.52 136.132 1299.08 136.329C1298.63 136.522 1298.06 136.596 1297.39 136.549L1295.01 136.383L1295.08 135.431L1297.42 135.594C1297.89 135.627 1298.27 135.585 1298.56 135.468C1298.85 135.352 1299.07 135.174 1299.22 134.933C1299.37 134.69 1299.45 134.394 1299.48 134.046C1299.5 133.697 1299.46 133.388 1299.35 133.118C1299.23 132.848 1299.04 132.633 1298.76 132.471C1298.49 132.307 1298.11 132.208 1297.64 132.175L1295.79 132.046L1295.25 139.817L1294.19 139.744ZM1298.56 136.118L1300.43 140.178L1299.21 140.093L1297.37 136.035L1298.56 136.118ZM1303.35 140.381L1303.95 131.675L1305.01 131.748L1304.71 136.067L1304.81 136.075L1309.02 132.028L1310.4 132.124L1306.47 135.797L1309.79 140.83L1308.52 140.741L1305.77 136.483L1304.6 137.632L1304.4 140.455L1303.35 140.381ZM1319.18 132.735L1318.57 141.441L1317.52 141.368L1318.12 132.662L1319.18 132.735ZM1322.25 133.889L1322.31 132.954L1328.84 133.408L1328.78 134.344L1326.04 134.153L1325.5 141.924L1324.44 141.85L1324.98 134.079L1322.25 133.889ZM1336.22 142.671L1336.83 133.965L1342.08 134.331L1342.02 135.266L1337.82 134.973L1337.61 137.915L1341.54 138.189L1341.47 139.124L1337.55 138.85L1337.34 141.809L1341.61 142.106L1341.54 143.041L1336.22 142.671ZM1345.23 143.298L1344.12 143.221L1347.93 134.738L1349.02 134.813L1351.61 143.742L1350.5 143.665L1348.41 136.155L1348.34 136.15L1345.23 143.298ZM1345.87 139.926L1350.33 140.236L1350.26 141.171L1345.81 140.861L1345.87 139.926ZM1359.67 137.743C1359.65 137.309 1359.47 136.96 1359.12 136.696C1358.78 136.433 1358.34 136.283 1357.81 136.246C1357.43 136.22 1357.09 136.258 1356.79 136.363C1356.49 136.468 1356.26 136.624 1356.08 136.831C1355.91 137.038 1355.81 137.28 1355.79 137.558C1355.78 137.79 1355.82 137.994 1355.92 138.169C1356.02 138.341 1356.15 138.489 1356.32 138.611C1356.49 138.731 1356.67 138.833 1356.85 138.918C1357.04 138.999 1357.22 139.067 1357.37 139.121L1358.24 139.42C1358.46 139.495 1358.71 139.595 1358.98 139.719C1359.25 139.844 1359.51 140.006 1359.75 140.205C1360 140.401 1360.2 140.646 1360.34 140.938C1360.49 141.23 1360.55 141.58 1360.52 141.988C1360.49 142.459 1360.34 142.875 1360.06 143.238C1359.79 143.601 1359.42 143.878 1358.93 144.069C1358.45 144.26 1357.87 144.332 1357.2 144.286C1356.58 144.242 1356.05 144.104 1355.6 143.871C1355.16 143.638 1354.83 143.333 1354.59 142.955C1354.36 142.577 1354.24 142.149 1354.24 141.67L1355.33 141.746C1355.33 142.077 1355.43 142.357 1355.6 142.585C1355.78 142.812 1356.02 142.987 1356.31 143.113C1356.6 143.236 1356.92 143.31 1357.27 143.334C1357.67 143.362 1358.04 143.322 1358.37 143.214C1358.7 143.103 1358.96 142.936 1359.17 142.714C1359.37 142.489 1359.48 142.218 1359.5 141.9C1359.52 141.611 1359.46 141.37 1359.31 141.178C1359.16 140.985 1358.96 140.823 1358.7 140.691C1358.45 140.559 1358.17 140.44 1357.87 140.334L1356.82 139.953C1356.15 139.71 1355.64 139.394 1355.26 139.003C1354.89 138.613 1354.73 138.124 1354.77 137.538C1354.8 137.05 1354.96 136.634 1355.25 136.29C1355.54 135.943 1355.92 135.684 1356.38 135.514C1356.85 135.342 1357.36 135.275 1357.91 135.313C1358.47 135.353 1358.97 135.488 1359.39 135.72C1359.81 135.948 1360.14 136.244 1360.37 136.608C1360.6 136.972 1360.71 137.374 1360.69 137.814L1359.67 137.743ZM1363.45 135.819L1364.65 135.903L1366.79 140.135L1366.89 140.142L1369.59 136.246L1370.79 136.33L1367.29 141.229L1367.04 144.817L1365.99 144.744L1366.24 141.156L1363.45 135.819Z" fill="#101010"/>
</g>
<defs>
<filter id="filter0_d_42_816" x="-160" y="37.0001" width="1736.14" height="140.167" filterUnits="userSpaceOnUse" color-interpolation-filters="sRGB">
<feFlood flood-opacity="0" result="BackgroundImageFix"/>
<feColorMatrix in="SourceAlpha" type="matrix" values="0 0 0 0 0 0 0 0 0 0 0 0 0 0 0 0 0 0 127 0" result="hardAlpha"/>
<feOffset dy="4"/>
<feGaussianBlur stdDeviation="2"/>
<feComposite in2="hardAlpha" operator="out"/>
<feColorMatrix type="matrix" values="0 0 0 0 0 0 0 0 0 0 0 0 0 0 0 0 0 0 0.25 0"/>
<feBlend mode="normal" in2="BackgroundImageFix" result="effect1_dropShadow_42_816"/>
<feBlend mode="normal" in="SourceGraphic" in2="effect1_dropShadow_42_816" result="shape"/>
</filter>
<filter id="filter1_d_42_816" x="-170.512" y="0" width="1757.17" height="197.822" filterUnits="userSpaceOnUse" color-interpolation-filters="sRGB">
<feFlood flood-opacity="0" result="BackgroundImageFix"/>
<feColorMatrix in="SourceAlpha" type="matrix" values="0 0 0 0 0 0 0 0 0 0 0 0 0 0 0 0 0 0 127 0" result="hardAlpha"/>
<feMorphology radius="5" operator="dilate" in="SourceAlpha" result="effect1_dropShadow_42_816"/>
<feOffset dy="4"/>
<feGaussianBlur stdDeviation="5.5"/>
<feComposite in2="hardAlpha" operator="out"/>
<feColorMatrix type="matrix" values="0 0 0 0 0 0 0 0 0 0 0 0 0 0 0 0 0 0 0.15 0"/>
<feBlend mode="normal" in2="BackgroundImageFix" result="effect1_dropShadow_42_816"/>
<feBlend mode="normal" in="SourceGraphic" in2="effect1_dropShadow_42_816" result="shape"/>
</filter>
<clipPath id="clip0_42_816">
<rect width="1728" height="46" fill="white" transform="translate(-156 123.224) rotate(-2.86014)"/>
</clipPath>
<clipPath id="clip1_42_816">
<rect width="1726.14" height="46" fill="white" transform="translate(-151.316 12) rotate(3.98415)"/>
</clipPath>
</defs>
</svg>
