<svg width="1440" height="163" viewBox="0 0 1440 163" fill="none" xmlns="http://www.w3.org/2000/svg">
<line x1="-0.00363159" y1="109.786" x2="1440" y2="109.786" stroke="#0EB03B" stroke-width="3"/>
<path d="M225.469 40.5L229.137 30.07H231.181L234.849 40.5H233.085L232.287 38.162H228.045L227.233 40.5H225.469ZM228.521 36.692H231.783L229.935 31.232H230.397L228.521 36.692ZM238.498 40.668C237.928 40.668 237.429 40.542 237 40.29C236.57 40.0287 236.234 39.6693 235.992 39.212C235.758 38.7453 235.642 38.2087 235.642 37.602V32.926H237.224V37.462C237.224 37.8073 237.294 38.1107 237.434 38.372C237.574 38.6333 237.77 38.8387 238.022 38.988C238.274 39.128 238.563 39.198 238.89 39.198C239.226 39.198 239.52 39.1233 239.772 38.974C240.024 38.8247 240.22 38.6147 240.36 38.344C240.509 38.0733 240.584 37.756 240.584 37.392V32.926H242.152V40.5H240.654V39.016L240.822 39.212C240.644 39.6787 240.35 40.038 239.94 40.29C239.529 40.542 239.048 40.668 238.498 40.668ZM247.275 40.584C246.481 40.584 245.865 40.36 245.427 39.912C244.988 39.464 244.769 38.834 244.769 38.022V34.354H243.439V32.926H243.649C244.003 32.926 244.279 32.8233 244.475 32.618C244.671 32.4127 244.769 32.1327 244.769 31.778V31.19H246.351V32.926H248.073V34.354H246.351V37.952C246.351 38.2133 246.393 38.4373 246.477 38.624C246.561 38.8013 246.696 38.9413 246.883 39.044C247.069 39.1373 247.312 39.184 247.611 39.184C247.685 39.184 247.769 39.1793 247.863 39.17C247.956 39.1607 248.045 39.1513 248.129 39.142V40.5C247.998 40.5187 247.853 40.5373 247.695 40.556C247.536 40.5747 247.396 40.584 247.275 40.584ZM253.19 40.668C252.462 40.668 251.795 40.4953 251.188 40.15C250.591 39.8047 250.115 39.3333 249.76 38.736C249.405 38.1387 249.228 37.462 249.228 36.706C249.228 35.9407 249.405 35.264 249.76 34.676C250.115 34.0787 250.591 33.612 251.188 33.276C251.785 32.9307 252.453 32.758 253.19 32.758C253.937 32.758 254.604 32.9307 255.192 33.276C255.789 33.612 256.261 34.0787 256.606 34.676C256.961 35.264 257.138 35.9407 257.138 36.706C257.138 37.4713 256.961 38.1527 256.606 38.75C256.251 39.3473 255.775 39.8187 255.178 40.164C254.581 40.5 253.918 40.668 253.19 40.668ZM253.19 39.198C253.638 39.198 254.035 39.0907 254.38 38.876C254.725 38.6613 254.996 38.3673 255.192 37.994C255.397 37.6113 255.5 37.182 255.5 36.706C255.5 36.23 255.397 35.8053 255.192 35.432C254.996 35.0587 254.725 34.7647 254.38 34.55C254.035 34.3353 253.638 34.228 253.19 34.228C252.751 34.228 252.355 34.3353 252 34.55C251.655 34.7647 251.379 35.0587 251.174 35.432C250.978 35.8053 250.88 36.23 250.88 36.706C250.88 37.182 250.978 37.6113 251.174 37.994C251.379 38.3673 251.655 38.6613 252 38.876C252.355 39.0907 252.751 39.198 253.19 39.198ZM258.682 40.5V32.926H260.194V34.564L259.998 34.312C260.157 33.7987 260.446 33.4113 260.866 33.15C261.286 32.8887 261.767 32.758 262.308 32.758C262.915 32.758 263.452 32.9213 263.918 33.248C264.394 33.5653 264.712 33.99 264.87 34.522L264.422 34.564C264.646 33.9573 264.987 33.5047 265.444 33.206C265.911 32.9073 266.443 32.758 267.04 32.758C267.563 32.758 268.034 32.8793 268.454 33.122C268.884 33.3647 269.224 33.7007 269.476 34.13C269.728 34.5593 269.854 35.0493 269.854 35.6V40.5H268.272V36.034C268.272 35.6513 268.202 35.3293 268.062 35.068C267.932 34.7973 267.745 34.592 267.502 34.452C267.269 34.3027 266.994 34.228 266.676 34.228C266.359 34.228 266.079 34.3027 265.836 34.452C265.594 34.592 265.402 34.7973 265.262 35.068C265.122 35.3387 265.052 35.6607 265.052 36.034V40.5H263.484V36.034C263.484 35.6513 263.414 35.3293 263.274 35.068C263.144 34.7973 262.957 34.592 262.714 34.452C262.481 34.3027 262.201 34.228 261.874 34.228C261.557 34.228 261.277 34.3027 261.034 34.452C260.792 34.592 260.6 34.7973 260.46 35.068C260.33 35.3387 260.264 35.6607 260.264 36.034V40.5H258.682ZM273.816 40.668C273.302 40.668 272.85 40.5793 272.458 40.402C272.075 40.2153 271.776 39.9633 271.562 39.646C271.347 39.3193 271.24 38.9367 271.24 38.498C271.24 38.0873 271.328 37.7187 271.506 37.392C271.692 37.0653 271.977 36.79 272.36 36.566C272.742 36.342 273.223 36.1833 273.802 36.09L276.434 35.656V36.902L274.11 37.308C273.69 37.3827 273.382 37.518 273.186 37.714C272.99 37.9007 272.892 38.1433 272.892 38.442C272.892 38.7313 272.999 38.9693 273.214 39.156C273.438 39.3333 273.722 39.422 274.068 39.422C274.497 39.422 274.87 39.3287 275.188 39.142C275.514 38.9553 275.766 38.708 275.944 38.4C276.121 38.0827 276.21 37.7327 276.21 37.35V35.404C276.21 35.0307 276.07 34.7273 275.79 34.494C275.519 34.2513 275.155 34.13 274.698 34.13C274.278 34.13 273.909 34.242 273.592 34.466C273.284 34.6807 273.055 34.9607 272.906 35.306L271.59 34.648C271.73 34.2747 271.958 33.948 272.276 33.668C272.593 33.3787 272.962 33.1547 273.382 32.996C273.811 32.8373 274.264 32.758 274.74 32.758C275.337 32.758 275.864 32.87 276.322 33.094C276.788 33.318 277.148 33.6307 277.4 34.032C277.661 34.424 277.792 34.8813 277.792 35.404V40.5H276.28V39.128L276.602 39.17C276.424 39.478 276.196 39.744 275.916 39.968C275.645 40.192 275.332 40.3647 274.978 40.486C274.632 40.6073 274.245 40.668 273.816 40.668ZM282.781 40.584C281.987 40.584 281.371 40.36 280.933 39.912C280.494 39.464 280.275 38.834 280.275 38.022V34.354H278.945V32.926H279.155C279.509 32.926 279.785 32.8233 279.981 32.618C280.177 32.4127 280.275 32.1327 280.275 31.778V31.19H281.857V32.926H283.579V34.354H281.857V37.952C281.857 38.2133 281.899 38.4373 281.983 38.624C282.067 38.8013 282.202 38.9413 282.389 39.044C282.575 39.1373 282.818 39.184 283.117 39.184C283.191 39.184 283.275 39.1793 283.369 39.17C283.462 39.1607 283.551 39.1513 283.635 39.142V40.5C283.504 40.5187 283.359 40.5373 283.201 40.556C283.042 40.5747 282.902 40.584 282.781 40.584ZM285.179 40.5V32.926H286.761V40.5H285.179ZM285.179 31.89V30.07H286.761V31.89H285.179ZM288.61 40.5V32.926H290.122V34.41L289.94 34.214C290.127 33.738 290.425 33.3787 290.836 33.136C291.247 32.884 291.723 32.758 292.264 32.758C292.824 32.758 293.319 32.8793 293.748 33.122C294.177 33.3647 294.513 33.7007 294.756 34.13C294.999 34.5593 295.12 35.054 295.12 35.614V40.5H293.552V36.034C293.552 35.6513 293.482 35.3293 293.342 35.068C293.202 34.7973 293.001 34.592 292.74 34.452C292.488 34.3027 292.199 34.228 291.872 34.228C291.545 34.228 291.251 34.3027 290.99 34.452C290.738 34.592 290.542 34.7973 290.402 35.068C290.262 35.3387 290.192 35.6607 290.192 36.034V40.5H288.61ZM300.467 43.58C299.917 43.58 299.408 43.4913 298.941 43.314C298.475 43.1367 298.073 42.8893 297.737 42.572C297.401 42.264 297.149 41.9 296.981 41.48L298.437 40.878C298.568 41.2327 298.806 41.5267 299.151 41.76C299.506 41.9933 299.94 42.11 300.453 42.11C300.855 42.11 301.214 42.0307 301.531 41.872C301.849 41.7227 302.101 41.4987 302.287 41.2C302.474 40.9107 302.567 40.5607 302.567 40.15V38.442L302.847 38.764C302.586 39.2493 302.222 39.618 301.755 39.87C301.298 40.122 300.78 40.248 300.201 40.248C299.501 40.248 298.871 40.0847 298.311 39.758C297.751 39.4313 297.308 38.9833 296.981 38.414C296.664 37.8447 296.505 37.2053 296.505 36.496C296.505 35.7773 296.664 35.138 296.981 34.578C297.308 34.018 297.747 33.5747 298.297 33.248C298.848 32.9213 299.478 32.758 300.187 32.758C300.766 32.758 301.279 32.884 301.727 33.136C302.185 33.3787 302.558 33.7333 302.847 34.2L302.637 34.592V32.926H304.135V40.15C304.135 40.8033 303.977 41.3867 303.659 41.9C303.351 42.4227 302.922 42.8333 302.371 43.132C301.821 43.4307 301.186 43.58 300.467 43.58ZM300.383 38.778C300.803 38.778 301.177 38.68 301.503 38.484C301.83 38.2787 302.087 38.008 302.273 37.672C302.469 37.3267 302.567 36.9393 302.567 36.51C302.567 36.0807 302.469 35.6933 302.273 35.348C302.077 35.0027 301.816 34.732 301.489 34.536C301.163 34.3307 300.794 34.228 300.383 34.228C299.954 34.228 299.571 34.3307 299.235 34.536C298.899 34.732 298.633 35.0027 298.437 35.348C298.251 35.684 298.157 36.0713 298.157 36.51C298.157 36.93 298.251 37.3127 298.437 37.658C298.633 38.0033 298.899 38.2787 299.235 38.484C299.571 38.68 299.954 38.778 300.383 38.778ZM308.588 40.5V30.07H312.382C313.082 30.07 313.698 30.2007 314.23 30.462C314.772 30.714 315.192 31.0873 315.49 31.582C315.789 32.0673 315.938 32.6507 315.938 33.332C315.938 34.004 315.784 34.5827 315.476 35.068C315.178 35.5533 314.762 35.9267 314.23 36.188C313.698 36.4493 313.082 36.58 312.382 36.58H310.24V40.5H308.588ZM310.24 35.11H312.424C312.798 35.11 313.124 35.0353 313.404 34.886C313.684 34.7367 313.904 34.5313 314.062 34.27C314.221 33.9993 314.3 33.682 314.3 33.318C314.3 32.954 314.221 32.6413 314.062 32.38C313.904 32.1093 313.684 31.904 313.404 31.764C313.124 31.6147 312.798 31.54 312.424 31.54H310.24V35.11ZM319.261 40.668C318.748 40.668 318.295 40.5793 317.903 40.402C317.52 40.2153 317.222 39.9633 317.007 39.646C316.792 39.3193 316.685 38.9367 316.685 38.498C316.685 38.0873 316.774 37.7187 316.951 37.392C317.138 37.0653 317.422 36.79 317.805 36.566C318.188 36.342 318.668 36.1833 319.247 36.09L321.879 35.656V36.902L319.555 37.308C319.135 37.3827 318.827 37.518 318.631 37.714C318.435 37.9007 318.337 38.1433 318.337 38.442C318.337 38.7313 318.444 38.9693 318.659 39.156C318.883 39.3333 319.168 39.422 319.513 39.422C319.942 39.422 320.316 39.3287 320.633 39.142C320.96 38.9553 321.212 38.708 321.389 38.4C321.566 38.0827 321.655 37.7327 321.655 37.35V35.404C321.655 35.0307 321.515 34.7273 321.235 34.494C320.964 34.2513 320.6 34.13 320.143 34.13C319.723 34.13 319.354 34.242 319.037 34.466C318.729 34.6807 318.5 34.9607 318.351 35.306L317.035 34.648C317.175 34.2747 317.404 33.948 317.721 33.668C318.038 33.3787 318.407 33.1547 318.827 32.996C319.256 32.8373 319.709 32.758 320.185 32.758C320.782 32.758 321.31 32.87 321.767 33.094C322.234 33.318 322.593 33.6307 322.845 34.032C323.106 34.424 323.237 34.8813 323.237 35.404V40.5H321.725V39.128L322.047 39.17C321.87 39.478 321.641 39.744 321.361 39.968C321.09 40.192 320.778 40.3647 320.423 40.486C320.078 40.6073 319.69 40.668 319.261 40.668ZM325.087 40.5V32.926H326.599V34.452L326.459 34.228C326.627 33.7333 326.897 33.3787 327.271 33.164C327.644 32.94 328.092 32.828 328.615 32.828H329.077V34.27H328.419C327.896 34.27 327.471 34.4333 327.145 34.76C326.827 35.0773 326.669 35.5347 326.669 36.132V40.5H325.087ZM330.159 40.5V29.902H331.741V37L331.125 36.846L334.919 32.926H336.893L334.037 35.964L337.019 40.5H335.199L332.539 36.482L333.477 36.356L331.237 38.736L331.741 37.686V40.5H330.159ZM338.102 40.5V32.926H339.684V40.5H338.102ZM338.102 31.89V30.07H339.684V31.89H338.102ZM341.534 40.5V32.926H343.046V34.41L342.864 34.214C343.051 33.738 343.349 33.3787 343.76 33.136C344.171 32.884 344.647 32.758 345.188 32.758C345.748 32.758 346.243 32.8793 346.672 33.122C347.101 33.3647 347.437 33.7007 347.68 34.13C347.923 34.5593 348.044 35.054 348.044 35.614V40.5H346.476V36.034C346.476 35.6513 346.406 35.3293 346.266 35.068C346.126 34.7973 345.925 34.592 345.664 34.452C345.412 34.3027 345.123 34.228 344.796 34.228C344.469 34.228 344.175 34.3027 343.914 34.452C343.662 34.592 343.466 34.7973 343.326 35.068C343.186 35.3387 343.116 35.6607 343.116 36.034V40.5H341.534ZM353.391 43.58C352.84 43.58 352.332 43.4913 351.865 43.314C351.398 43.1367 350.997 42.8893 350.661 42.572C350.325 42.264 350.073 41.9 349.905 41.48L351.361 40.878C351.492 41.2327 351.73 41.5267 352.075 41.76C352.43 41.9933 352.864 42.11 353.377 42.11C353.778 42.11 354.138 42.0307 354.455 41.872C354.772 41.7227 355.024 41.4987 355.211 41.2C355.398 40.9107 355.491 40.5607 355.491 40.15V38.442L355.771 38.764C355.51 39.2493 355.146 39.618 354.679 39.87C354.222 40.122 353.704 40.248 353.125 40.248C352.425 40.248 351.795 40.0847 351.235 39.758C350.675 39.4313 350.232 38.9833 349.905 38.414C349.588 37.8447 349.429 37.2053 349.429 36.496C349.429 35.7773 349.588 35.138 349.905 34.578C350.232 34.018 350.67 33.5747 351.221 33.248C351.772 32.9213 352.402 32.758 353.111 32.758C353.69 32.758 354.203 32.884 354.651 33.136C355.108 33.3787 355.482 33.7333 355.771 34.2L355.561 34.592V32.926H357.059V40.15C357.059 40.8033 356.9 41.3867 356.583 41.9C356.275 42.4227 355.846 42.8333 355.295 43.132C354.744 43.4307 354.11 43.58 353.391 43.58ZM353.307 38.778C353.727 38.778 354.1 38.68 354.427 38.484C354.754 38.2787 355.01 38.008 355.197 37.672C355.393 37.3267 355.491 36.9393 355.491 36.51C355.491 36.0807 355.393 35.6933 355.197 35.348C355.001 35.0027 354.74 34.732 354.413 34.536C354.086 34.3307 353.718 34.228 353.307 34.228C352.878 34.228 352.495 34.3307 352.159 34.536C351.823 34.732 351.557 35.0027 351.361 35.348C351.174 35.684 351.081 36.0713 351.081 36.51C351.081 36.93 351.174 37.3127 351.361 37.658C351.557 38.0033 351.823 38.2787 352.159 38.484C352.495 38.68 352.878 38.778 353.307 38.778ZM252.598 60.668C251.982 60.668 251.44 60.556 250.974 60.332C250.507 60.0987 250.138 59.7767 249.868 59.366C249.606 58.946 249.476 58.4607 249.476 57.91C249.476 57.4433 249.56 57.0373 249.728 56.692C249.896 56.3373 250.106 56.0387 250.358 55.796C250.61 55.544 250.862 55.334 251.114 55.166C251.366 54.998 251.576 54.8673 251.744 54.774L252.598 54.298C252.878 54.1393 253.144 53.9713 253.396 53.794C253.648 53.6167 253.853 53.416 254.012 53.192C254.17 52.968 254.25 52.716 254.25 52.436C254.25 52.1 254.138 51.82 253.914 51.596C253.69 51.3627 253.41 51.246 253.074 51.246C252.738 51.246 252.458 51.358 252.234 51.582C252.01 51.806 251.898 52.0953 251.898 52.45C251.898 52.6927 251.954 52.9307 252.066 53.164C252.187 53.3973 252.327 53.6167 252.486 53.822C252.654 54.018 252.817 54.2047 252.976 54.382L258.576 60.5H256.602L251.8 55.334C251.576 55.0913 251.352 54.8347 251.128 54.564C250.913 54.284 250.731 53.976 250.582 53.64C250.442 53.304 250.372 52.9307 250.372 52.52C250.372 51.988 250.493 51.526 250.736 51.134C250.988 50.742 251.314 50.4387 251.716 50.224C252.126 50.0093 252.574 49.902 253.06 49.902C253.554 49.902 254.002 50.014 254.404 50.238C254.805 50.4527 255.122 50.7513 255.356 51.134C255.598 51.5167 255.72 51.9507 255.72 52.436C255.72 52.94 255.603 53.374 255.37 53.738C255.136 54.102 254.852 54.41 254.516 54.662C254.189 54.914 253.881 55.1287 253.592 55.306L252.738 55.81C252.514 55.9407 252.276 56.104 252.024 56.3C251.781 56.4867 251.576 56.7107 251.408 56.972C251.24 57.224 251.156 57.5273 251.156 57.882C251.156 58.3207 251.291 58.6613 251.562 58.904C251.842 59.1467 252.206 59.268 252.654 59.268C252.943 59.268 253.2 59.2213 253.424 59.128C253.648 59.0347 253.844 58.9133 254.012 58.764C254.189 58.6147 254.343 58.4513 254.474 58.274C254.614 58.0873 254.74 57.9147 254.852 57.756L256.476 55.376H258.17L256.294 58.288C256.144 58.512 255.967 58.764 255.762 59.044C255.556 59.3147 255.309 59.576 255.02 59.828C254.73 60.0707 254.385 60.2713 253.984 60.43C253.592 60.5887 253.13 60.668 252.598 60.668ZM262.863 60.5V50.07H264.193L270.045 58.148L269.415 58.246V50.07H271.053V60.5H269.723L263.913 52.366L264.515 52.254V60.5H262.863ZM275.326 60.668C274.813 60.668 274.36 60.5793 273.968 60.402C273.586 60.2153 273.287 59.9633 273.072 59.646C272.858 59.3193 272.75 58.9367 272.75 58.498C272.75 58.0873 272.839 57.7187 273.016 57.392C273.203 57.0653 273.488 56.79 273.87 56.566C274.253 56.342 274.734 56.1833 275.312 56.09L277.944 55.656V56.902L275.62 57.308C275.2 57.3827 274.892 57.518 274.696 57.714C274.5 57.9007 274.402 58.1433 274.402 58.442C274.402 58.7313 274.51 58.9693 274.724 59.156C274.948 59.3333 275.233 59.422 275.578 59.422C276.008 59.422 276.381 59.3287 276.698 59.142C277.025 58.9553 277.277 58.708 277.454 58.4C277.632 58.0827 277.72 57.7327 277.72 57.35V55.404C277.72 55.0307 277.58 54.7273 277.3 54.494C277.03 54.2513 276.666 54.13 276.208 54.13C275.788 54.13 275.42 54.242 275.102 54.466C274.794 54.6807 274.566 54.9607 274.416 55.306L273.1 54.648C273.24 54.2747 273.469 53.948 273.786 53.668C274.104 53.3787 274.472 53.1547 274.892 52.996C275.322 52.8373 275.774 52.758 276.25 52.758C276.848 52.758 277.375 52.87 277.832 53.094C278.299 53.318 278.658 53.6307 278.91 54.032C279.172 54.424 279.302 54.8813 279.302 55.404V60.5H277.79V59.128L278.112 59.17C277.935 59.478 277.706 59.744 277.426 59.968C277.156 60.192 276.843 60.3647 276.488 60.486C276.143 60.6073 275.756 60.668 275.326 60.668ZM283.213 60.5L280.245 52.926H281.967L284.249 59.1H283.619L285.901 52.926H287.637L284.655 60.5H283.213ZM288.713 60.5V52.926H290.295V60.5H288.713ZM288.713 51.89V50.07H290.295V51.89H288.713ZM295.798 63.58C295.248 63.58 294.739 63.4913 294.272 63.314C293.806 63.1367 293.404 62.8893 293.068 62.572C292.732 62.264 292.48 61.9 292.312 61.48L293.768 60.878C293.899 61.2327 294.137 61.5267 294.482 61.76C294.837 61.9933 295.271 62.11 295.784 62.11C296.186 62.11 296.545 62.0307 296.862 61.872C297.18 61.7227 297.432 61.4987 297.618 61.2C297.805 60.9107 297.898 60.5607 297.898 60.15V58.442L298.178 58.764C297.917 59.2493 297.553 59.618 297.086 59.87C296.629 60.122 296.111 60.248 295.532 60.248C294.832 60.248 294.202 60.0847 293.642 59.758C293.082 59.4313 292.639 58.9833 292.312 58.414C291.995 57.8447 291.836 57.2053 291.836 56.496C291.836 55.7773 291.995 55.138 292.312 54.578C292.639 54.018 293.078 53.5747 293.628 53.248C294.179 52.9213 294.809 52.758 295.518 52.758C296.097 52.758 296.61 52.884 297.058 53.136C297.516 53.3787 297.889 53.7333 298.178 54.2L297.968 54.592V52.926H299.466V60.15C299.466 60.8033 299.308 61.3867 298.99 61.9C298.682 62.4227 298.253 62.8333 297.702 63.132C297.152 63.4307 296.517 63.58 295.798 63.58ZM295.714 58.778C296.134 58.778 296.508 58.68 296.834 58.484C297.161 58.2787 297.418 58.008 297.604 57.672C297.8 57.3267 297.898 56.9393 297.898 56.51C297.898 56.0807 297.8 55.6933 297.604 55.348C297.408 55.0027 297.147 54.732 296.82 54.536C296.494 54.3307 296.125 54.228 295.714 54.228C295.285 54.228 294.902 54.3307 294.566 54.536C294.23 54.732 293.964 55.0027 293.768 55.348C293.582 55.684 293.488 56.0713 293.488 56.51C293.488 56.93 293.582 57.3127 293.768 57.658C293.964 58.0033 294.23 58.2787 294.566 58.484C294.902 58.68 295.285 58.778 295.714 58.778ZM303.586 60.668C303.073 60.668 302.62 60.5793 302.228 60.402C301.845 60.2153 301.547 59.9633 301.332 59.646C301.117 59.3193 301.01 58.9367 301.01 58.498C301.01 58.0873 301.099 57.7187 301.276 57.392C301.463 57.0653 301.747 56.79 302.13 56.566C302.513 56.342 302.993 56.1833 303.572 56.09L306.204 55.656V56.902L303.88 57.308C303.46 57.3827 303.152 57.518 302.956 57.714C302.76 57.9007 302.662 58.1433 302.662 58.442C302.662 58.7313 302.769 58.9693 302.984 59.156C303.208 59.3333 303.493 59.422 303.838 59.422C304.267 59.422 304.641 59.3287 304.958 59.142C305.285 58.9553 305.537 58.708 305.714 58.4C305.891 58.0827 305.98 57.7327 305.98 57.35V55.404C305.98 55.0307 305.84 54.7273 305.56 54.494C305.289 54.2513 304.925 54.13 304.468 54.13C304.048 54.13 303.679 54.242 303.362 54.466C303.054 54.6807 302.825 54.9607 302.676 55.306L301.36 54.648C301.5 54.2747 301.729 53.948 302.046 53.668C302.363 53.3787 302.732 53.1547 303.152 52.996C303.581 52.8373 304.034 52.758 304.51 52.758C305.107 52.758 305.635 52.87 306.092 53.094C306.559 53.318 306.918 53.6307 307.17 54.032C307.431 54.424 307.562 54.8813 307.562 55.404V60.5H306.05V59.128L306.372 59.17C306.195 59.478 305.966 59.744 305.686 59.968C305.415 60.192 305.103 60.3647 304.748 60.486C304.403 60.6073 304.015 60.668 303.586 60.668ZM312.551 60.584C311.758 60.584 311.142 60.36 310.703 59.912C310.265 59.464 310.045 58.834 310.045 58.022V54.354H308.715V52.926H308.925C309.28 52.926 309.555 52.8233 309.751 52.618C309.947 52.4127 310.045 52.1327 310.045 51.778V51.19H311.627V52.926H313.349V54.354H311.627V57.952C311.627 58.2133 311.669 58.4373 311.753 58.624C311.837 58.8013 311.973 58.9413 312.159 59.044C312.346 59.1373 312.589 59.184 312.887 59.184C312.962 59.184 313.046 59.1793 313.139 59.17C313.233 59.1607 313.321 59.1513 313.405 59.142V60.5C313.275 60.5187 313.13 60.5373 312.971 60.556C312.813 60.5747 312.673 60.584 312.551 60.584ZM314.949 60.5V52.926H316.531V60.5H314.949ZM314.949 51.89V50.07H316.531V51.89H314.949ZM322.035 60.668C321.307 60.668 320.639 60.4953 320.033 60.15C319.435 59.8047 318.959 59.3333 318.605 58.736C318.25 58.1387 318.073 57.462 318.073 56.706C318.073 55.9407 318.25 55.264 318.605 54.676C318.959 54.0787 319.435 53.612 320.033 53.276C320.63 52.9307 321.297 52.758 322.035 52.758C322.781 52.758 323.449 52.9307 324.037 53.276C324.634 53.612 325.105 54.0787 325.451 54.676C325.805 55.264 325.983 55.9407 325.983 56.706C325.983 57.4713 325.805 58.1527 325.451 58.75C325.096 59.3473 324.62 59.8187 324.023 60.164C323.425 60.5 322.763 60.668 322.035 60.668ZM322.035 59.198C322.483 59.198 322.879 59.0907 323.225 58.876C323.57 58.6613 323.841 58.3673 324.037 57.994C324.242 57.6113 324.345 57.182 324.345 56.706C324.345 56.23 324.242 55.8053 324.037 55.432C323.841 55.0587 323.57 54.7647 323.225 54.55C322.879 54.3353 322.483 54.228 322.035 54.228C321.596 54.228 321.199 54.3353 320.845 54.55C320.499 54.7647 320.224 55.0587 320.019 55.432C319.823 55.8053 319.725 56.23 319.725 56.706C319.725 57.182 319.823 57.6113 320.019 57.994C320.224 58.3673 320.499 58.6613 320.845 58.876C321.199 59.0907 321.596 59.198 322.035 59.198ZM327.527 60.5V52.926H329.039V54.41L328.857 54.214C329.044 53.738 329.342 53.3787 329.753 53.136C330.164 52.884 330.64 52.758 331.181 52.758C331.741 52.758 332.236 52.8793 332.665 53.122C333.094 53.3647 333.43 53.7007 333.673 54.13C333.916 54.5593 334.037 55.054 334.037 55.614V60.5H332.469V56.034C332.469 55.6513 332.399 55.3293 332.259 55.068C332.119 54.7973 331.918 54.592 331.657 54.452C331.405 54.3027 331.116 54.228 330.789 54.228C330.462 54.228 330.168 54.3027 329.907 54.452C329.655 54.592 329.459 54.7973 329.319 55.068C329.179 55.3387 329.109 55.6607 329.109 56.034V60.5H327.527Z" fill="#121D2F"/>
<circle cx="291.651" cy="108.5" r="22.5" fill="#EDFFF2" stroke="#0EB03B" stroke-width="3"/>
<path d="M281.151 109.158L288.809 116.815L304.151 101.5" stroke="#0EB03B" stroke-width="3" stroke-linecap="round" stroke-linejoin="round"/>
<path d="M518.903 40.668C518.249 40.668 517.643 40.5467 517.083 40.304C516.523 40.052 516.047 39.7113 515.655 39.282C515.263 38.8527 514.973 38.358 514.787 37.798L516.187 37.21C516.439 37.854 516.807 38.3487 517.293 38.694C517.778 39.0393 518.338 39.212 518.973 39.212C519.346 39.212 519.673 39.156 519.953 39.044C520.233 38.9227 520.447 38.7547 520.597 38.54C520.755 38.3253 520.835 38.078 520.835 37.798C520.835 37.4153 520.727 37.112 520.513 36.888C520.298 36.664 519.981 36.4867 519.561 36.356L517.601 35.74C516.817 35.4973 516.219 35.1287 515.809 34.634C515.398 34.13 515.193 33.542 515.193 32.87C515.193 32.282 515.337 31.7687 515.627 31.33C515.916 30.882 516.313 30.532 516.817 30.28C517.33 30.028 517.913 29.902 518.567 29.902C519.192 29.902 519.761 30.014 520.275 30.238C520.788 30.4527 521.227 30.7513 521.591 31.134C521.964 31.5167 522.235 31.96 522.403 32.464L521.031 33.066C520.825 32.5153 520.503 32.0907 520.065 31.792C519.635 31.4933 519.136 31.344 518.567 31.344C518.221 31.344 517.918 31.4047 517.657 31.526C517.395 31.638 517.19 31.806 517.041 32.03C516.901 32.2447 516.831 32.4967 516.831 32.786C516.831 33.122 516.938 33.4207 517.153 33.682C517.367 33.9433 517.694 34.1393 518.133 34.27L519.953 34.844C520.783 35.096 521.409 35.46 521.829 35.936C522.249 36.4027 522.459 36.986 522.459 37.686C522.459 38.2647 522.305 38.778 521.997 39.226C521.698 39.674 521.283 40.0287 520.751 40.29C520.219 40.542 519.603 40.668 518.903 40.668ZM527.715 40.668C526.959 40.668 526.287 40.4953 525.699 40.15C525.12 39.7953 524.668 39.3193 524.341 38.722C524.014 38.1153 523.851 37.4387 523.851 36.692C523.851 35.9267 524.014 35.25 524.341 34.662C524.677 34.074 525.125 33.612 525.685 33.276C526.245 32.9307 526.88 32.758 527.589 32.758C528.158 32.758 528.667 32.856 529.115 33.052C529.563 33.248 529.941 33.5187 530.249 33.864C530.557 34.2 530.79 34.5873 530.949 35.026C531.117 35.4647 531.201 35.9313 531.201 36.426C531.201 36.5473 531.196 36.6733 531.187 36.804C531.178 36.9347 531.159 37.056 531.131 37.168H525.097V35.908H530.235L529.479 36.482C529.572 36.0247 529.54 35.6187 529.381 35.264C529.232 34.9 528.998 34.6153 528.681 34.41C528.373 34.1953 528.009 34.088 527.589 34.088C527.169 34.088 526.796 34.1953 526.469 34.41C526.142 34.6153 525.89 34.914 525.713 35.306C525.536 35.6887 525.466 36.1553 525.503 36.706C525.456 37.2193 525.526 37.6673 525.713 38.05C525.909 38.4327 526.18 38.7313 526.525 38.946C526.88 39.1607 527.281 39.268 527.729 39.268C528.186 39.268 528.574 39.1653 528.891 38.96C529.218 38.7547 529.474 38.4887 529.661 38.162L530.949 38.792C530.8 39.1467 530.566 39.4687 530.249 39.758C529.941 40.038 529.568 40.262 529.129 40.43C528.7 40.5887 528.228 40.668 527.715 40.668ZM536.343 40.668C535.587 40.668 534.915 40.4953 534.327 40.15C533.748 39.7953 533.286 39.3193 532.941 38.722C532.605 38.1247 532.437 37.448 532.437 36.692C532.437 35.9453 532.605 35.2733 532.941 34.676C533.277 34.0787 533.739 33.612 534.327 33.276C534.915 32.9307 535.587 32.758 536.343 32.758C536.856 32.758 537.337 32.8513 537.785 33.038C538.233 33.2153 538.62 33.4627 538.947 33.78C539.283 34.0973 539.53 34.466 539.689 34.886L538.303 35.53C538.144 35.138 537.888 34.8253 537.533 34.592C537.188 34.3493 536.791 34.228 536.343 34.228C535.914 34.228 535.526 34.3353 535.181 34.55C534.845 34.7553 534.579 35.0493 534.383 35.432C534.187 35.8053 534.089 36.23 534.089 36.706C534.089 37.182 534.187 37.6113 534.383 37.994C534.579 38.3673 534.845 38.6613 535.181 38.876C535.526 39.0907 535.914 39.198 536.343 39.198C536.8 39.198 537.197 39.0813 537.533 38.848C537.878 38.6053 538.135 38.2833 538.303 37.882L539.689 38.54C539.54 38.9413 539.297 39.3053 538.961 39.632C538.634 39.9493 538.247 40.2013 537.799 40.388C537.351 40.5747 536.866 40.668 536.343 40.668ZM543.937 40.668C543.368 40.668 542.868 40.542 542.439 40.29C542.01 40.0287 541.674 39.6693 541.431 39.212C541.198 38.7453 541.081 38.2087 541.081 37.602V32.926H542.663V37.462C542.663 37.8073 542.733 38.1107 542.873 38.372C543.013 38.6333 543.209 38.8387 543.461 38.988C543.713 39.128 544.002 39.198 544.329 39.198C544.665 39.198 544.959 39.1233 545.211 38.974C545.463 38.8247 545.659 38.6147 545.799 38.344C545.948 38.0733 546.023 37.756 546.023 37.392V32.926H547.591V40.5H546.093V39.016L546.261 39.212C546.084 39.6787 545.79 40.038 545.379 40.29C544.968 40.542 544.488 40.668 543.937 40.668ZM549.438 40.5V32.926H550.95V34.452L550.81 34.228C550.978 33.7333 551.249 33.3787 551.622 33.164C551.996 32.94 552.444 32.828 552.966 32.828H553.428V34.27H552.77C552.248 34.27 551.823 34.4333 551.496 34.76C551.179 35.0773 551.02 35.5347 551.02 36.132V40.5H549.438ZM554.511 40.5V32.926H556.093V40.5H554.511ZM554.511 31.89V30.07H556.093V31.89H554.511ZM561.218 40.584C560.425 40.584 559.809 40.36 559.37 39.912C558.932 39.464 558.712 38.834 558.712 38.022V34.354H557.382V32.926H557.592C557.947 32.926 558.222 32.8233 558.418 32.618C558.614 32.4127 558.712 32.1327 558.712 31.778V31.19H560.294V32.926H562.016V34.354H560.294V37.952C560.294 38.2133 560.336 38.4373 560.42 38.624C560.504 38.8013 560.64 38.9413 560.826 39.044C561.013 39.1373 561.256 39.184 561.554 39.184C561.629 39.184 561.713 39.1793 561.806 39.17C561.9 39.1607 561.988 39.1513 562.072 39.142V40.5C561.942 40.5187 561.797 40.5373 561.638 40.556C561.48 40.5747 561.34 40.584 561.218 40.584ZM564.288 43.58C564.101 43.58 563.915 43.5613 563.728 43.524C563.551 43.496 563.387 43.4493 563.238 43.384V42.026C563.35 42.054 563.485 42.0773 563.644 42.096C563.803 42.124 563.957 42.138 564.106 42.138C564.545 42.138 564.867 42.04 565.072 41.844C565.287 41.6573 565.478 41.368 565.646 40.976L566.15 39.828L566.122 41.158L562.846 32.926H564.54L566.962 39.24H566.388L568.796 32.926H570.504L567.158 41.326C566.981 41.774 566.757 42.166 566.486 42.502C566.225 42.8473 565.912 43.1133 565.548 43.3C565.193 43.4867 564.773 43.58 564.288 43.58ZM577.688 40.668C576.96 40.668 576.293 40.4953 575.686 40.15C575.089 39.8047 574.613 39.3333 574.258 38.736C573.903 38.1387 573.726 37.462 573.726 36.706C573.726 35.9407 573.903 35.264 574.258 34.676C574.613 34.0787 575.089 33.612 575.686 33.276C576.283 32.9307 576.951 32.758 577.688 32.758C578.435 32.758 579.102 32.9307 579.69 33.276C580.287 33.612 580.759 34.0787 581.104 34.676C581.459 35.264 581.636 35.9407 581.636 36.706C581.636 37.4713 581.459 38.1527 581.104 38.75C580.749 39.3473 580.273 39.8187 579.676 40.164C579.079 40.5 578.416 40.668 577.688 40.668ZM577.688 39.198C578.136 39.198 578.533 39.0907 578.878 38.876C579.223 38.6613 579.494 38.3673 579.69 37.994C579.895 37.6113 579.998 37.182 579.998 36.706C579.998 36.23 579.895 35.8053 579.69 35.432C579.494 35.0587 579.223 34.7647 578.878 34.55C578.533 34.3353 578.136 34.228 577.688 34.228C577.249 34.228 576.853 34.3353 576.498 34.55C576.153 34.7647 575.877 35.0587 575.672 35.432C575.476 35.8053 575.378 36.23 575.378 36.706C575.378 37.182 575.476 37.6113 575.672 37.994C575.877 38.3673 576.153 38.6613 576.498 38.876C576.853 39.0907 577.249 39.198 577.688 39.198ZM583.829 40.5V34.354H582.429V32.926H583.829V32.534C583.829 31.9647 583.946 31.4887 584.179 31.106C584.413 30.714 584.735 30.4153 585.145 30.21C585.565 30.0047 586.046 29.902 586.587 29.902C586.69 29.902 586.807 29.9113 586.937 29.93C587.068 29.9393 587.175 29.9533 587.259 29.972V31.344C587.185 31.3253 587.101 31.316 587.007 31.316C586.914 31.3067 586.839 31.302 586.783 31.302C586.363 31.302 586.027 31.4 585.775 31.596C585.523 31.7827 585.397 32.0953 585.397 32.534V32.926H587.133V34.354H585.397V40.5H583.829ZM523.253 60.5V50.07H527.047C527.747 50.07 528.363 50.2007 528.895 50.462C529.437 50.714 529.857 51.0873 530.155 51.582C530.454 52.0673 530.603 52.6507 530.603 53.332C530.603 54.004 530.449 54.5827 530.141 55.068C529.843 55.5533 529.427 55.9267 528.895 56.188C528.363 56.4493 527.747 56.58 527.047 56.58H524.905V60.5H523.253ZM524.905 55.11H527.089C527.463 55.11 527.789 55.0353 528.069 54.886C528.349 54.7367 528.569 54.5313 528.727 54.27C528.886 53.9993 528.965 53.682 528.965 53.318C528.965 52.954 528.886 52.6413 528.727 52.38C528.569 52.1093 528.349 51.904 528.069 51.764C527.789 51.6147 527.463 51.54 527.089 51.54H524.905V55.11ZM533.926 60.668C533.413 60.668 532.96 60.5793 532.568 60.402C532.185 60.2153 531.887 59.9633 531.672 59.646C531.457 59.3193 531.35 58.9367 531.35 58.498C531.35 58.0873 531.439 57.7187 531.616 57.392C531.803 57.0653 532.087 56.79 532.47 56.566C532.853 56.342 533.333 56.1833 533.912 56.09L536.544 55.656V56.902L534.22 57.308C533.8 57.3827 533.492 57.518 533.296 57.714C533.1 57.9007 533.002 58.1433 533.002 58.442C533.002 58.7313 533.109 58.9693 533.324 59.156C533.548 59.3333 533.833 59.422 534.178 59.422C534.607 59.422 534.981 59.3287 535.298 59.142C535.625 58.9553 535.877 58.708 536.054 58.4C536.231 58.0827 536.32 57.7327 536.32 57.35V55.404C536.32 55.0307 536.18 54.7273 535.9 54.494C535.629 54.2513 535.265 54.13 534.808 54.13C534.388 54.13 534.019 54.242 533.702 54.466C533.394 54.6807 533.165 54.9607 533.016 55.306L531.7 54.648C531.84 54.2747 532.069 53.948 532.386 53.668C532.703 53.3787 533.072 53.1547 533.492 52.996C533.921 52.8373 534.374 52.758 534.85 52.758C535.447 52.758 535.975 52.87 536.432 53.094C536.899 53.318 537.258 53.6307 537.51 54.032C537.771 54.424 537.902 54.8813 537.902 55.404V60.5H536.39V59.128L536.712 59.17C536.535 59.478 536.306 59.744 536.026 59.968C535.755 60.192 535.443 60.3647 535.088 60.486C534.743 60.6073 534.355 60.668 533.926 60.668ZM540.424 63.58C540.237 63.58 540.05 63.5613 539.864 63.524C539.686 63.496 539.523 63.4493 539.374 63.384V62.026C539.486 62.054 539.621 62.0773 539.78 62.096C539.938 62.124 540.092 62.138 540.242 62.138C540.68 62.138 541.002 62.04 541.208 61.844C541.422 61.6573 541.614 61.368 541.782 60.976L542.286 59.828L542.258 61.158L538.982 52.926H540.676L543.098 59.24H542.524L544.932 52.926H546.64L543.294 61.326C543.116 61.774 542.892 62.166 542.622 62.502C542.36 62.8473 542.048 63.1133 541.684 63.3C541.329 63.4867 540.909 63.58 540.424 63.58ZM547.722 60.5V52.926H549.234V54.564L549.038 54.312C549.197 53.7987 549.486 53.4113 549.906 53.15C550.326 52.8887 550.807 52.758 551.348 52.758C551.955 52.758 552.492 52.9213 552.958 53.248C553.434 53.5653 553.752 53.99 553.91 54.522L553.462 54.564C553.686 53.9573 554.027 53.5047 554.484 53.206C554.951 52.9073 555.483 52.758 556.08 52.758C556.603 52.758 557.074 52.8793 557.494 53.122C557.924 53.3647 558.264 53.7007 558.516 54.13C558.768 54.5593 558.894 55.0493 558.894 55.6V60.5H557.312V56.034C557.312 55.6513 557.242 55.3293 557.102 55.068C556.972 54.7973 556.785 54.592 556.542 54.452C556.309 54.3027 556.034 54.228 555.716 54.228C555.399 54.228 555.119 54.3027 554.876 54.452C554.634 54.592 554.442 54.7973 554.302 55.068C554.162 55.3387 554.092 55.6607 554.092 56.034V60.5H552.524V56.034C552.524 55.6513 552.454 55.3293 552.314 55.068C552.184 54.7973 551.997 54.592 551.754 54.452C551.521 54.3027 551.241 54.228 550.914 54.228C550.597 54.228 550.317 54.3027 550.074 54.452C549.832 54.592 549.64 54.7973 549.5 55.068C549.37 55.3387 549.304 55.6607 549.304 56.034V60.5H547.722ZM564.144 60.668C563.388 60.668 562.716 60.4953 562.128 60.15C561.549 59.7953 561.096 59.3193 560.77 58.722C560.443 58.1153 560.28 57.4387 560.28 56.692C560.28 55.9267 560.443 55.25 560.77 54.662C561.106 54.074 561.554 53.612 562.114 53.276C562.674 52.9307 563.308 52.758 564.018 52.758C564.587 52.758 565.096 52.856 565.544 53.052C565.992 53.248 566.37 53.5187 566.678 53.864C566.986 54.2 567.219 54.5873 567.378 55.026C567.546 55.4647 567.63 55.9313 567.63 56.426C567.63 56.5473 567.625 56.6733 567.616 56.804C567.606 56.9347 567.588 57.056 567.56 57.168H561.526V55.908H566.664L565.908 56.482C566.001 56.0247 565.968 55.6187 565.81 55.264C565.66 54.9 565.427 54.6153 565.11 54.41C564.802 54.1953 564.438 54.088 564.018 54.088C563.598 54.088 563.224 54.1953 562.898 54.41C562.571 54.6153 562.319 54.914 562.142 55.306C561.964 55.6887 561.894 56.1553 561.932 56.706C561.885 57.2193 561.955 57.6673 562.142 58.05C562.338 58.4327 562.608 58.7313 562.954 58.946C563.308 59.1607 563.71 59.268 564.158 59.268C564.615 59.268 565.002 59.1653 565.32 58.96C565.646 58.7547 565.903 58.4887 566.09 58.162L567.378 58.792C567.228 59.1467 566.995 59.4687 566.678 59.758C566.37 60.038 565.996 60.262 565.558 60.43C565.128 60.5887 564.657 60.668 564.144 60.668ZM569.174 60.5V52.926H570.686V54.41L570.504 54.214C570.69 53.738 570.989 53.3787 571.4 53.136C571.81 52.884 572.286 52.758 572.828 52.758C573.388 52.758 573.882 52.8793 574.312 53.122C574.741 53.3647 575.077 53.7007 575.32 54.13C575.562 54.5593 575.684 55.054 575.684 55.614V60.5H574.116V56.034C574.116 55.6513 574.046 55.3293 573.906 55.068C573.766 54.7973 573.565 54.592 573.304 54.452C573.052 54.3027 572.762 54.228 572.436 54.228C572.109 54.228 571.815 54.3027 571.554 54.452C571.302 54.592 571.106 54.7973 570.966 55.068C570.826 55.3387 570.756 55.6607 570.756 56.034V60.5H569.174ZM580.653 60.584C579.859 60.584 579.243 60.36 578.805 59.912C578.366 59.464 578.147 58.834 578.147 58.022V54.354H576.817V52.926H577.027C577.381 52.926 577.657 52.8233 577.853 52.618C578.049 52.4127 578.147 52.1327 578.147 51.778V51.19H579.729V52.926H581.451V54.354H579.729V57.952C579.729 58.2133 579.771 58.4373 579.855 58.624C579.939 58.8013 580.074 58.9413 580.261 59.044C580.447 59.1373 580.69 59.184 580.989 59.184C581.063 59.184 581.147 59.1793 581.241 59.17C581.334 59.1607 581.423 59.1513 581.507 59.142V60.5C581.376 60.5187 581.231 60.5373 581.073 60.556C580.914 60.5747 580.774 60.584 580.653 60.584Z" fill="#121D2F"/>
<circle cx="552.151" cy="108.5" r="22.5" fill="#EDFFF2" stroke="#0EB03B" stroke-width="3"/>
<path d="M541.651 109.158L549.309 116.815L564.651 101.5" stroke="#0EB03B" stroke-width="3" stroke-linecap="round" stroke-linejoin="round"/>
<path d="M747.624 40.5V30.07H751.04C752.122 30.07 753.06 30.2893 753.854 30.728C754.656 31.1573 755.277 31.764 755.716 32.548C756.154 33.332 756.374 34.242 756.374 35.278C756.374 36.3047 756.154 37.2147 755.716 38.008C755.277 38.792 754.656 39.4033 753.854 39.842C753.06 40.2807 752.122 40.5 751.04 40.5H747.624ZM749.276 39.03H751.068C751.805 39.03 752.444 38.876 752.986 38.568C753.536 38.26 753.961 37.826 754.26 37.266C754.558 36.706 754.708 36.0433 754.708 35.278C754.708 34.5127 754.554 33.8547 754.246 33.304C753.947 32.744 753.527 32.31 752.986 32.002C752.444 31.694 751.805 31.54 751.068 31.54H749.276V39.03ZM761.402 40.668C760.646 40.668 759.974 40.4953 759.386 40.15C758.808 39.7953 758.355 39.3193 758.028 38.722C757.702 38.1153 757.538 37.4387 757.538 36.692C757.538 35.9267 757.702 35.25 758.028 34.662C758.364 34.074 758.812 33.612 759.372 33.276C759.932 32.9307 760.567 32.758 761.276 32.758C761.846 32.758 762.354 32.856 762.802 33.052C763.25 33.248 763.628 33.5187 763.936 33.864C764.244 34.2 764.478 34.5873 764.636 35.026C764.804 35.4647 764.888 35.9313 764.888 36.426C764.888 36.5473 764.884 36.6733 764.874 36.804C764.865 36.9347 764.846 37.056 764.818 37.168H758.784V35.908H763.922L763.166 36.482C763.26 36.0247 763.227 35.6187 763.068 35.264C762.919 34.9 762.686 34.6153 762.368 34.41C762.06 34.1953 761.696 34.088 761.276 34.088C760.856 34.088 760.483 34.1953 760.156 34.41C759.83 34.6153 759.578 34.914 759.4 35.306C759.223 35.6887 759.153 36.1553 759.19 36.706C759.144 37.2193 759.214 37.6673 759.4 38.05C759.596 38.4327 759.867 38.7313 760.212 38.946C760.567 39.1607 760.968 39.268 761.416 39.268C761.874 39.268 762.261 39.1653 762.578 38.96C762.905 38.7547 763.162 38.4887 763.348 38.162L764.636 38.792C764.487 39.1467 764.254 39.4687 763.936 39.758C763.628 40.038 763.255 40.262 762.816 40.43C762.387 40.5887 761.916 40.668 761.402 40.668ZM769.708 40.584C768.915 40.584 768.299 40.36 767.86 39.912C767.422 39.464 767.202 38.834 767.202 38.022V34.354H765.872V32.926H766.082C766.437 32.926 766.712 32.8233 766.908 32.618C767.104 32.4127 767.202 32.1327 767.202 31.778V31.19H768.784V32.926H770.506V34.354H768.784V37.952C768.784 38.2133 768.826 38.4373 768.91 38.624C768.994 38.8013 769.13 38.9413 769.316 39.044C769.503 39.1373 769.746 39.184 770.044 39.184C770.119 39.184 770.203 39.1793 770.296 39.17C770.39 39.1607 770.478 39.1513 770.562 39.142V40.5C770.432 40.5187 770.287 40.5373 770.128 40.556C769.97 40.5747 769.83 40.584 769.708 40.584ZM774.306 40.668C773.793 40.668 773.34 40.5793 772.948 40.402C772.565 40.2153 772.267 39.9633 772.052 39.646C771.837 39.3193 771.73 38.9367 771.73 38.498C771.73 38.0873 771.819 37.7187 771.996 37.392C772.183 37.0653 772.467 36.79 772.85 36.566C773.233 36.342 773.713 36.1833 774.292 36.09L776.924 35.656V36.902L774.6 37.308C774.18 37.3827 773.872 37.518 773.676 37.714C773.48 37.9007 773.382 38.1433 773.382 38.442C773.382 38.7313 773.489 38.9693 773.704 39.156C773.928 39.3333 774.213 39.422 774.558 39.422C774.987 39.422 775.361 39.3287 775.678 39.142C776.005 38.9553 776.257 38.708 776.434 38.4C776.611 38.0827 776.7 37.7327 776.7 37.35V35.404C776.7 35.0307 776.56 34.7273 776.28 34.494C776.009 34.2513 775.645 34.13 775.188 34.13C774.768 34.13 774.399 34.242 774.082 34.466C773.774 34.6807 773.545 34.9607 773.396 35.306L772.08 34.648C772.22 34.2747 772.449 33.948 772.766 33.668C773.083 33.3787 773.452 33.1547 773.872 32.996C774.301 32.8373 774.754 32.758 775.23 32.758C775.827 32.758 776.355 32.87 776.812 33.094C777.279 33.318 777.638 33.6307 777.89 34.032C778.151 34.424 778.282 34.8813 778.282 35.404V40.5H776.77V39.128L777.092 39.17C776.915 39.478 776.686 39.744 776.406 39.968C776.135 40.192 775.823 40.3647 775.468 40.486C775.123 40.6073 774.735 40.668 774.306 40.668ZM780.132 40.5V32.926H781.714V40.5H780.132ZM780.132 31.89V30.07H781.714V31.89H780.132ZM783.563 40.5V29.902H785.145V40.5H783.563ZM790.551 40.668C789.795 40.668 789.123 40.4953 788.535 40.15C787.956 39.7953 787.504 39.3193 787.177 38.722C786.85 38.1153 786.687 37.4387 786.687 36.692C786.687 35.9267 786.85 35.25 787.177 34.662C787.513 34.074 787.961 33.612 788.521 33.276C789.081 32.9307 789.716 32.758 790.425 32.758C790.994 32.758 791.503 32.856 791.951 33.052C792.399 33.248 792.777 33.5187 793.085 33.864C793.393 34.2 793.626 34.5873 793.785 35.026C793.953 35.4647 794.037 35.9313 794.037 36.426C794.037 36.5473 794.032 36.6733 794.023 36.804C794.014 36.9347 793.995 37.056 793.967 37.168H787.933V35.908H793.071L792.315 36.482C792.408 36.0247 792.376 35.6187 792.217 35.264C792.068 34.9 791.834 34.6153 791.517 34.41C791.209 34.1953 790.845 34.088 790.425 34.088C790.005 34.088 789.632 34.1953 789.305 34.41C788.978 34.6153 788.726 34.914 788.549 35.306C788.372 35.6887 788.302 36.1553 788.339 36.706C788.292 37.2193 788.362 37.6673 788.549 38.05C788.745 38.4327 789.016 38.7313 789.361 38.946C789.716 39.1607 790.117 39.268 790.565 39.268C791.022 39.268 791.41 39.1653 791.727 38.96C792.054 38.7547 792.31 38.4887 792.497 38.162L793.785 38.792C793.636 39.1467 793.402 39.4687 793.085 39.758C792.777 40.038 792.404 40.262 791.965 40.43C791.536 40.5887 791.064 40.668 790.551 40.668ZM799.081 40.668C798.353 40.668 797.7 40.4953 797.121 40.15C796.552 39.7953 796.099 39.3193 795.763 38.722C795.436 38.1247 795.273 37.4527 795.273 36.706C795.273 35.9593 795.441 35.2873 795.777 34.69C796.113 34.0927 796.566 33.6213 797.135 33.276C797.704 32.9307 798.348 32.758 799.067 32.758C799.674 32.758 800.21 32.8793 800.677 33.122C801.144 33.3647 801.512 33.7007 801.783 34.13L801.545 34.494V29.902H803.113V40.5H801.615V38.96L801.797 39.254C801.536 39.7113 801.162 40.0613 800.677 40.304C800.192 40.5467 799.66 40.668 799.081 40.668ZM799.235 39.198C799.674 39.198 800.066 39.0907 800.411 38.876C800.766 38.6613 801.041 38.3673 801.237 37.994C801.442 37.6113 801.545 37.182 801.545 36.706C801.545 36.23 801.442 35.8053 801.237 35.432C801.041 35.0587 800.766 34.7647 800.411 34.55C800.066 34.3353 799.674 34.228 799.235 34.228C798.796 34.228 798.4 34.3353 798.045 34.55C797.69 34.7647 797.415 35.0587 797.219 35.432C797.023 35.8053 796.925 36.23 796.925 36.706C796.925 37.182 797.023 37.6113 797.219 37.994C797.415 38.3673 797.686 38.6613 798.031 38.876C798.386 39.0907 798.787 39.198 799.235 39.198ZM810.585 40.668C809.969 40.668 809.428 40.556 808.961 40.332C808.494 40.0987 808.126 39.7767 807.855 39.366C807.594 38.946 807.463 38.4607 807.463 37.91C807.463 37.4433 807.547 37.0373 807.715 36.692C807.883 36.3373 808.093 36.0387 808.345 35.796C808.597 35.544 808.849 35.334 809.101 35.166C809.353 34.998 809.563 34.8673 809.731 34.774L810.585 34.298C810.865 34.1393 811.131 33.9713 811.383 33.794C811.635 33.6167 811.84 33.416 811.999 33.192C812.158 32.968 812.237 32.716 812.237 32.436C812.237 32.1 812.125 31.82 811.901 31.596C811.677 31.3627 811.397 31.246 811.061 31.246C810.725 31.246 810.445 31.358 810.221 31.582C809.997 31.806 809.885 32.0953 809.885 32.45C809.885 32.6927 809.941 32.9307 810.053 33.164C810.174 33.3973 810.314 33.6167 810.473 33.822C810.641 34.018 810.804 34.2047 810.963 34.382L816.563 40.5H814.589L809.787 35.334C809.563 35.0913 809.339 34.8347 809.115 34.564C808.9 34.284 808.718 33.976 808.569 33.64C808.429 33.304 808.359 32.9307 808.359 32.52C808.359 31.988 808.48 31.526 808.723 31.134C808.975 30.742 809.302 30.4387 809.703 30.224C810.114 30.0093 810.562 29.902 811.047 29.902C811.542 29.902 811.99 30.014 812.391 30.238C812.792 30.4527 813.11 30.7513 813.343 31.134C813.586 31.5167 813.707 31.9507 813.707 32.436C813.707 32.94 813.59 33.374 813.357 33.738C813.124 34.102 812.839 34.41 812.503 34.662C812.176 34.914 811.868 35.1287 811.579 35.306L810.725 35.81C810.501 35.9407 810.263 36.104 810.011 36.3C809.768 36.4867 809.563 36.7107 809.395 36.972C809.227 37.224 809.143 37.5273 809.143 37.882C809.143 38.3207 809.278 38.6613 809.549 38.904C809.829 39.1467 810.193 39.268 810.641 39.268C810.93 39.268 811.187 39.2213 811.411 39.128C811.635 39.0347 811.831 38.9133 811.999 38.764C812.176 38.6147 812.33 38.4513 812.461 38.274C812.601 38.0873 812.727 37.9147 812.839 37.756L814.463 35.376H816.157L814.281 38.288C814.132 38.512 813.954 38.764 813.749 39.044C813.544 39.3147 813.296 39.576 813.007 39.828C812.718 40.0707 812.372 40.2713 811.971 40.43C811.579 40.5887 811.117 40.668 810.585 40.668ZM824.756 40.668C823.981 40.668 823.291 40.5047 822.684 40.178C822.087 39.8513 821.615 39.4033 821.27 38.834C820.934 38.2647 820.766 37.616 820.766 36.888V30.07H822.418V36.818C822.418 37.2753 822.516 37.6813 822.712 38.036C822.917 38.3907 823.193 38.666 823.538 38.862C823.893 39.058 824.299 39.156 824.756 39.156C825.223 39.156 825.629 39.058 825.974 38.862C826.329 38.666 826.604 38.3907 826.8 38.036C827.005 37.6813 827.108 37.2753 827.108 36.818V30.07H828.746V36.888C828.746 37.616 828.578 38.2647 828.242 38.834C827.906 39.4033 827.435 39.8513 826.828 40.178C826.231 40.5047 825.54 40.668 824.756 40.668ZM833.463 40.668C832.688 40.668 832.007 40.4767 831.419 40.094C830.84 39.7113 830.434 39.198 830.201 38.554L831.419 37.98C831.624 38.4093 831.904 38.75 832.259 39.002C832.623 39.254 833.024 39.38 833.463 39.38C833.836 39.38 834.14 39.296 834.373 39.128C834.606 38.96 834.723 38.7313 834.723 38.442C834.723 38.2553 834.672 38.106 834.569 37.994C834.466 37.8727 834.336 37.7747 834.177 37.7C834.028 37.6253 833.874 37.5693 833.715 37.532L832.525 37.196C831.872 37.0093 831.382 36.7293 831.055 36.356C830.738 35.9733 830.579 35.53 830.579 35.026C830.579 34.5687 830.696 34.172 830.929 33.836C831.162 33.4907 831.484 33.2247 831.895 33.038C832.306 32.8513 832.768 32.758 833.281 32.758C833.972 32.758 834.588 32.9307 835.129 33.276C835.67 33.612 836.053 34.0833 836.277 34.69L835.059 35.264C834.91 34.9 834.672 34.6107 834.345 34.396C834.028 34.1813 833.668 34.074 833.267 34.074C832.922 34.074 832.646 34.158 832.441 34.326C832.236 34.4847 832.133 34.6947 832.133 34.956C832.133 35.1333 832.18 35.2827 832.273 35.404C832.366 35.516 832.488 35.6093 832.637 35.684C832.786 35.7493 832.94 35.8053 833.099 35.852L834.331 36.216C834.956 36.3933 835.437 36.6733 835.773 37.056C836.109 37.4293 836.277 37.8773 836.277 38.4C836.277 38.848 836.156 39.2447 835.913 39.59C835.68 39.926 835.353 40.192 834.933 40.388C834.513 40.5747 834.023 40.668 833.463 40.668ZM841.383 40.668C840.627 40.668 839.955 40.4953 839.367 40.15C838.788 39.7953 838.336 39.3193 838.009 38.722C837.682 38.1153 837.519 37.4387 837.519 36.692C837.519 35.9267 837.682 35.25 838.009 34.662C838.345 34.074 838.793 33.612 839.353 33.276C839.913 32.9307 840.548 32.758 841.257 32.758C841.826 32.758 842.335 32.856 842.783 33.052C843.231 33.248 843.609 33.5187 843.917 33.864C844.225 34.2 844.458 34.5873 844.617 35.026C844.785 35.4647 844.869 35.9313 844.869 36.426C844.869 36.5473 844.864 36.6733 844.855 36.804C844.846 36.9347 844.827 37.056 844.799 37.168H838.765V35.908H843.903L843.147 36.482C843.24 36.0247 843.208 35.6187 843.049 35.264C842.9 34.9 842.666 34.6153 842.349 34.41C842.041 34.1953 841.677 34.088 841.257 34.088C840.837 34.088 840.464 34.1953 840.137 34.41C839.81 34.6153 839.558 34.914 839.381 35.306C839.204 35.6887 839.134 36.1553 839.171 36.706C839.124 37.2193 839.194 37.6673 839.381 38.05C839.577 38.4327 839.848 38.7313 840.193 38.946C840.548 39.1607 840.949 39.268 841.397 39.268C841.854 39.268 842.242 39.1653 842.559 38.96C842.886 38.7547 843.142 38.4887 843.329 38.162L844.617 38.792C844.468 39.1467 844.234 39.4687 843.917 39.758C843.609 40.038 843.236 40.262 842.797 40.43C842.368 40.5887 841.896 40.668 841.383 40.668ZM847.267 40.5V34.354H845.867V32.926H847.267V32.534C847.267 31.9647 847.384 31.4887 847.617 31.106C847.85 30.714 848.172 30.4153 848.583 30.21C849.003 30.0047 849.484 29.902 850.025 29.902C850.128 29.902 850.244 29.9113 850.375 29.93C850.506 29.9393 850.613 29.9533 850.697 29.972V31.344C850.622 31.3253 850.538 31.316 850.445 31.316C850.352 31.3067 850.277 31.302 850.221 31.302C849.801 31.302 849.465 31.4 849.213 31.596C848.961 31.7827 848.835 32.0953 848.835 32.534V32.926H850.571V34.354H848.835V40.5H847.267ZM854.748 40.668C854.178 40.668 853.679 40.542 853.25 40.29C852.82 40.0287 852.484 39.6693 852.242 39.212C852.008 38.7453 851.892 38.2087 851.892 37.602V32.926H853.474V37.462C853.474 37.8073 853.544 38.1107 853.684 38.372C853.824 38.6333 854.02 38.8387 854.272 38.988C854.524 39.128 854.813 39.198 855.14 39.198C855.476 39.198 855.77 39.1233 856.022 38.974C856.274 38.8247 856.47 38.6147 856.61 38.344C856.759 38.0733 856.834 37.756 856.834 37.392V32.926H858.402V40.5H856.904V39.016L857.072 39.212C856.894 39.6787 856.6 40.038 856.19 40.29C855.779 40.542 855.298 40.668 854.748 40.668ZM860.249 40.5V29.902H861.831V40.5H860.249ZM773.729 60.5L777.397 50.07H779.441L783.109 60.5H781.345L780.547 58.162H776.305L775.493 60.5H773.729ZM776.781 56.692H780.043L778.195 51.232H778.657L776.781 56.692ZM784.192 60.5V52.926H785.704V54.41L785.522 54.214C785.709 53.738 786.008 53.3787 786.418 53.136C786.829 52.884 787.305 52.758 787.846 52.758C788.406 52.758 788.901 52.8793 789.33 53.122C789.76 53.3647 790.096 53.7007 790.338 54.13C790.581 54.5593 790.702 55.054 790.702 55.614V60.5H789.134V56.034C789.134 55.6513 789.064 55.3293 788.924 55.068C788.784 54.7973 788.584 54.592 788.322 54.452C788.07 54.3027 787.781 54.228 787.454 54.228C787.128 54.228 786.834 54.3027 786.572 54.452C786.32 54.592 786.124 54.7973 785.984 55.068C785.844 55.3387 785.774 55.6607 785.774 56.034V60.5H784.192ZM794.663 60.668C794.15 60.668 793.697 60.5793 793.305 60.402C792.923 60.2153 792.624 59.9633 792.409 59.646C792.195 59.3193 792.087 58.9367 792.087 58.498C792.087 58.0873 792.176 57.7187 792.353 57.392C792.54 57.0653 792.825 56.79 793.207 56.566C793.59 56.342 794.071 56.1833 794.649 56.09L797.281 55.656V56.902L794.957 57.308C794.537 57.3827 794.229 57.518 794.033 57.714C793.837 57.9007 793.739 58.1433 793.739 58.442C793.739 58.7313 793.847 58.9693 794.061 59.156C794.285 59.3333 794.57 59.422 794.915 59.422C795.345 59.422 795.718 59.3287 796.035 59.142C796.362 58.9553 796.614 58.708 796.791 58.4C796.969 58.0827 797.057 57.7327 797.057 57.35V55.404C797.057 55.0307 796.917 54.7273 796.637 54.494C796.367 54.2513 796.003 54.13 795.545 54.13C795.125 54.13 794.757 54.242 794.439 54.466C794.131 54.6807 793.903 54.9607 793.753 55.306L792.437 54.648C792.577 54.2747 792.806 53.948 793.123 53.668C793.441 53.3787 793.809 53.1547 794.229 52.996C794.659 52.8373 795.111 52.758 795.587 52.758C796.185 52.758 796.712 52.87 797.169 53.094C797.636 53.318 797.995 53.6307 798.247 54.032C798.509 54.424 798.639 54.8813 798.639 55.404V60.5H797.127V59.128L797.449 59.17C797.272 59.478 797.043 59.744 796.763 59.968C796.493 60.192 796.18 60.3647 795.825 60.486C795.48 60.6073 795.093 60.668 794.663 60.668ZM800.489 60.5V49.902H802.071V60.5H800.489ZM804.593 63.58C804.406 63.58 804.219 63.5613 804.033 63.524C803.855 63.496 803.692 63.4493 803.543 63.384V62.026C803.655 62.054 803.79 62.0773 803.949 62.096C804.107 62.124 804.261 62.138 804.411 62.138C804.849 62.138 805.171 62.04 805.377 61.844C805.591 61.6573 805.783 61.368 805.951 60.976L806.455 59.828L806.427 61.158L803.151 52.926H804.845L807.267 59.24H806.693L809.101 52.926H810.809L807.463 61.326C807.285 61.774 807.061 62.166 806.791 62.502C806.529 62.8473 806.217 63.1133 805.853 63.3C805.498 63.4867 805.078 63.58 804.593 63.58ZM815.167 60.584C814.374 60.584 813.758 60.36 813.319 59.912C812.881 59.464 812.661 58.834 812.661 58.022V54.354H811.331V52.926H811.541C811.896 52.926 812.171 52.8233 812.367 52.618C812.563 52.4127 812.661 52.1327 812.661 51.778V51.19H814.243V52.926H815.965V54.354H814.243V57.952C814.243 58.2133 814.285 58.4373 814.369 58.624C814.453 58.8013 814.589 58.9413 814.775 59.044C814.962 59.1373 815.205 59.184 815.503 59.184C815.578 59.184 815.662 59.1793 815.755 59.17C815.849 59.1607 815.937 59.1513 816.021 59.142V60.5C815.891 60.5187 815.746 60.5373 815.587 60.556C815.429 60.5747 815.289 60.584 815.167 60.584ZM817.565 60.5V52.926H819.147V60.5H817.565ZM817.565 51.89V50.07H819.147V51.89H817.565ZM824.595 60.668C823.839 60.668 823.167 60.4953 822.579 60.15C822 59.7953 821.538 59.3193 821.193 58.722C820.857 58.1247 820.689 57.448 820.689 56.692C820.689 55.9453 820.857 55.2733 821.193 54.676C821.529 54.0787 821.991 53.612 822.579 53.276C823.167 52.9307 823.839 52.758 824.595 52.758C825.108 52.758 825.589 52.8513 826.037 53.038C826.485 53.2153 826.872 53.4627 827.199 53.78C827.535 54.0973 827.782 54.466 827.941 54.886L826.555 55.53C826.396 55.138 826.14 54.8253 825.785 54.592C825.44 54.3493 825.043 54.228 824.595 54.228C824.166 54.228 823.778 54.3353 823.433 54.55C823.097 54.7553 822.831 55.0493 822.635 55.432C822.439 55.8053 822.341 56.23 822.341 56.706C822.341 57.182 822.439 57.6113 822.635 57.994C822.831 58.3673 823.097 58.6613 823.433 58.876C823.778 59.0907 824.166 59.198 824.595 59.198C825.052 59.198 825.449 59.0813 825.785 58.848C826.13 58.6053 826.387 58.2833 826.555 57.882L827.941 58.54C827.792 58.9413 827.549 59.3053 827.213 59.632C826.886 59.9493 826.499 60.2013 826.051 60.388C825.603 60.5747 825.118 60.668 824.595 60.668ZM832.287 60.668C831.512 60.668 830.831 60.4767 830.243 60.094C829.664 59.7113 829.258 59.198 829.025 58.554L830.243 57.98C830.448 58.4093 830.728 58.75 831.083 59.002C831.447 59.254 831.848 59.38 832.287 59.38C832.66 59.38 832.964 59.296 833.197 59.128C833.43 58.96 833.547 58.7313 833.547 58.442C833.547 58.2553 833.496 58.106 833.393 57.994C833.29 57.8727 833.16 57.7747 833.001 57.7C832.852 57.6253 832.698 57.5693 832.539 57.532L831.349 57.196C830.696 57.0093 830.206 56.7293 829.879 56.356C829.562 55.9733 829.403 55.53 829.403 55.026C829.403 54.5687 829.52 54.172 829.753 53.836C829.986 53.4907 830.308 53.2247 830.719 53.038C831.13 52.8513 831.592 52.758 832.105 52.758C832.796 52.758 833.412 52.9307 833.953 53.276C834.494 53.612 834.877 54.0833 835.101 54.69L833.883 55.264C833.734 54.9 833.496 54.6107 833.169 54.396C832.852 54.1813 832.492 54.074 832.091 54.074C831.746 54.074 831.47 54.158 831.265 54.326C831.06 54.4847 830.957 54.6947 830.957 54.956C830.957 55.1333 831.004 55.2827 831.097 55.404C831.19 55.516 831.312 55.6093 831.461 55.684C831.61 55.7493 831.764 55.8053 831.923 55.852L833.155 56.216C833.78 56.3933 834.261 56.6733 834.597 57.056C834.933 57.4293 835.101 57.8773 835.101 58.4C835.101 58.848 834.98 59.2447 834.737 59.59C834.504 59.926 834.177 60.192 833.757 60.388C833.337 60.5747 832.847 60.668 832.287 60.668Z" fill="#121D2F"/>
<circle cx="804.651" cy="108.5" r="22.5" fill="#EDFFF2" stroke="#0EB03B" stroke-width="3"/>
<path d="M794.151 109.158L801.809 116.815L817.151 101.5" stroke="#0EB03B" stroke-width="3" stroke-linecap="round" stroke-linejoin="round"/>
<path d="M1020.25 40.5V30.07H1021.9V34.662H1026.73V30.07H1028.37V40.5H1026.73V36.132H1021.9V40.5H1020.25ZM1033.93 40.668C1033.17 40.668 1032.5 40.4953 1031.91 40.15C1031.34 39.7953 1030.88 39.3193 1030.56 38.722C1030.23 38.1153 1030.07 37.4387 1030.07 36.692C1030.07 35.9267 1030.23 35.25 1030.56 34.662C1030.89 34.074 1031.34 33.612 1031.9 33.276C1032.46 32.9307 1033.09 32.758 1033.8 32.758C1034.37 32.758 1034.88 32.856 1035.33 33.052C1035.78 33.248 1036.16 33.5187 1036.46 33.864C1036.77 34.2 1037.01 34.5873 1037.16 35.026C1037.33 35.4647 1037.42 35.9313 1037.42 36.426C1037.42 36.5473 1037.41 36.6733 1037.4 36.804C1037.39 36.9347 1037.37 37.056 1037.35 37.168H1031.31V35.908H1036.45L1035.69 36.482C1035.79 36.0247 1035.75 35.6187 1035.6 35.264C1035.45 34.9 1035.21 34.6153 1034.9 34.41C1034.59 34.1953 1034.22 34.088 1033.8 34.088C1033.38 34.088 1033.01 34.1953 1032.68 34.41C1032.36 34.6153 1032.11 34.914 1031.93 35.306C1031.75 35.6887 1031.68 36.1553 1031.72 36.706C1031.67 37.2193 1031.74 37.6673 1031.93 38.05C1032.12 38.4327 1032.39 38.7313 1032.74 38.946C1033.09 39.1607 1033.5 39.268 1033.94 39.268C1034.4 39.268 1034.79 39.1653 1035.11 38.96C1035.43 38.7547 1035.69 38.4887 1035.88 38.162L1037.16 38.792C1037.01 39.1467 1036.78 39.4687 1036.46 39.758C1036.16 40.038 1035.78 40.262 1035.34 40.43C1034.91 40.5887 1034.44 40.668 1033.93 40.668ZM1038.96 40.5V29.902H1040.54V40.5H1038.96ZM1042.39 43.3V32.926H1043.9V34.494L1043.72 34.13C1044 33.7007 1044.37 33.3647 1044.84 33.122C1045.31 32.8793 1045.84 32.758 1046.44 32.758C1047.16 32.758 1047.8 32.9307 1048.37 33.276C1048.95 33.6213 1049.4 34.0927 1049.73 34.69C1050.06 35.2873 1050.23 35.9593 1050.23 36.706C1050.23 37.4527 1050.06 38.1247 1049.73 38.722C1049.4 39.3193 1048.95 39.7953 1048.38 40.15C1047.81 40.4953 1047.17 40.668 1046.44 40.668C1045.85 40.668 1045.31 40.5467 1044.83 40.304C1044.35 40.0613 1043.98 39.7113 1043.72 39.254L1043.97 38.96V43.3H1042.39ZM1046.28 39.198C1046.73 39.198 1047.13 39.0907 1047.47 38.876C1047.82 38.6613 1048.09 38.3673 1048.29 37.994C1048.49 37.6113 1048.59 37.182 1048.59 36.706C1048.59 36.23 1048.49 35.8053 1048.29 35.432C1048.09 35.0587 1047.82 34.7647 1047.47 34.55C1047.13 34.3353 1046.73 34.228 1046.28 34.228C1045.84 34.228 1045.45 34.3353 1045.09 34.55C1044.75 34.7647 1044.47 35.0587 1044.27 35.432C1044.07 35.8053 1043.97 36.23 1043.97 36.706C1043.97 37.182 1044.07 37.6113 1044.27 37.994C1044.47 38.3673 1044.75 38.6613 1045.09 38.876C1045.45 39.0907 1045.84 39.198 1046.28 39.198ZM1052.42 40.5V34.354H1051.02V32.926H1052.42V32.534C1052.42 31.9647 1052.54 31.4887 1052.77 31.106C1053 30.714 1053.32 30.4153 1053.74 30.21C1054.16 30.0047 1054.64 29.902 1055.18 29.902C1055.28 29.902 1055.4 29.9113 1055.53 29.93C1055.66 29.9393 1055.77 29.9533 1055.85 29.972V31.344C1055.77 31.3253 1055.69 31.316 1055.6 31.316C1055.5 31.3067 1055.43 31.302 1055.37 31.302C1054.95 31.302 1054.62 31.4 1054.37 31.596C1054.11 31.7827 1053.99 32.0953 1053.99 32.534V32.926H1055.72V34.354H1053.99V40.5H1052.42ZM1059.9 40.668C1059.33 40.668 1058.83 40.542 1058.4 40.29C1057.97 40.0287 1057.64 39.6693 1057.39 39.212C1057.16 38.7453 1057.04 38.2087 1057.04 37.602V32.926H1058.63V37.462C1058.63 37.8073 1058.7 38.1107 1058.84 38.372C1058.98 38.6333 1059.17 38.8387 1059.42 38.988C1059.68 39.128 1059.97 39.198 1060.29 39.198C1060.63 39.198 1060.92 39.1233 1061.17 38.974C1061.43 38.8247 1061.62 38.6147 1061.76 38.344C1061.91 38.0733 1061.99 37.756 1061.99 37.392V32.926H1063.55V40.5H1062.06V39.016L1062.22 39.212C1062.05 39.6787 1061.75 40.038 1061.34 40.29C1060.93 40.542 1060.45 40.668 1059.9 40.668ZM1065.4 40.5V29.902H1066.98V40.5H1065.4ZM1073.55 40.668C1073.03 40.668 1072.58 40.5793 1072.19 40.402C1071.81 40.2153 1071.51 39.9633 1071.29 39.646C1071.08 39.3193 1070.97 38.9367 1070.97 38.498C1070.97 38.0873 1071.06 37.7187 1071.24 37.392C1071.42 37.0653 1071.71 36.79 1072.09 36.566C1072.47 36.342 1072.96 36.1833 1073.53 36.09L1076.17 35.656V36.902L1073.84 37.308C1073.42 37.3827 1073.11 37.518 1072.92 37.714C1072.72 37.9007 1072.62 38.1433 1072.62 38.442C1072.62 38.7313 1072.73 38.9693 1072.95 39.156C1073.17 39.3333 1073.45 39.422 1073.8 39.422C1074.23 39.422 1074.6 39.3287 1074.92 39.142C1075.25 38.9553 1075.5 38.708 1075.68 38.4C1075.85 38.0827 1075.94 37.7327 1075.94 37.35V35.404C1075.94 35.0307 1075.8 34.7273 1075.52 34.494C1075.25 34.2513 1074.89 34.13 1074.43 34.13C1074.01 34.13 1073.64 34.242 1073.32 34.466C1073.02 34.6807 1072.79 34.9607 1072.64 35.306L1071.32 34.648C1071.46 34.2747 1071.69 33.948 1072.01 33.668C1072.33 33.3787 1072.69 33.1547 1073.11 32.996C1073.54 32.8373 1074 32.758 1074.47 32.758C1075.07 32.758 1075.6 32.87 1076.05 33.094C1076.52 33.318 1076.88 33.6307 1077.13 34.032C1077.39 34.424 1077.52 34.8813 1077.52 35.404V40.5H1076.01V39.128L1076.33 39.17C1076.16 39.478 1075.93 39.744 1075.65 39.968C1075.38 40.192 1075.06 40.3647 1074.71 40.486C1074.36 40.6073 1073.98 40.668 1073.55 40.668ZM1079.37 40.5V32.926H1080.89V34.41L1080.7 34.214C1080.89 33.738 1081.19 33.3787 1081.6 33.136C1082.01 32.884 1082.49 32.758 1083.03 32.758C1083.59 32.758 1084.08 32.8793 1084.51 33.122C1084.94 33.3647 1085.28 33.7007 1085.52 34.13C1085.76 34.5593 1085.88 35.054 1085.88 35.614V40.5H1084.32V36.034C1084.32 35.6513 1084.25 35.3293 1084.11 35.068C1083.97 34.7973 1083.77 34.592 1083.5 34.452C1083.25 34.3027 1082.96 34.228 1082.64 34.228C1082.31 34.228 1082.02 34.3027 1081.75 34.452C1081.5 34.592 1081.31 34.7973 1081.17 35.068C1081.03 35.3387 1080.96 35.6607 1080.96 36.034V40.5H1079.37ZM1091.08 40.668C1090.35 40.668 1089.7 40.4953 1089.12 40.15C1088.55 39.7953 1088.09 39.3193 1087.76 38.722C1087.43 38.1247 1087.27 37.4527 1087.27 36.706C1087.27 35.9593 1087.44 35.2873 1087.77 34.69C1088.11 34.0927 1088.56 33.6213 1089.13 33.276C1089.7 32.9307 1090.34 32.758 1091.06 32.758C1091.67 32.758 1092.21 32.8793 1092.67 33.122C1093.14 33.3647 1093.51 33.7007 1093.78 34.13L1093.54 34.494V29.902H1095.11V40.5H1093.61V38.96L1093.79 39.254C1093.53 39.7113 1093.16 40.0613 1092.67 40.304C1092.19 40.5467 1091.66 40.668 1091.08 40.668ZM1091.23 39.198C1091.67 39.198 1092.06 39.0907 1092.41 38.876C1092.76 38.6613 1093.04 38.3673 1093.23 37.994C1093.44 37.6113 1093.54 37.182 1093.54 36.706C1093.54 36.23 1093.44 35.8053 1093.23 35.432C1093.04 35.0587 1092.76 34.7647 1092.41 34.55C1092.06 34.3353 1091.67 34.228 1091.23 34.228C1090.79 34.228 1090.4 34.3353 1090.04 34.55C1089.69 34.7647 1089.41 35.0587 1089.21 35.432C1089.02 35.8053 1088.92 36.23 1088.92 36.706C1088.92 37.182 1089.02 37.6113 1089.21 37.994C1089.41 38.3673 1089.68 38.6613 1090.03 38.876C1090.38 39.0907 1090.78 39.198 1091.23 39.198ZM1099.56 40.5V30.07H1102.97C1104.06 30.07 1104.99 30.2893 1105.79 30.728C1106.59 31.1573 1107.21 31.764 1107.65 32.548C1108.09 33.332 1108.31 34.242 1108.31 35.278C1108.31 36.3047 1108.09 37.2147 1107.65 38.008C1107.21 38.792 1106.59 39.4033 1105.79 39.842C1104.99 40.2807 1104.06 40.5 1102.97 40.5H1099.56ZM1101.21 39.03H1103C1103.74 39.03 1104.38 38.876 1104.92 38.568C1105.47 38.26 1105.89 37.826 1106.19 37.266C1106.49 36.706 1106.64 36.0433 1106.64 35.278C1106.64 34.5127 1106.49 33.8547 1106.18 33.304C1105.88 32.744 1105.46 32.31 1104.92 32.002C1104.38 31.694 1103.74 31.54 1103 31.54H1101.21V39.03ZM1113.34 40.668C1112.58 40.668 1111.91 40.4953 1111.32 40.15C1110.74 39.7953 1110.29 39.3193 1109.96 38.722C1109.64 38.1153 1109.47 37.4387 1109.47 36.692C1109.47 35.9267 1109.64 35.25 1109.96 34.662C1110.3 34.074 1110.75 33.612 1111.31 33.276C1111.87 32.9307 1112.5 32.758 1113.21 32.758C1113.78 32.758 1114.29 32.856 1114.74 33.052C1115.18 33.248 1115.56 33.5187 1115.87 33.864C1116.18 34.2 1116.41 34.5873 1116.57 35.026C1116.74 35.4647 1116.82 35.9313 1116.82 36.426C1116.82 36.5473 1116.82 36.6733 1116.81 36.804C1116.8 36.9347 1116.78 37.056 1116.75 37.168H1110.72V35.908H1115.86L1115.1 36.482C1115.19 36.0247 1115.16 35.6187 1115 35.264C1114.85 34.9 1114.62 34.6153 1114.3 34.41C1113.99 34.1953 1113.63 34.088 1113.21 34.088C1112.79 34.088 1112.42 34.1953 1112.09 34.41C1111.76 34.6153 1111.51 34.914 1111.33 35.306C1111.16 35.6887 1111.09 36.1553 1111.12 36.706C1111.08 37.2193 1111.15 37.6673 1111.33 38.05C1111.53 38.4327 1111.8 38.7313 1112.15 38.946C1112.5 39.1607 1112.9 39.268 1113.35 39.268C1113.81 39.268 1114.19 39.1653 1114.51 38.96C1114.84 38.7547 1115.1 38.4887 1115.28 38.162L1116.57 38.792C1116.42 39.1467 1116.19 39.4687 1115.87 39.758C1115.56 40.038 1115.19 40.262 1114.75 40.43C1114.32 40.5887 1113.85 40.668 1113.34 40.668ZM1121.87 40.668C1121.14 40.668 1120.48 40.4953 1119.91 40.15C1119.34 39.7953 1118.88 39.3193 1118.55 38.722C1118.22 38.1247 1118.06 37.4527 1118.06 36.706C1118.06 35.9593 1118.23 35.2873 1118.56 34.69C1118.9 34.0927 1119.35 33.6213 1119.92 33.276C1120.49 32.9307 1121.13 32.758 1121.85 32.758C1122.46 32.758 1123 32.8793 1123.46 33.122C1123.93 33.3647 1124.3 33.7007 1124.57 34.13L1124.33 34.494V29.902H1125.9V40.5H1124.4V38.96L1124.58 39.254C1124.32 39.7113 1123.95 40.0613 1123.46 40.304C1122.98 40.5467 1122.44 40.668 1121.87 40.668ZM1122.02 39.198C1122.46 39.198 1122.85 39.0907 1123.2 38.876C1123.55 38.6613 1123.83 38.3673 1124.02 37.994C1124.23 37.6113 1124.33 37.182 1124.33 36.706C1124.33 36.23 1124.23 35.8053 1124.02 35.432C1123.83 35.0587 1123.55 34.7647 1123.2 34.55C1122.85 34.3353 1122.46 34.228 1122.02 34.228C1121.58 34.228 1121.18 34.3353 1120.83 34.55C1120.48 34.7647 1120.2 35.0587 1120 35.432C1119.81 35.8053 1119.71 36.23 1119.71 36.706C1119.71 37.182 1119.81 37.6113 1120 37.994C1120.2 38.3673 1120.47 38.6613 1120.82 38.876C1121.17 39.0907 1121.57 39.198 1122.02 39.198ZM1127.74 40.5V32.926H1129.33V40.5H1127.74ZM1127.74 31.89V30.07H1129.33V31.89H1127.74ZM1134.77 40.668C1134.02 40.668 1133.35 40.4953 1132.76 40.15C1132.18 39.7953 1131.72 39.3193 1131.37 38.722C1131.04 38.1247 1130.87 37.448 1130.87 36.692C1130.87 35.9453 1131.04 35.2733 1131.37 34.676C1131.71 34.0787 1132.17 33.612 1132.76 33.276C1133.35 32.9307 1134.02 32.758 1134.77 32.758C1135.29 32.758 1135.77 32.8513 1136.22 33.038C1136.66 33.2153 1137.05 33.4627 1137.38 33.78C1137.71 34.0973 1137.96 34.466 1138.12 34.886L1136.73 35.53C1136.58 35.138 1136.32 34.8253 1135.96 34.592C1135.62 34.3493 1135.22 34.228 1134.77 34.228C1134.35 34.228 1133.96 34.3353 1133.61 34.55C1133.28 34.7553 1133.01 35.0493 1132.81 35.432C1132.62 35.8053 1132.52 36.23 1132.52 36.706C1132.52 37.182 1132.62 37.6113 1132.81 37.994C1133.01 38.3673 1133.28 38.6613 1133.61 38.876C1133.96 39.0907 1134.35 39.198 1134.77 39.198C1135.23 39.198 1135.63 39.0813 1135.96 38.848C1136.31 38.6053 1136.57 38.2833 1136.73 37.882L1138.12 38.54C1137.97 38.9413 1137.73 39.3053 1137.39 39.632C1137.07 39.9493 1136.68 40.2013 1136.23 40.388C1135.78 40.5747 1135.3 40.668 1134.77 40.668ZM1141.87 40.668C1141.35 40.668 1140.9 40.5793 1140.51 40.402C1140.13 40.2153 1139.83 39.9633 1139.61 39.646C1139.4 39.3193 1139.29 38.9367 1139.29 38.498C1139.29 38.0873 1139.38 37.7187 1139.56 37.392C1139.74 37.0653 1140.03 36.79 1140.41 36.566C1140.79 36.342 1141.27 36.1833 1141.85 36.09L1144.48 35.656V36.902L1142.16 37.308C1141.74 37.3827 1141.43 37.518 1141.24 37.714C1141.04 37.9007 1140.94 38.1433 1140.94 38.442C1140.94 38.7313 1141.05 38.9693 1141.26 39.156C1141.49 39.3333 1141.77 39.422 1142.12 39.422C1142.55 39.422 1142.92 39.3287 1143.24 39.142C1143.57 38.9553 1143.82 38.708 1143.99 38.4C1144.17 38.0827 1144.26 37.7327 1144.26 37.35V35.404C1144.26 35.0307 1144.12 34.7273 1143.84 34.494C1143.57 34.2513 1143.21 34.13 1142.75 34.13C1142.33 34.13 1141.96 34.242 1141.64 34.466C1141.33 34.6807 1141.11 34.9607 1140.96 35.306L1139.64 34.648C1139.78 34.2747 1140.01 33.948 1140.33 33.668C1140.64 33.3787 1141.01 33.1547 1141.43 32.996C1141.86 32.8373 1142.31 32.758 1142.79 32.758C1143.39 32.758 1143.92 32.87 1144.37 33.094C1144.84 33.318 1145.2 33.6307 1145.45 34.032C1145.71 34.424 1145.84 34.8813 1145.84 35.404V40.5H1144.33V39.128L1144.65 39.17C1144.48 39.478 1144.25 39.744 1143.97 39.968C1143.7 40.192 1143.38 40.3647 1143.03 40.486C1142.68 40.6073 1142.3 40.668 1141.87 40.668ZM1150.83 40.584C1150.04 40.584 1149.42 40.36 1148.98 39.912C1148.54 39.464 1148.33 38.834 1148.33 38.022V34.354H1147V32.926H1147.21C1147.56 32.926 1147.84 32.8233 1148.03 32.618C1148.23 32.4127 1148.33 32.1327 1148.33 31.778V31.19H1149.91V32.926H1151.63V34.354H1149.91V37.952C1149.91 38.2133 1149.95 38.4373 1150.03 38.624C1150.12 38.8013 1150.25 38.9413 1150.44 39.044C1150.63 39.1373 1150.87 39.184 1151.17 39.184C1151.24 39.184 1151.33 39.1793 1151.42 39.17C1151.51 39.1607 1151.6 39.1513 1151.69 39.142V40.5C1151.55 40.5187 1151.41 40.5373 1151.25 40.556C1151.09 40.5747 1150.95 40.584 1150.83 40.584ZM1156.65 40.668C1155.89 40.668 1155.22 40.4953 1154.63 40.15C1154.05 39.7953 1153.6 39.3193 1153.27 38.722C1152.95 38.1153 1152.78 37.4387 1152.78 36.692C1152.78 35.9267 1152.95 35.25 1153.27 34.662C1153.61 34.074 1154.06 33.612 1154.62 33.276C1155.18 32.9307 1155.81 32.758 1156.52 32.758C1157.09 32.758 1157.6 32.856 1158.05 33.052C1158.5 33.248 1158.87 33.5187 1159.18 33.864C1159.49 34.2 1159.72 34.5873 1159.88 35.026C1160.05 35.4647 1160.13 35.9313 1160.13 36.426C1160.13 36.5473 1160.13 36.6733 1160.12 36.804C1160.11 36.9347 1160.09 37.056 1160.06 37.168H1154.03V35.908H1159.17L1158.41 36.482C1158.51 36.0247 1158.47 35.6187 1158.31 35.264C1158.17 34.9 1157.93 34.6153 1157.61 34.41C1157.31 34.1953 1156.94 34.088 1156.52 34.088C1156.1 34.088 1155.73 34.1953 1155.4 34.41C1155.08 34.6153 1154.82 34.914 1154.65 35.306C1154.47 35.6887 1154.4 36.1553 1154.44 36.706C1154.39 37.2193 1154.46 37.6673 1154.65 38.05C1154.84 38.4327 1155.11 38.7313 1155.46 38.946C1155.81 39.1607 1156.21 39.268 1156.66 39.268C1157.12 39.268 1157.51 39.1653 1157.82 38.96C1158.15 38.7547 1158.41 38.4887 1158.59 38.162L1159.88 38.792C1159.73 39.1467 1159.5 39.4687 1159.18 39.758C1158.87 40.038 1158.5 40.262 1158.06 40.43C1157.63 40.5887 1157.16 40.668 1156.65 40.668ZM1165.18 40.668C1164.45 40.668 1163.8 40.4953 1163.22 40.15C1162.65 39.7953 1162.2 39.3193 1161.86 38.722C1161.53 38.1247 1161.37 37.4527 1161.37 36.706C1161.37 35.9593 1161.54 35.2873 1161.87 34.69C1162.21 34.0927 1162.66 33.6213 1163.23 33.276C1163.8 32.9307 1164.45 32.758 1165.16 32.758C1165.77 32.758 1166.31 32.8793 1166.77 33.122C1167.24 33.3647 1167.61 33.7007 1167.88 34.13L1167.64 34.494V29.902H1169.21V40.5H1167.71V38.96L1167.89 39.254C1167.63 39.7113 1167.26 40.0613 1166.77 40.304C1166.29 40.5467 1165.76 40.668 1165.18 40.668ZM1165.33 39.198C1165.77 39.198 1166.16 39.0907 1166.51 38.876C1166.86 38.6613 1167.14 38.3673 1167.33 37.994C1167.54 37.6113 1167.64 37.182 1167.64 36.706C1167.64 36.23 1167.54 35.8053 1167.33 35.432C1167.14 35.0587 1166.86 34.7647 1166.51 34.55C1166.16 34.3353 1165.77 34.228 1165.33 34.228C1164.89 34.228 1164.5 34.3353 1164.14 34.55C1163.79 34.7647 1163.51 35.0587 1163.32 35.432C1163.12 35.8053 1163.02 36.23 1163.02 36.706C1163.02 37.182 1163.12 37.6113 1163.32 37.994C1163.51 38.3673 1163.78 38.6613 1164.13 38.876C1164.48 39.0907 1164.88 39.198 1165.33 39.198ZM1052.16 60.668C1051.51 60.668 1050.9 60.5467 1050.34 60.304C1049.78 60.052 1049.3 59.7113 1048.91 59.282C1048.52 58.8527 1048.23 58.358 1048.04 57.798L1049.44 57.21C1049.7 57.854 1050.07 58.3487 1050.55 58.694C1051.04 59.0393 1051.6 59.212 1052.23 59.212C1052.6 59.212 1052.93 59.156 1053.21 59.044C1053.49 58.9227 1053.71 58.7547 1053.85 58.54C1054.01 58.3253 1054.09 58.078 1054.09 57.798C1054.09 57.4153 1053.99 57.112 1053.77 56.888C1053.56 56.664 1053.24 56.4867 1052.82 56.356L1050.86 55.74C1050.07 55.4973 1049.48 55.1287 1049.07 54.634C1048.66 54.13 1048.45 53.542 1048.45 52.87C1048.45 52.282 1048.6 51.7687 1048.88 51.33C1049.17 50.882 1049.57 50.532 1050.07 50.28C1050.59 50.028 1051.17 49.902 1051.82 49.902C1052.45 49.902 1053.02 50.014 1053.53 50.238C1054.05 50.4527 1054.48 50.7513 1054.85 51.134C1055.22 51.5167 1055.49 51.96 1055.66 52.464L1054.29 53.066C1054.08 52.5153 1053.76 52.0907 1053.32 51.792C1052.89 51.4933 1052.39 51.344 1051.82 51.344C1051.48 51.344 1051.18 51.4047 1050.91 51.526C1050.65 51.638 1050.45 51.806 1050.3 52.03C1050.16 52.2447 1050.09 52.4967 1050.09 52.786C1050.09 53.122 1050.2 53.4207 1050.41 53.682C1050.63 53.9433 1050.95 54.1393 1051.39 54.27L1053.21 54.844C1054.04 55.096 1054.67 55.46 1055.09 55.936C1055.51 56.4027 1055.72 56.986 1055.72 57.686C1055.72 58.2647 1055.56 58.778 1055.25 59.226C1054.96 59.674 1054.54 60.0287 1054.01 60.29C1053.48 60.542 1052.86 60.668 1052.16 60.668ZM1060.12 60.668C1059.55 60.668 1059.05 60.542 1058.62 60.29C1058.19 60.0287 1057.86 59.6693 1057.61 59.212C1057.38 58.7453 1057.26 58.2087 1057.26 57.602V52.926H1058.84V57.462C1058.84 57.8073 1058.91 58.1107 1059.05 58.372C1059.19 58.6333 1059.39 58.8387 1059.64 58.988C1059.89 59.128 1060.18 59.198 1060.51 59.198C1060.85 59.198 1061.14 59.1233 1061.39 58.974C1061.64 58.8247 1061.84 58.6147 1061.98 58.344C1062.13 58.0733 1062.2 57.756 1062.2 57.392V52.926H1063.77V60.5H1062.27V59.016L1062.44 59.212C1062.27 59.6787 1061.97 60.038 1061.56 60.29C1061.15 60.542 1060.67 60.668 1060.12 60.668ZM1065.62 63.3V52.926H1067.13V54.494L1066.95 54.13C1067.23 53.7007 1067.6 53.3647 1068.07 53.122C1068.54 52.8793 1069.07 52.758 1069.67 52.758C1070.38 52.758 1071.03 52.9307 1071.6 53.276C1072.18 53.6213 1072.63 54.0927 1072.96 54.69C1073.29 55.2873 1073.46 55.9593 1073.46 56.706C1073.46 57.4527 1073.29 58.1247 1072.96 58.722C1072.63 59.3193 1072.18 59.7953 1071.61 60.15C1071.04 60.4953 1070.39 60.668 1069.67 60.668C1069.08 60.668 1068.54 60.5467 1068.06 60.304C1067.58 60.0613 1067.21 59.7113 1066.95 59.254L1067.2 58.96V63.3H1065.62ZM1069.51 59.198C1069.96 59.198 1070.36 59.0907 1070.7 58.876C1071.05 58.6613 1071.32 58.3673 1071.51 57.994C1071.72 57.6113 1071.82 57.182 1071.82 56.706C1071.82 56.23 1071.72 55.8053 1071.51 55.432C1071.32 55.0587 1071.05 54.7647 1070.7 54.55C1070.36 54.3353 1069.96 54.228 1069.51 54.228C1069.07 54.228 1068.68 54.3353 1068.32 54.55C1067.98 54.7647 1067.7 55.0587 1067.5 55.432C1067.3 55.8053 1067.2 56.23 1067.2 56.706C1067.2 57.182 1067.3 57.6113 1067.5 57.994C1067.7 58.3673 1067.98 58.6613 1068.32 58.876C1068.68 59.0907 1069.07 59.198 1069.51 59.198ZM1075 63.3V52.926H1076.51V54.494L1076.33 54.13C1076.61 53.7007 1076.98 53.3647 1077.45 53.122C1077.92 52.8793 1078.45 52.758 1079.04 52.758C1079.76 52.758 1080.41 52.9307 1080.98 53.276C1081.56 53.6213 1082.01 54.0927 1082.33 54.69C1082.67 55.2873 1082.84 55.9593 1082.84 56.706C1082.84 57.4527 1082.67 58.1247 1082.33 58.722C1082.01 59.3193 1081.56 59.7953 1080.99 60.15C1080.42 60.4953 1079.77 60.668 1079.04 60.668C1078.46 60.668 1077.92 60.5467 1077.43 60.304C1076.96 60.0613 1076.59 59.7113 1076.33 59.254L1076.58 58.96V63.3H1075ZM1078.89 59.198C1079.34 59.198 1079.74 59.0907 1080.08 58.876C1080.43 58.6613 1080.7 58.3673 1080.89 57.994C1081.1 57.6113 1081.2 57.182 1081.2 56.706C1081.2 56.23 1081.1 55.8053 1080.89 55.432C1080.7 55.0587 1080.43 54.7647 1080.08 54.55C1079.74 54.3353 1079.34 54.228 1078.89 54.228C1078.45 54.228 1078.06 54.3353 1077.7 54.55C1077.36 54.7647 1077.08 55.0587 1076.87 55.432C1076.68 55.8053 1076.58 56.23 1076.58 56.706C1076.58 57.182 1076.68 57.6113 1076.87 57.994C1077.08 58.3673 1077.36 58.6613 1077.7 58.876C1078.06 59.0907 1078.45 59.198 1078.89 59.198ZM1088.03 60.668C1087.3 60.668 1086.64 60.4953 1086.03 60.15C1085.43 59.8047 1084.96 59.3333 1084.6 58.736C1084.25 58.1387 1084.07 57.462 1084.07 56.706C1084.07 55.9407 1084.25 55.264 1084.6 54.676C1084.96 54.0787 1085.43 53.612 1086.03 53.276C1086.63 52.9307 1087.29 52.758 1088.03 52.758C1088.78 52.758 1089.45 52.9307 1090.03 53.276C1090.63 53.612 1091.1 54.0787 1091.45 54.676C1091.8 55.264 1091.98 55.9407 1091.98 56.706C1091.98 57.4713 1091.8 58.1527 1091.45 58.75C1091.09 59.3473 1090.62 59.8187 1090.02 60.164C1089.42 60.5 1088.76 60.668 1088.03 60.668ZM1088.03 59.198C1088.48 59.198 1088.88 59.0907 1089.22 58.876C1089.57 58.6613 1089.84 58.3673 1090.03 57.994C1090.24 57.6113 1090.34 57.182 1090.34 56.706C1090.34 56.23 1090.24 55.8053 1090.03 55.432C1089.84 55.0587 1089.57 54.7647 1089.22 54.55C1088.88 54.3353 1088.48 54.228 1088.03 54.228C1087.59 54.228 1087.2 54.3353 1086.84 54.55C1086.5 54.7647 1086.22 55.0587 1086.02 55.432C1085.82 55.8053 1085.72 56.23 1085.72 56.706C1085.72 57.182 1085.82 57.6113 1086.02 57.994C1086.22 58.3673 1086.5 58.6613 1086.84 58.876C1087.2 59.0907 1087.59 59.198 1088.03 59.198ZM1093.52 60.5V52.926H1095.04V54.452L1094.9 54.228C1095.06 53.7333 1095.33 53.3787 1095.71 53.164C1096.08 52.94 1096.53 52.828 1097.05 52.828H1097.51V54.27H1096.86C1096.33 54.27 1095.91 54.4333 1095.58 54.76C1095.26 55.0773 1095.11 55.5347 1095.11 56.132V60.5H1093.52ZM1102.01 60.584C1101.22 60.584 1100.6 60.36 1100.16 59.912C1099.72 59.464 1099.5 58.834 1099.5 58.022V54.354H1098.17V52.926H1098.38C1098.74 52.926 1099.01 52.8233 1099.21 52.618C1099.41 52.4127 1099.5 52.1327 1099.5 51.778V51.19H1101.09V52.926H1102.81V54.354H1101.09V57.952C1101.09 58.2133 1101.13 58.4373 1101.21 58.624C1101.3 58.8013 1101.43 58.9413 1101.62 59.044C1101.8 59.1373 1102.05 59.184 1102.35 59.184C1102.42 59.184 1102.5 59.1793 1102.6 59.17C1102.69 59.1607 1102.78 59.1513 1102.86 59.142V60.5C1102.73 60.5187 1102.59 60.5373 1102.43 60.556C1102.27 60.5747 1102.13 60.584 1102.01 60.584ZM1108.86 60.5V51.54H1106.08V50.07H1113.22V51.54H1110.49V60.5H1108.86ZM1116.88 60.668C1116.12 60.668 1115.45 60.4953 1114.86 60.15C1114.28 59.7953 1113.83 59.3193 1113.5 58.722C1113.18 58.1153 1113.01 57.4387 1113.01 56.692C1113.01 55.9267 1113.18 55.25 1113.5 54.662C1113.84 54.074 1114.29 53.612 1114.85 53.276C1115.41 52.9307 1116.04 52.758 1116.75 52.758C1117.32 52.758 1117.83 52.856 1118.28 53.052C1118.73 53.248 1119.1 53.5187 1119.41 53.864C1119.72 54.2 1119.95 54.5873 1120.11 55.026C1120.28 55.4647 1120.36 55.9313 1120.36 56.426C1120.36 56.5473 1120.36 56.6733 1120.35 56.804C1120.34 56.9347 1120.32 57.056 1120.29 57.168H1114.26V55.908H1119.4L1118.64 56.482C1118.73 56.0247 1118.7 55.6187 1118.54 55.264C1118.39 54.9 1118.16 54.6153 1117.84 54.41C1117.54 54.1953 1117.17 54.088 1116.75 54.088C1116.33 54.088 1115.96 54.1953 1115.63 54.41C1115.3 54.6153 1115.05 54.914 1114.88 55.306C1114.7 55.6887 1114.63 56.1553 1114.67 56.706C1114.62 57.2193 1114.69 57.6673 1114.88 58.05C1115.07 58.4327 1115.34 58.7313 1115.69 58.946C1116.04 59.1607 1116.44 59.268 1116.89 59.268C1117.35 59.268 1117.74 59.1653 1118.05 58.96C1118.38 58.7547 1118.64 58.4887 1118.82 58.162L1120.11 58.792C1119.96 59.1467 1119.73 59.4687 1119.41 59.758C1119.1 60.038 1118.73 60.262 1118.29 60.43C1117.86 60.5887 1117.39 60.668 1116.88 60.668ZM1124.11 60.668C1123.59 60.668 1123.14 60.5793 1122.75 60.402C1122.37 60.2153 1122.07 59.9633 1121.85 59.646C1121.64 59.3193 1121.53 58.9367 1121.53 58.498C1121.53 58.0873 1121.62 57.7187 1121.8 57.392C1121.98 57.0653 1122.27 56.79 1122.65 56.566C1123.03 56.342 1123.51 56.1833 1124.09 56.09L1126.72 55.656V56.902L1124.4 57.308C1123.98 57.3827 1123.67 57.518 1123.48 57.714C1123.28 57.9007 1123.18 58.1433 1123.18 58.442C1123.18 58.7313 1123.29 58.9693 1123.5 59.156C1123.73 59.3333 1124.01 59.422 1124.36 59.422C1124.79 59.422 1125.16 59.3287 1125.48 59.142C1125.81 58.9553 1126.06 58.708 1126.23 58.4C1126.41 58.0827 1126.5 57.7327 1126.5 57.35V55.404C1126.5 55.0307 1126.36 54.7273 1126.08 54.494C1125.81 54.2513 1125.45 54.13 1124.99 54.13C1124.57 54.13 1124.2 54.242 1123.88 54.466C1123.57 54.6807 1123.35 54.9607 1123.2 55.306L1121.88 54.648C1122.02 54.2747 1122.25 53.948 1122.57 53.668C1122.88 53.3787 1123.25 53.1547 1123.67 52.996C1124.1 52.8373 1124.55 52.758 1125.03 52.758C1125.63 52.758 1126.16 52.87 1126.61 53.094C1127.08 53.318 1127.44 53.6307 1127.69 54.032C1127.95 54.424 1128.08 54.8813 1128.08 55.404V60.5H1126.57V59.128L1126.89 59.17C1126.72 59.478 1126.49 59.744 1126.21 59.968C1125.94 60.192 1125.62 60.3647 1125.27 60.486C1124.92 60.6073 1124.54 60.668 1124.11 60.668ZM1129.93 60.5V52.926H1131.44V54.564L1131.25 54.312C1131.41 53.7987 1131.7 53.4113 1132.12 53.15C1132.54 52.8887 1133.02 52.758 1133.56 52.758C1134.17 52.758 1134.7 52.9213 1135.17 53.248C1135.64 53.5653 1135.96 53.99 1136.12 54.522L1135.67 54.564C1135.9 53.9573 1136.24 53.5047 1136.69 53.206C1137.16 52.9073 1137.69 52.758 1138.29 52.758C1138.81 52.758 1139.28 52.8793 1139.7 53.122C1140.13 53.3647 1140.47 53.7007 1140.73 54.13C1140.98 54.5593 1141.1 55.0493 1141.1 55.6V60.5H1139.52V56.034C1139.52 55.6513 1139.45 55.3293 1139.31 55.068C1139.18 54.7973 1139 54.592 1138.75 54.452C1138.52 54.3027 1138.24 54.228 1137.93 54.228C1137.61 54.228 1137.33 54.3027 1137.09 54.452C1136.84 54.592 1136.65 54.7973 1136.51 55.068C1136.37 55.3387 1136.3 55.6607 1136.3 56.034V60.5H1134.73V56.034C1134.73 55.6513 1134.66 55.3293 1134.52 55.068C1134.39 54.7973 1134.21 54.592 1133.96 54.452C1133.73 54.3027 1133.45 54.228 1133.12 54.228C1132.81 54.228 1132.53 54.3027 1132.28 54.452C1132.04 54.592 1131.85 54.7973 1131.71 55.068C1131.58 55.3387 1131.51 55.6607 1131.51 56.034V60.5H1129.93Z" fill="#121D2F"/>
<circle cx="1094.65" cy="108.5" r="22.5" fill="#EDFFF2" stroke="#0EB03B" stroke-width="3"/>
<path d="M1084.15 109.158L1091.81 116.815L1107.15 101.5" stroke="#0EB03B" stroke-width="3" stroke-linecap="round" stroke-linejoin="round"/>
</svg>
