<svg width="165" height="80" viewBox="0 0 165 80" fill="none" xmlns="http://www.w3.org/2000/svg">
<path d="M22.4 45.6318C20.984 46.6533 19.2571 47.151 17.5147 47.0398H13.4613V53.8665H9.408V34.6665H17.7707C19.4349 34.5783 21.0738 35.1018 22.3787 36.1385C22.9875 36.728 23.4582 37.445 23.757 38.2381C24.0558 39.0311 24.1752 39.8805 24.1067 40.7252C24.2164 41.6191 24.1196 42.5263 23.8237 43.3769C23.5279 44.2275 23.0408 44.999 22.4 45.6318ZM19.2 38.7198C18.5835 38.2678 17.8302 38.0418 17.0667 38.0798H13.4613V43.7332H17.0667C17.8373 43.774 18.5962 43.5311 19.2 43.0505C19.4711 42.7691 19.6796 42.4336 19.812 42.0659C19.9443 41.6983 19.9975 41.3068 19.968 40.9172C20.0177 40.5165 19.9742 40.1098 19.841 39.7287C19.7078 39.3476 19.4884 39.0023 19.2 38.7198ZM30.7413 32.9812C30.8582 32.7263 30.87 32.4357 30.7741 32.1722C30.6783 31.9086 30.4826 31.6935 30.2293 31.5732L16 24.9598L1.68533 31.5732C1.55786 31.632 1.44323 31.7154 1.34798 31.8185C1.25273 31.9216 1.17872 32.0425 1.13019 32.1743C1.08165 32.306 1.05954 32.446 1.06511 32.5863C1.07069 32.7266 1.10384 32.8644 1.16267 32.9918C1.2215 33.1193 1.30486 33.2339 1.408 33.3292C1.51113 33.4244 1.63202 33.4985 1.76375 33.547C1.89549 33.5955 2.03549 33.6176 2.17577 33.6121C2.31606 33.6065 2.45386 33.5733 2.58133 33.5145L16 27.3065L29.4187 33.4932C29.6735 33.61 29.9642 33.6218 30.2277 33.526C30.4912 33.4302 30.7064 33.2344 30.8267 32.9812H30.7413Z" fill="white"/>
<path d="M41.6499 48.5V31.7727H47.9226C49.2076 31.7727 50.2857 32.0123 51.157 32.4915C52.0336 32.9706 52.6952 33.6295 53.1417 34.468C53.5936 35.3011 53.8196 36.2486 53.8196 37.3104C53.8196 38.383 53.5936 39.3359 53.1417 40.169C52.6897 41.0021 52.0227 41.6583 51.1406 42.1374C50.2585 42.6112 49.1722 42.848 47.8817 42.848H43.7244V40.3569H47.4734C48.2248 40.3569 48.8401 40.2262 49.3192 39.9648C49.7984 39.7035 50.1523 39.3441 50.381 38.8867C50.6152 38.4293 50.7322 37.9039 50.7322 37.3104C50.7322 36.7169 50.6152 36.1941 50.381 35.7422C50.1523 35.2902 49.7957 34.939 49.3111 34.6886C48.8319 34.4326 48.2139 34.3047 47.457 34.3047H44.68V48.5H41.6499ZM59.7064 48.7532C58.9114 48.7532 58.1954 48.6116 57.5583 48.3285C56.9267 48.0399 56.4258 47.6152 56.0555 47.0543C55.6907 46.4935 55.5083 45.802 55.5083 44.9798C55.5083 44.2719 55.6389 43.6866 55.9003 43.2237C56.1617 42.7609 56.5183 42.3906 56.9703 42.1129C57.4222 41.8352 57.9313 41.6256 58.4976 41.484C59.0693 41.337 59.6601 41.2308 60.27 41.1655C61.0051 41.0893 61.6013 41.0212 62.0587 40.9613C62.5161 40.896 62.8482 40.7979 63.0551 40.6673C63.2675 40.5311 63.3737 40.3215 63.3737 40.0384V39.9893C63.3737 39.3741 63.1913 38.8976 62.8264 38.56C62.4616 38.2224 61.9362 38.0536 61.2501 38.0536C60.5259 38.0536 59.9514 38.2115 59.5267 38.5273C59.1075 38.8432 58.8243 39.2161 58.6773 39.6463L55.9166 39.2543C56.1344 38.492 56.4938 37.8549 56.9948 37.343C57.4957 36.8258 58.1083 36.4392 58.8325 36.1832C59.5567 35.9219 60.3571 35.7912 61.2338 35.7912C61.8382 35.7912 62.4398 35.862 63.0388 36.0036C63.6378 36.1451 64.185 36.3793 64.6805 36.706C65.176 37.0272 65.5735 37.4656 65.873 38.021C66.1779 38.5763 66.3303 39.2706 66.3303 40.1037V48.5H63.488V46.7766H63.39C63.2103 47.1251 62.9571 47.4518 62.6304 47.7567C62.3092 48.0562 61.9035 48.2985 61.4134 48.4837C60.9288 48.6634 60.3598 48.7532 59.7064 48.7532ZM60.4742 46.5806C61.0677 46.5806 61.5822 46.4635 62.0178 46.2294C62.4535 45.9898 62.7883 45.674 63.0225 45.282C63.262 44.8899 63.3818 44.4625 63.3818 43.9996V42.5213C63.2893 42.5975 63.1314 42.6683 62.9081 42.7337C62.6903 42.799 62.4453 42.8562 62.173 42.9052C61.9008 42.9542 61.6312 42.9978 61.3644 43.0359C61.0976 43.074 60.8662 43.1067 60.6702 43.1339C60.2291 43.1938 59.8344 43.2918 59.4859 43.4279C59.1374 43.564 58.8624 43.7546 58.661 43.9996C58.4595 44.2392 58.3588 44.5496 58.3588 44.9308C58.3588 45.4753 58.5575 45.8864 58.955 46.1641C59.3525 46.4418 59.8589 46.5806 60.4742 46.5806ZM69.3034 48.5V35.9545H72.1702V38.0455H72.3009C72.5296 37.3213 72.9216 36.7631 73.477 36.3711C74.0378 35.9736 74.6776 35.7749 75.3964 35.7749C75.5597 35.7749 75.7422 35.783 75.9436 35.7994C76.1505 35.8103 76.3221 35.8293 76.4582 35.8565V38.5763C76.3329 38.5328 76.1342 38.4947 75.862 38.462C75.5951 38.4239 75.3365 38.4048 75.086 38.4048C74.547 38.4048 74.0624 38.5219 73.6322 38.756C73.2075 38.9847 72.8726 39.3033 72.6276 39.7116C72.3825 40.12 72.26 40.591 72.26 41.1246V48.5H69.3034ZM81.1178 44.5632L81.1096 40.994H81.5834L86.0919 35.9545H89.5468L84.001 42.1293H83.3884L81.1178 44.5632ZM78.4225 48.5V31.7727H81.3792V48.5H78.4225ZM86.2961 48.5L82.2123 42.7908L84.2052 40.7081L89.8327 48.5H86.2961ZM94.6781 31.7727V48.5H91.6479V31.7727H94.6781ZM104.093 35.9545V38.2415H96.8813V35.9545H104.093ZM98.6618 32.9489H101.619V44.7266C101.619 45.1241 101.678 45.429 101.798 45.6413C101.923 45.8482 102.087 45.9898 102.288 46.0661C102.49 46.1423 102.713 46.1804 102.958 46.1804C103.143 46.1804 103.312 46.1668 103.464 46.1396C103.622 46.1123 103.742 46.0878 103.824 46.0661L104.322 48.3775C104.164 48.4319 103.938 48.4918 103.644 48.5572C103.355 48.6225 103.002 48.6606 102.582 48.6715C101.842 48.6933 101.175 48.5817 100.581 48.3366C99.9877 48.0862 99.5167 47.6996 99.1682 47.1768C98.8252 46.6541 98.6564 46.0007 98.6618 45.2166V32.9489ZM106.966 48.5V31.7727H117.846V34.3129H109.996V38.854H117.282V41.3942H109.996V45.9599H117.911V48.5H106.966ZM124.416 48.7532C123.621 48.7532 122.905 48.6116 122.268 48.3285C121.637 48.0399 121.136 47.6152 120.765 47.0543C120.401 46.4935 120.218 45.802 120.218 44.9798C120.218 44.2719 120.349 43.6866 120.61 43.2237C120.872 42.7609 121.228 42.3906 121.68 42.1129C122.132 41.8352 122.641 41.6256 123.208 41.484C123.779 41.337 124.37 41.2308 124.98 41.1655C125.715 41.0893 126.311 41.0212 126.769 40.9613C127.226 40.896 127.558 40.7979 127.765 40.6673C127.977 40.5311 128.084 40.3215 128.084 40.0384V39.9893C128.084 39.3741 127.901 38.8976 127.536 38.56C127.172 38.2224 126.646 38.0536 125.96 38.0536C125.236 38.0536 124.661 38.2115 124.237 38.5273C123.817 38.8432 123.534 39.2161 123.387 39.6463L120.627 39.2543C120.844 38.492 121.204 37.8549 121.705 37.343C122.206 36.8258 122.818 36.4392 123.542 36.1832C124.267 35.9219 125.067 35.7912 125.944 35.7912C126.548 35.7912 127.15 35.862 127.749 36.0036C128.348 36.1451 128.895 36.3793 129.39 36.706C129.886 37.0272 130.283 37.4656 130.583 38.021C130.888 38.5763 131.04 39.2706 131.04 40.1037V48.5H128.198V46.7766H128.1C127.92 47.1251 127.667 47.4518 127.34 47.7567C127.019 48.0562 126.613 48.2985 126.123 48.4837C125.639 48.6634 125.07 48.7532 124.416 48.7532ZM125.184 46.5806C125.778 46.5806 126.292 46.4635 126.728 46.2294C127.163 45.9898 127.498 45.674 127.732 45.282C127.972 44.8899 128.092 44.4625 128.092 43.9996V42.5213C127.999 42.5975 127.841 42.6683 127.618 42.7337C127.4 42.799 127.155 42.8562 126.883 42.9052C126.611 42.9542 126.341 42.9978 126.074 43.0359C125.808 43.074 125.576 43.1067 125.38 43.1339C124.939 43.1938 124.544 43.2918 124.196 43.4279C123.847 43.564 123.572 43.7546 123.371 43.9996C123.169 44.2392 123.069 44.5496 123.069 44.9308C123.069 45.4753 123.267 45.8864 123.665 46.1641C124.062 46.4418 124.569 46.5806 125.184 46.5806ZM143.929 39.2706L141.233 39.5646C141.157 39.2924 141.024 39.0365 140.833 38.7969C140.648 38.5573 140.398 38.364 140.082 38.217C139.766 38.07 139.379 37.9964 138.922 37.9964C138.307 37.9964 137.789 38.1299 137.37 38.3967C136.956 38.6635 136.752 39.0092 136.758 39.4339C136.752 39.7988 136.886 40.0955 137.158 40.3242C137.436 40.5529 137.893 40.7408 138.53 40.8878L140.67 41.3452C141.857 41.6011 142.739 42.0067 143.316 42.5621C143.899 43.1175 144.193 43.8445 144.198 44.7429C144.193 45.5324 143.961 46.2294 143.504 46.8338C143.052 47.4328 142.423 47.901 141.617 48.2386C140.811 48.5762 139.886 48.745 138.84 48.745C137.305 48.745 136.069 48.4238 135.132 47.7812C134.196 47.1333 133.638 46.2321 133.458 45.0778L136.341 44.8001C136.472 45.3664 136.749 45.7938 137.174 46.0824C137.599 46.371 138.152 46.5153 138.832 46.5153C139.535 46.5153 140.098 46.371 140.523 46.0824C140.953 45.7938 141.168 45.4371 141.168 45.0124C141.168 44.6531 141.029 44.3563 140.752 44.1222C140.479 43.888 140.055 43.7083 139.477 43.5831L137.338 43.1339C136.134 42.8834 135.244 42.4614 134.667 41.8679C134.09 41.2689 133.804 40.5121 133.809 39.5973C133.804 38.8241 134.013 38.1544 134.438 37.5881C134.868 37.0163 135.464 36.5753 136.227 36.2649C136.994 35.9491 137.879 35.7912 138.881 35.7912C140.351 35.7912 141.508 36.1043 142.352 36.7305C143.202 37.3567 143.727 38.2034 143.929 39.2706ZM148.474 53.2045C148.071 53.2045 147.698 53.1719 147.355 53.1065C147.018 53.0466 146.748 52.9759 146.547 52.8942L147.233 50.5909C147.663 50.7161 148.047 50.776 148.384 50.7706C148.722 50.7652 149.019 50.659 149.275 50.4521C149.536 50.2506 149.756 49.913 149.936 49.4393L150.189 48.7614L145.64 35.9545H148.776L151.668 45.429H151.798L154.698 35.9545H157.842L152.819 50.0192C152.585 50.6835 152.275 51.2525 151.888 51.7262C151.502 52.2054 151.028 52.5702 150.467 52.8207C149.912 53.0766 149.247 53.2045 148.474 53.2045Z" fill="white"/>
</svg>
